<svg width="244" height="372" viewBox="0 0 244 372" fill="none" xmlns="http://www.w3.org/2000/svg">
<g clip-path="url(#clip0)">
<path d="M23.6337 376.413V175.674H3V127.266H23.6337C23.6337 127.266 23.6337 32.8209 81.8139 32.8209C95.6824 35.0776 137.626 39.2526 144.391 28.4202C151.157 17.5878 176.323 -19.6488 180.923 58.8865C185.523 137.422 161.868 117.788 149.465 98.1541C143.021 88.9099 134.874 83.8769 124.773 80.507C103.801 80.89 96.5844 108.731 96.6972 124.558L128.832 127.266V171.273L93.3146 175.674V376.413L58.4742 393L23.6337 376.413Z" fill="#8798BD"/>
<path d="M58.4742 393L23.6337 376.413V175.674H3V127.266H23.6337C23.6337 127.266 23.6337 32.8209 81.8139 32.8209C95.6824 35.0776 137.626 39.2526 144.391 28.4202M58.4742 393L93.3146 376.413V175.674M58.4742 393V175.674M93.3146 175.674H58.4742M93.3146 175.674L128.832 171.273M58.4742 175.674L96.6972 171.273M128.832 171.273V127.266L96.6972 124.558M128.832 171.273H96.6972M96.6972 124.558V171.273M96.6972 124.558L58.4742 127.266C58.4742 127.266 58.4742 78.8588 81.8139 76.4892C91.3337 74.9921 109.424 75.3868 124.773 80.507M96.6972 124.558C96.5844 108.731 103.801 80.89 124.773 80.507M144.391 28.4202C151.157 17.5878 176.323 -19.6488 180.923 58.8865C185.523 137.422 161.868 117.788 149.465 98.1541M144.391 28.4202C139.994 35.4613 127.546 49.9495 149.465 98.1541M149.465 98.1541C143.021 88.9099 134.874 83.8769 124.773 80.507" stroke="black" stroke-width="3"/>
<path d="M167.802 49.0223C172.876 49.6993 176.935 60.5318 167.802 62.2243L140.013 72.7183L139.431 69.3331L136.612 56.8082L137.043 43.9446L154.175 46.9912L167.802 49.0223Z" fill="url(#paint0_linear)"/>
<path d="M180.994 59.5634C176.394 -18.9718 151.495 15.1709 144.73 26.0033C142.451 29.6526 140.332 31.0811 137.043 43.9446L154.175 46.9912L167.802 49.0223C172.876 49.6993 176.935 60.5318 167.802 62.2243L140.013 72.7183C141.985 80.2291 145.445 89.8319 149.537 98.831C161.939 118.465 185.595 138.099 180.994 59.5634Z" fill="url(#paint1_linear)"/>
<path d="M144.73 26.0033C151.495 15.1709 176.394 -18.9718 180.994 59.5634C185.595 138.099 161.939 118.465 149.537 98.831M144.73 26.0033C140.332 33.0444 127.618 50.6265 149.537 98.831M144.73 26.0033C142.451 29.6526 140.332 31.0811 137.043 43.9446M149.537 98.831C145.445 89.8319 141.985 80.2291 140.013 72.7183M167.802 49.0223C172.876 49.6993 176.935 60.5318 167.802 62.2243M167.802 49.0223L154.175 46.9912M167.802 49.0223C160.699 49.6993 159.346 60.1933 167.802 62.2243M167.802 62.2243L154.175 65.271M167.802 62.2243L140.013 72.7183M139.431 69.3331L154.175 65.271M139.431 69.3331L140.013 72.7183M139.431 69.3331L136.612 56.8082L137.043 43.9446M137.043 43.9446L154.175 46.9912M154.175 46.9912C151.437 48.845 147.604 55.4444 154.175 65.271" stroke="black" stroke-width="2"/>
<g filter="url(#filter0_f)">
<path d="M177.202 15.848L188.365 4" stroke="#D9D9D9" stroke-width="3"/>
</g>
<g filter="url(#filter1_f)">
<path d="M180.585 30.7426L199.527 14.1554" stroke="#D9D9D9" stroke-width="3"/>
</g>
<g filter="url(#filter2_f)">
<path d="M182.615 43.2676L219.146 23.6338" stroke="#D9D9D9" stroke-width="3"/>
</g>
<g filter="url(#filter3_f)">
<path d="M184.644 57.4852L232 39.5439" stroke="#D9D9D9" stroke-width="3"/>
</g>
<g filter="url(#filter4_f)">
<path d="M183.968 70.6873L215.425 66.6251" stroke="#D9D9D9" stroke-width="3"/>
</g>
<g filter="url(#filter5_f)">
<path d="M184.306 82.8738L222.191 85.9204" stroke="#D9D9D9" stroke-width="3"/>
</g>
<g filter="url(#filter6_f)">
<path d="M183.629 94.0448L210.69 101.831" stroke="#D9D9D9" stroke-width="3"/>
</g>
<g filter="url(#filter7_f)">
<path d="M182.615 104.2L200.542 113.679" stroke="#D9D9D9" stroke-width="3"/>
</g>
<g filter="url(#filter8_f)">
<path d="M176.864 114.694L187.688 124.85" stroke="#D9D9D9" stroke-width="3"/>
</g>
</g>
<defs>
<filter id="filter0_f" x="173.111" y="-0.0285645" width="19.346" height="19.9052" filterUnits="userSpaceOnUse" color-interpolation-filters="sRGB">
<feFlood flood-opacity="0" result="BackgroundImageFix"/>
<feBlend mode="normal" in="SourceGraphic" in2="BackgroundImageFix" result="shape"/>
<feGaussianBlur stdDeviation="1.5" result="effect1_foregroundBlur"/>
</filter>
<filter id="filter1_f" x="176.597" y="10.0269" width="26.9188" height="24.8442" filterUnits="userSpaceOnUse" color-interpolation-filters="sRGB">
<feFlood flood-opacity="0" result="BackgroundImageFix"/>
<feBlend mode="normal" in="SourceGraphic" in2="BackgroundImageFix" result="shape"/>
<feGaussianBlur stdDeviation="1.5" result="effect1_foregroundBlur"/>
</filter>
<filter id="filter2_f" x="178.904" y="19.3125" width="43.952" height="28.2764" filterUnits="userSpaceOnUse" color-interpolation-filters="sRGB">
<feFlood flood-opacity="0" result="BackgroundImageFix"/>
<feBlend mode="normal" in="SourceGraphic" in2="BackgroundImageFix" result="shape"/>
<feGaussianBlur stdDeviation="1.5" result="effect1_foregroundBlur"/>
</filter>
<filter id="filter3_f" x="181.113" y="35.1412" width="54.4188" height="26.7467" filterUnits="userSpaceOnUse" color-interpolation-filters="sRGB">
<feFlood flood-opacity="0" result="BackgroundImageFix"/>
<feBlend mode="normal" in="SourceGraphic" in2="BackgroundImageFix" result="shape"/>
<feGaussianBlur stdDeviation="1.5" result="effect1_foregroundBlur"/>
</filter>
<filter id="filter4_f" x="180.775" y="62.1375" width="37.8421" height="13.0375" filterUnits="userSpaceOnUse" color-interpolation-filters="sRGB">
<feFlood flood-opacity="0" result="BackgroundImageFix"/>
<feBlend mode="normal" in="SourceGraphic" in2="BackgroundImageFix" result="shape"/>
<feGaussianBlur stdDeviation="1.5" result="effect1_foregroundBlur"/>
</filter>
<filter id="filter5_f" x="181.186" y="78.3787" width="44.1253" height="12.037" filterUnits="userSpaceOnUse" color-interpolation-filters="sRGB">
<feFlood flood-opacity="0" result="BackgroundImageFix"/>
<feBlend mode="normal" in="SourceGraphic" in2="BackgroundImageFix" result="shape"/>
<feGaussianBlur stdDeviation="1.5" result="effect1_foregroundBlur"/>
</filter>
<filter id="filter6_f" x="180.214" y="89.6033" width="33.8901" height="16.6689" filterUnits="userSpaceOnUse" color-interpolation-filters="sRGB">
<feFlood flood-opacity="0" result="BackgroundImageFix"/>
<feBlend mode="normal" in="SourceGraphic" in2="BackgroundImageFix" result="shape"/>
<feGaussianBlur stdDeviation="1.5" result="effect1_foregroundBlur"/>
</filter>
<filter id="filter7_f" x="178.913" y="99.8741" width="25.3298" height="18.1305" filterUnits="userSpaceOnUse" color-interpolation-filters="sRGB">
<feFlood flood-opacity="0" result="BackgroundImageFix"/>
<feBlend mode="normal" in="SourceGraphic" in2="BackgroundImageFix" result="shape"/>
<feGaussianBlur stdDeviation="1.5" result="effect1_foregroundBlur"/>
</filter>
<filter id="filter8_f" x="172.838" y="110.6" width="18.8769" height="18.3433" filterUnits="userSpaceOnUse" color-interpolation-filters="sRGB">
<feFlood flood-opacity="0" result="BackgroundImageFix"/>
<feBlend mode="normal" in="SourceGraphic" in2="BackgroundImageFix" result="shape"/>
<feGaussianBlur stdDeviation="1.5" result="effect1_foregroundBlur"/>
</filter>
<linearGradient id="paint0_linear" x1="139.051" y1="60.1933" x2="179.98" y2="57.1513" gradientUnits="userSpaceOnUse">
<stop stop-color="#ACACAC"/>
<stop offset="0.289719" stop-color="#BABABA" stop-opacity="0.833333"/>
<stop offset="1" stop-color="#FAFAFA"/>
</linearGradient>
<linearGradient id="paint1_linear" x1="139.051" y1="60.1933" x2="179.98" y2="57.1513" gradientUnits="userSpaceOnUse">
<stop stop-color="#ACACAC"/>
<stop offset="0.289719" stop-color="#BABABA" stop-opacity="0.833333"/>
<stop offset="1" stop-color="#FAFAFA"/>
</linearGradient>
<clipPath id="clip0">
<rect width="244" height="372" fill="white"/>
</clipPath>
</defs>
</svg>
