<?xml version="1.0" standalone="no"?>
<!DOCTYPE svg PUBLIC "-//W3C//DTD SVG 20010904//EN"
 "http://www.w3.org/TR/2001/REC-SVG-20010904/DTD/svg10.dtd">
<svg version="1.0" xmlns="http://www.w3.org/2000/svg"
 width="1216.000000pt" height="912.000000pt" viewBox="0 0 1216.000000 912.000000"
 preserveAspectRatio="xMidYMid meet">
<metadata>
Created by potrace 1.15, written by Peter Selinger 2001-2017
</metadata>
<g transform="translate(0.000000,912.000000) scale(0.100000,-0.100000)"
fill="#000000" stroke="none">
<path d="M6911 8170 c-60 -28 -63 -31 -55 -57 4 -16 8 -38 8 -50 1 -13 4 -23
8 -23 3 0 10 -15 14 -32 5 -25 337 -1185 359 -1259 7 -20 -43 -45 -59 -29 -5
5 -23 10 -38 10 -15 0 -37 9 -48 20 -11 11 -33 20 -48 20 -26 0 -52 15 -52 31
0 4 27 12 60 17 98 18 99 21 33 82 -183 170 -186 173 -195 219 -11 58 -48 138
-84 180 -40 47 -121 97 -172 106 l-43 7 61 36 c112 67 123 165 15 138 -31 -8
-81 -51 -118 -101 l-29 -40 6 38 c8 43 -10 52 -20 10 -10 -44 -13 -45 -48 -18
-36 27 -94 51 -103 42 -3 -3 18 -20 46 -37 56 -35 65 -45 25 -30 -33 13 -105
13 -138 0 -18 -6 -26 -17 -26 -33 0 -32 18 -47 59 -47 l36 0 -36 -24 c-47 -32
-114 -124 -125 -171 -10 -43 -23 -130 -27 -180 -3 -35 -14 -79 -27 -105 -32
-62 -72 -172 -65 -178 11 -11 108 -1 166 18 l60 18 11 -24 c9 -19 8 -37 -1
-74 -18 -70 -3 -124 34 -125 6 0 9 -17 7 -38 -2 -23 2 -42 11 -51 12 -13 19
-12 50 10 20 13 38 24 40 24 3 0 24 -25 47 -55 l43 -55 -18 -40 c-13 -29 -16
-52 -11 -86 6 -43 3 -49 -34 -94 -37 -45 -43 -48 -78 -43 -29 4 -41 0 -56 -16
-11 -12 -26 -21 -35 -21 -28 0 -58 -28 -64 -58 -4 -21 -15 -33 -36 -40 -23 -8
-31 -18 -37 -46 -3 -20 -10 -36 -14 -36 -17 0 -40 -32 -40 -54 0 -13 20 -63
45 -112 30 -58 45 -101 45 -125 0 -116 43 -283 96 -376 14 -24 21 -43 17 -43
-4 0 -3 -4 3 -8 6 -4 35 -36 63 -72 73 -92 70 -89 154 -154 64 -49 75 -62 67
-77 -6 -10 -10 -27 -10 -38 0 -23 -57 -59 -70 -44 -4 4 -41 60 -82 123 -90
139 -228 323 -332 445 -122 142 -227 255 -236 255 -13 0 -18 -35 -31 -201 -22
-285 22 -644 120 -998 11 -41 20 -75 18 -76 -1 -1 -42 41 -91 92 l-89 93 20
23 c45 49 54 96 28 147 -29 57 -104 61 -176 10 l-29 -22 -49 41 c-27 23 -54
54 -59 70 -10 28 -10 29 35 35 89 12 176 65 209 128 37 72 1 158 -67 158 -62
0 -101 -43 -179 -198 -12 -24 -23 -42 -24 -40 -6 6 -77 260 -74 263 2 1 26 14
55 29 110 55 207 126 229 167 22 43 18 124 -7 148 -45 42 -128 33 -175 -20
-12 -13 -43 -77 -70 -141 -27 -67 -51 -112 -55 -105 -10 17 -81 278 -77 281 2
1 35 21 75 44 141 82 243 202 243 285 0 55 -43 97 -100 97 -100 0 -156 -71
-213 -269 -13 -46 -26 -80 -29 -75 -9 15 -78 262 -77 276 0 7 50 53 110 103
88 71 115 100 136 142 43 89 18 172 -61 202 -33 13 -39 12 -83 -11 -63 -32
-87 -81 -111 -228 -11 -63 -22 -108 -26 -100 -3 8 -23 74 -45 147 l-38 132 51
41 c62 50 158 159 194 220 32 53 36 132 9 173 -44 68 -152 49 -201 -35 -28
-49 -60 -160 -71 -252 -6 -48 -10 -55 -18 -40 -6 11 -11 102 -11 224 -1 200
-2 207 -27 255 -48 94 -137 123 -201 66 -29 -25 -32 -35 -36 -94 -4 -55 0 -75
22 -122 30 -66 98 -166 167 -245 50 -58 64 -88 104 -229 l23 -83 -116 120
c-102 105 -123 122 -168 135 -63 19 -95 13 -130 -24 -23 -24 -28 -38 -27 -77
0 -66 2 -70 55 -118 30 -27 68 -49 110 -63 84 -28 193 -51 244 -51 23 0 46 -6
52 -13 6 -7 27 -71 47 -142 20 -72 39 -139 42 -150 3 -11 -27 11 -73 53 -125
115 -217 152 -299 118 -45 -19 -67 -55 -67 -112 0 -37 6 -52 28 -75 47 -49
117 -64 286 -63 126 0 149 -2 153 -15 2 -9 22 -79 45 -156 22 -77 43 -148 46
-158 3 -9 -30 19 -74 62 -44 44 -95 89 -113 100 -61 37 -185 22 -203 -24 -22
-57 11 -127 75 -160 15 -8 96 -26 180 -40 84 -14 153 -26 155 -27 1 -2 15 -46
29 -98 15 -52 30 -102 33 -110 3 -8 -13 1 -34 21 -50 47 -91 67 -159 80 -63
12 -125 -1 -153 -31 -18 -19 -22 -18 -238 106 -229 131 -722 384 -749 384 -11
0 -15 -10 -15 -38 0 -213 141 -686 315 -1059 25 -53 44 -97 43 -97 -73 -26
-103 -81 -103 -191 0 -44 4 -102 8 -130 l9 -50 -75 99 -74 99 23 41 c83 143
86 382 6 425 -79 42 -152 -30 -152 -149 0 -36 9 -97 19 -135 l19 -70 -24 30
c-14 17 -50 62 -80 101 l-55 72 15 58 c49 194 46 402 -7 436 -21 13 -75 9 -91
-7 -42 -42 -47 -178 -12 -310 13 -49 24 -91 23 -92 -1 0 -41 44 -88 99 l-86
100 19 102 c45 238 -7 437 -108 412 -40 -10 -58 -64 -58 -176 0 -79 5 -107 27
-165 l28 -70 -91 91 c-91 90 -92 91 -116 179 -30 106 -63 172 -111 226 -48 53
-81 69 -142 69 -60 0 -81 -22 -81 -85 1 -112 117 -235 277 -293 33 -12 70 -33
82 -46 l23 -25 -62 20 c-127 39 -243 14 -271 -60 -12 -31 11 -68 56 -87 68
-28 242 -13 355 31 11 4 41 -24 97 -88 l82 -94 -62 25 c-51 21 -79 26 -157 26
-102 1 -149 -14 -170 -55 -26 -48 7 -117 68 -140 62 -24 207 2 378 68 5 2 52
-46 102 -107 51 -60 91 -110 89 -110 -2 0 -30 9 -63 21 -132 46 -234 43 -294
-8 -57 -48 -29 -151 47 -172 76 -21 138 -11 291 49 46 17 85 30 86 28 75 -94
185 -238 182 -238 -2 0 -33 7 -67 16 -80 20 -219 15 -266 -9 -66 -35 -79 -92
-31 -137 55 -50 159 -42 311 25 45 20 88 37 95 38 11 2 184 -224 177 -231 -2
-2 -23 2 -46 9 -58 16 -213 17 -265 1 -62 -18 -97 -55 -92 -96 4 -33 2 -35
-62 -66 -144 -71 -301 -177 -424 -287 -26 -23 -52 -40 -58 -37 -9 6 -7 45 3
54 4 3 29 52 57 110 95 199 154 414 168 613 5 75 4 97 -6 97 -19 0 -153 -75
-251 -141 -92 -62 -188 -137 -255 -201 l-41 -39 13 80 c23 143 37 363 30 471
-7 112 -24 231 -33 240 -10 10 -123 -123 -194 -229 -84 -125 -196 -350 -236
-473 -15 -48 -31 -88 -34 -88 -3 0 -11 24 -17 53 -69 328 -105 513 -131 672
-17 105 -34 205 -37 223 -2 17 -9 32 -15 32 -14 0 -78 -142 -124 -275 -21 -60
-41 -114 -45 -118 -8 -10 -115 257 -160 398 -64 202 -111 445 -126 653 -4 50
-10 92 -14 92 -15 0 -46 -102 -104 -335 -68 -271 -106 -559 -106 -790 1 -497
69 -880 221 -1239 16 -37 29 -70 29 -73 0 -10 -147 124 -264 242 -66 66 -112
113 -101 106 11 -8 -3 10 -31 40 -172 182 -424 592 -537 873 -24 59 -48 107
-53 107 -15 0 -24 -69 -30 -251 -10 -271 22 -525 96 -748 15 -48 30 -94 32
-102 1 -8 5 -17 8 -20 3 -3 31 -57 63 -120 129 -258 318 -464 673 -737 l29
-23 -35 5 c-19 2 -138 9 -265 15 -245 12 -442 4 -606 -25 -96 -16 -215 -51
-224 -65 -7 -12 65 -59 150 -97 90 -41 269 -102 415 -142 63 -18 122 -35 130
-38 8 -3 20 -5 27 -4 6 1 14 -3 18 -8 3 -6 12 -8 20 -4 8 3 15 0 15 -7 0 -6 4
-9 10 -5 5 3 44 -3 87 -14 149 -38 479 -101 633 -121 181 -23 683 -45 880 -37
74 3 194 13 265 22 l130 18 90 -27 c138 -40 171 -36 235 34 33 35 43 40 157
64 66 15 170 42 229 61 77 24 113 31 125 24 10 -5 28 -9 42 -9 37 0 39 -10 8
-40 -68 -62 -62 -217 9 -248 36 -16 50 -9 50 24 0 20 5 24 30 24 20 0 30 5 30
15 0 30 30 75 61 91 17 8 55 40 84 71 45 47 61 57 111 69 77 18 104 17 144 -3
30 -15 49 -15 174 -5 77 6 145 8 151 4 5 -3 19 -5 31 -4 28 4 80 -41 105 -89
10 -21 30 -46 43 -54 38 -25 125 -39 191 -30 50 6 65 12 92 42 43 45 44 67 3
61 -37 -6 -59 14 -40 37 22 27 5 44 -37 38 -26 -3 -43 -1 -50 9 -10 11 0 12
61 8 51 -5 96 -17 157 -43 160 -69 196 -74 509 -68 80 1 170 2 200 1 53 -2 54
-2 20 -11 -19 -5 -107 -20 -194 -33 -179 -26 -189 -32 -184 -101 3 -39 4 -40
62 -57 100 -30 222 -39 384 -28 81 5 174 17 207 25 80 19 89 19 100 -7 10 -22
14 -23 125 -20 69 2 120 8 127 15 17 18 43 115 43 162 l0 42 117 7 c124 8 237
32 300 65 22 10 62 40 90 66 l52 46 126 -34 c76 -21 135 -43 148 -55 12 -11
48 -31 79 -43 63 -24 63 -21 18 -108 -26 -52 -26 -101 1 -135 44 -56 108 -20
222 124 l60 75 771 5 771 6 172 32 c337 62 513 110 596 162 106 67 27 85 -222
51 -80 -12 -162 -21 -181 -21 l-35 0 33 20 c17 11 32 24 32 30 0 19 -47 38
-160 64 -154 35 -179 42 -160 49 8 4 92 31 185 62 94 31 194 68 224 83 54 27
82 54 69 68 -4 4 -81 19 -170 35 -90 15 -173 32 -186 36 -20 8 -8 19 124 113
208 148 354 289 354 342 0 15 -8 18 -49 18 -75 0 -279 -28 -441 -60 -79 -16
-146 -28 -147 -26 -2 2 69 49 156 105 181 115 291 194 303 215 18 33 -2 46
-71 46 -103 0 -389 -73 -496 -127 -18 -9 23 38 100 114 176 175 255 281 255
345 0 115 -272 -72 -519 -357 l-43 -50 35 65 c127 236 319 643 362 771 26 75
33 163 14 174 -56 35 -269 -236 -441 -563 -33 -62 -82 -163 -109 -225 l-49
-112 0 99 0 99 91 121 c185 245 328 482 436 719 56 123 103 234 103 246 0 2
-28 1 -62 -3 -127 -13 -542 -117 -788 -198 -221 -72 -561 -233 -797 -376
l-132 -80 24 38 c181 286 365 761 500 1285 59 226 70 303 84 550 9 165 4 570
-8 592 -5 10 -25 4 -76 -22 -120 -59 -177 -94 -290 -180 -213 -161 -396 -342
-556 -550 -73 -94 -259 -372 -259 -386 0 -19 -18 1 -25 28 -3 15 -17 39 -29
54 -14 16 -28 53 -35 90 -26 136 -74 318 -107 404 -20 50 -33 99 -30 111 4 14
-7 39 -34 76 -34 48 -48 87 -104 284 -185 660 -346 1217 -464 1604 -15 50 -20
55 -47 57 -17 2 -58 -11 -94 -27z m-214 -816 c74 -36 138 -110 163 -191 22
-73 25 -93 10 -93 -5 0 -10 8 -10 18 0 45 -33 122 -70 164 -56 64 -124 92
-211 86 -154 -11 -259 -126 -259 -283 l0 -50 -61 -22 -61 -22 7 62 c10 105 25
155 65 216 52 80 122 126 220 145 51 9 155 -6 207 -30z m-11 -45 c51 -16 109
-77 133 -142 35 -95 34 -97 -57 -97 -92 0 -214 -14 -334 -39 l-88 -18 0 47 c0
186 164 304 346 249z m297 -342 l87 -82 -19 -25 c-18 -22 -22 -24 -53 -13 -70
24 -81 26 -73 13 6 -10 -2 -12 -36 -6 -67 10 -204 81 -257 134 l-47 46 40 7
c22 3 92 7 155 7 l115 2 88 -83z m-433 55 c0 -18 -59 -99 -92 -127 -72 -61
-84 -69 -164 -112 -52 -27 -101 -46 -133 -50 l-50 -6 40 99 c22 54 45 104 50
111 28 33 349 112 349 85z m9 -137 c20 -14 53 -45 71 -70 37 -50 58 -61 76
-43 12 12 8 54 -12 121 -5 15 4 13 55 -13 l61 -30 0 -51 c0 -41 -5 -54 -26
-74 -15 -14 -22 -25 -15 -25 7 0 24 12 38 26 l26 26 31 -31 31 -31 -25 -17
c-40 -28 -193 -159 -219 -186 -13 -14 -36 -29 -52 -32 -31 -7 -39 -22 -13 -27
13 -3 13 -5 0 -23 -16 -19 -17 -19 -56 25 -22 25 -40 49 -40 53 0 4 10 11 23
16 17 7 24 4 29 -10 9 -24 41 -24 79 -2 36 21 36 56 1 61 l-22 3 22 19 23 19
-45 20 c-69 31 -107 28 -145 -13 -39 -42 -80 -55 -103 -33 -13 14 -14 26 -6
77 7 44 7 70 -2 95 -11 33 -11 34 40 69 28 19 67 51 86 71 18 19 38 35 42 35
5 0 26 -11 47 -25z m-1572 -21 c58 -37 88 -174 77 -353 l-7 -105 -34 40 c-100
118 -182 265 -183 327 -1 92 73 137 147 91z m2187 -186 c6 -26 8 -158 2 -158
-2 0 -11 -3 -20 -6 -10 -4 -16 -1 -16 9 0 20 -22 26 -83 25 -42 -1 -50 -5 -63
-29 -8 -15 -14 -35 -14 -44 0 -10 -10 -15 -34 -15 -27 0 -42 -9 -80 -50 -26
-28 -46 -59 -46 -72 -1 -13 -18 -52 -40 -88 -21 -36 -36 -67 -34 -69 2 -3 17
8 32 22 34 33 36 33 75 3 18 -13 60 -38 93 -55 l62 -31 -9 -38 c-12 -50 -11
-139 1 -181 17 -59 4 -45 -45 49 -26 51 -49 90 -51 87 -10 -10 40 -125 75
-171 45 -60 60 -102 31 -86 -32 17 -33 11 -3 -24 32 -36 45 -87 62 -237 6 -48
17 -104 25 -124 30 -71 25 -84 -82 -186 -54 -52 -132 -117 -174 -146 l-77 -52
-15 47 c-19 58 -80 345 -101 472 -38 232 -29 415 26 530 33 71 35 77 14 60
-19 -16 -19 -14 4 51 68 200 236 413 392 499 65 36 85 37 93 8z m-1815 -24
c43 -55 23 -124 -69 -238 -54 -66 -147 -152 -156 -143 -9 8 26 211 47 275 27
82 73 132 122 132 26 0 41 -7 56 -26z m1940 -188 c116 -51 147 -71 214 -135
45 -42 117 -132 117 -144 0 -3 -21 -17 -46 -32 l-46 -27 -66 70 c-38 41 -79
74 -94 78 -18 4 -28 13 -28 24 0 30 -39 69 -82 82 -30 9 -36 13 -23 18 16 6
14 9 -11 27 -17 12 -47 23 -69 25 -51 4 -55 21 -8 41 21 8 38 15 39 16 1 1 47
-19 103 -43z m-340 -132 c-22 -23 -22 -24 -4 -45 13 -13 26 -18 40 -15 14 4
27 -3 46 -26 l27 -32 -26 -38 -25 -38 -75 40 c-41 22 -85 48 -97 58 l-22 17
76 66 c51 45 77 61 79 52 2 -8 -6 -26 -19 -39z m319 16 c33 -15 42 -24 42 -44
0 -14 -4 -28 -10 -31 -5 -3 -10 -2 -10 3 0 14 -71 32 -89 22 -9 -4 -27 -26
-41 -49 -14 -22 -31 -41 -39 -41 -11 0 -11 3 -1 15 20 24 2 54 -40 66 -22 7
-37 16 -33 21 3 6 33 23 67 39 65 32 79 31 154 -1z m-2392 -38 c32 -22 87 -68
121 -103 62 -65 133 -147 133 -155 0 -6 -70 4 -160 23 -95 19 -210 72 -232
105 -37 56 -35 111 4 148 32 30 68 25 134 -18z m582 -78 c26 -30 30 -90 8
-133 -16 -29 -174 -184 -207 -201 -25 -14 -25 -8 2 150 24 142 37 173 82 201
40 25 84 19 115 -17z m1943 -6 c55 -43 102 -112 128 -191 20 -59 82 -402 96
-533 7 -57 6 -61 -14 -67 -12 -3 -21 -13 -21 -24 0 -25 28 -63 46 -63 11 0 14
-16 14 -74 0 -78 -16 -139 -50 -187 -20 -26 -27 -29 -80 -29 -55 0 -63 -3
-109 -42 -36 -31 -50 -50 -50 -70 -1 -43 -67 -173 -97 -193 -17 -11 -23 -20
-15 -24 16 -11 -103 -125 -123 -118 -20 8 -20 21 -1 37 23 19 18 43 -15 75
l-30 29 -23 -23 -24 -22 -81 96 -80 95 -49 -39 c-95 -75 -94 -66 -8 -165 53
-61 74 -92 71 -104 -9 -26 46 -76 72 -68 31 10 37 -13 6 -24 -20 -8 -31 -7
-43 4 -9 8 -29 18 -46 22 -19 4 -60 37 -109 87 -145 149 -166 208 -99 286 56
66 209 180 298 222 49 23 71 39 58 39 -30 0 -29 9 5 47 43 46 87 65 172 73 61
5 70 8 47 14 -15 5 -50 5 -77 2 l-50 -7 6 29 c4 19 -2 47 -15 78 -13 29 -26
88 -32 148 -5 54 -19 136 -29 180 -54 224 -59 317 -21 399 31 70 42 80 74 68
23 -9 39 -6 85 13 31 13 72 27 89 31 18 3 35 11 38 16 11 18 44 9 86 -23z
m234 -129 c14 -41 18 -77 16 -173 -1 -67 3 -136 8 -155 12 -38 57 -91 78 -91
7 0 13 -2 13 -5 0 -3 16 -94 35 -202 39 -220 42 -285 19 -377 -14 -56 -20 -65
-51 -80 -20 -9 -38 -15 -40 -12 -3 3 0 35 7 71 7 36 10 68 8 71 -3 2 -13 -23
-23 -56 -17 -55 -35 -87 -35 -62 0 6 -18 5 -42 -3 -40 -11 -43 -15 -43 -46 0
-24 -5 -35 -17 -37 -32 -6 -20 36 27 102 63 89 85 141 85 206 0 129 -87 682
-125 789 -8 24 -15 49 -15 56 0 11 53 52 71 54 3 1 13 -22 24 -50z m-1015 -50
c0 -31 -12 -49 -31 -49 -10 0 -19 -4 -19 -10 0 -5 8 -10 18 -10 16 0 17 -7 6
-102 -12 -112 -24 -151 -57 -186 -24 -26 -84 -61 -73 -43 15 23 -10 9 -46 -26
-46 -45 -88 -49 -138 -13 l-35 25 39 6 c22 4 44 13 50 21 6 8 23 18 38 21 15
4 38 21 50 37 12 17 30 30 39 30 21 0 59 46 59 71 0 12 7 19 20 19 11 0 27 12
37 26 16 25 16 28 -7 71 -27 51 -28 104 -4 141 15 23 16 23 35 6 10 -9 19 -25
19 -35z m-151 -25 c78 -72 106 -116 91 -144 -19 -36 -50 -24 -115 45 -33 36
-66 65 -73 65 -8 0 18 -35 57 -77 39 -43 71 -84 71 -92 0 -21 -30 -51 -51 -51
-9 0 -45 29 -80 65 -46 48 -69 65 -88 65 -26 -1 -26 -1 5 -18 36 -19 124 -114
124 -133 0 -17 -30 -49 -47 -49 -8 0 -39 27 -70 60 -35 39 -63 60 -77 59 -21
0 -21 0 -1 -12 34 -21 105 -101 105 -119 0 -21 -46 -35 -69 -21 -24 14 -111
132 -111 149 0 8 11 25 24 37 14 13 28 36 32 51 3 15 14 30 23 33 29 11 51 36
51 59 0 25 26 44 58 44 10 0 27 9 37 20 10 11 24 20 31 20 7 0 40 -25 73 -56z
m-882 -145 c35 -13 43 -25 43 -70 0 -40 -39 -107 -91 -156 -53 -49 -183 -135
-187 -123 -6 18 47 192 79 258 26 53 38 67 73 83 49 22 47 22 83 8z m-573 -19
c40 -19 207 -161 215 -182 6 -17 -286 -5 -330 14 -53 23 -82 65 -75 108 12 75
101 104 190 60z m1634 -525 c23 -119 41 -220 38 -222 -10 -10 -139 61 -198
108 -99 79 -157 158 -194 261 -15 43 -13 45 21 22 49 -32 170 -16 236 30 19
13 38 23 44 22 5 -2 29 -101 53 -221z m-4553 -245 c41 -187 141 -483 211 -622
19 -37 34 -80 34 -95 0 -25 -3 -23 -29 23 -17 28 -37 80 -46 115 -9 35 -31 87
-50 114 -40 59 -50 84 -59 148 -4 26 -14 63 -22 82 -8 19 -14 47 -14 62 0 15
-16 73 -35 128 -25 71 -35 117 -35 160 0 33 -5 78 -11 100 -11 38 -12 39 -21
16 -5 -14 -6 -31 -3 -39 3 -8 -15 -85 -40 -171 -55 -193 -79 -342 -65 -407 7
-32 7 -65 -1 -112 -9 -51 -9 -84 0 -142 10 -61 9 -87 -3 -142 -16 -74 -8 -170
18 -243 8 -22 15 -65 16 -96 0 -30 4 -80 10 -110 5 -30 14 -94 20 -144 8 -77
14 -96 45 -140 21 -32 35 -63 35 -82 0 -38 94 -341 125 -403 13 -25 59 -100
104 -168 52 -78 74 -119 60 -112 -53 29 -217 326 -293 531 -222 602 -238 1323
-44 2029 l32 115 23 -160 c12 -88 29 -194 38 -235z m3050 370 c47 -23 216
-191 199 -197 -16 -5 -258 44 -298 61 -37 16 -68 70 -59 104 13 50 89 65 158
32z m563 -16 c18 -26 10 -85 -19 -125 -31 -44 -239 -175 -239 -151 0 12 69
180 96 234 13 26 32 52 41 58 27 16 104 5 121 -16z m-2485 3 c38 -16 99 -81
125 -134 16 -32 33 -79 67 -190 6 -18 -83 17 -145 57 -94 60 -150 141 -150
218 0 61 34 77 103 49z m3288 -277 c32 -20 87 -50 123 -65 57 -24 67 -32 81
-68 22 -55 5 -64 -54 -30 -134 77 -251 183 -300 274 l-24 44 58 -59 c32 -32
84 -75 116 -96z m-2814 86 c38 -69 46 -148 27 -283 -9 -65 -20 -121 -23 -126
-4 -4 -27 39 -51 95 -38 90 -44 114 -48 193 -5 110 13 169 50 163 14 -2 31
-18 45 -42z m1631 -191 c48 -26 140 -110 131 -119 -2 -3 -40 -9 -83 -15 l-78
-9 -99 64 c-54 35 -99 69 -99 74 0 5 12 16 28 25 41 24 137 14 200 -20z m436
-17 c9 -12 16 -31 16 -41 0 -31 -39 -91 -75 -116 -34 -23 -154 -65 -163 -57
-8 9 77 173 107 204 37 40 91 45 115 10z m-2404 -9 c51 -11 180 -68 180 -79 0
-11 -126 -41 -200 -47 -74 -6 -139 8 -164 36 -33 36 -3 74 69 92 43 10 64 10
115 -2z m596 -37 c18 -12 32 -44 39 -92 7 -46 -26 -306 -43 -336 -6 -11 -18
19 -41 102 -53 186 -42 334 24 334 6 0 15 -4 21 -8z m3943 -146 c21 -14 54
-44 75 -67 55 -65 136 -185 136 -203 0 -21 -77 -71 -109 -71 -19 0 -25 -5 -23
-17 2 -13 -13 -26 -52 -45 -50 -24 -57 -25 -68 -11 -7 9 -25 18 -39 20 -23 4
-29 -1 -47 -37 -18 -37 -28 -44 -100 -73 -45 -18 -87 -32 -95 -32 -9 0 -23 29
-37 78 -14 45 -25 69 -27 57 -2 -11 5 -49 16 -83 10 -34 16 -64 12 -66 -39
-25 -391 -85 -391 -68 0 4 16 23 36 43 l37 38 -38 7 c-41 7 -43 6 -101 -68
-19 -24 -28 -26 -129 -33 -96 -7 -107 -6 -102 8 3 9 11 34 17 57 9 33 14 39
24 31 27 -22 66 13 66 58 0 13 -11 24 -35 32 -19 7 -35 16 -35 20 0 22 13 36
29 32 10 -2 34 2 54 11 27 11 45 12 69 5 18 -5 53 -9 77 -9 l44 0 -7 59 -7 59
52 42 c38 32 53 40 59 30 6 -10 18 -10 59 0 46 11 50 14 45 35 -5 20 -1 23 32
30 34 6 41 4 62 -22 30 -36 52 -85 52 -118 0 -15 4 -24 10 -20 26 16 0 95 -51
151 -19 20 -19 20 71 49 64 21 93 26 101 18 8 -8 25 -6 59 5 l49 16 51 -32
c28 -18 54 -32 56 -32 14 0 -31 47 -67 72 -27 18 -37 29 -28 33 29 10 94 34
97 34 1 1 20 -10 41 -23z m-912 -125 l27 -33 -44 -39 c-25 -21 -48 -39 -51
-39 -7 0 -149 161 -149 169 1 3 22 23 48 43 l47 37 48 -52 c26 -29 60 -67 74
-86z m3197 47 c-15 -49 -130 -298 -179 -388 -324 -592 -835 -1161 -1407 -1564
l-67 -47 -47 43 c-37 34 -119 132 -185 223 -5 6 43 4 124 -6 73 -9 166 -19
207 -22 l75 -6 -55 14 c-63 16 -278 45 -333 45 -32 0 -41 6 -71 47 -20 27 -36
64 -39 88 -4 22 -9 48 -12 57 -5 12 34 43 155 127 89 61 166 111 172 111 5 0
113 -25 241 -55 127 -31 240 -54 252 -53 24 4 -138 49 -334 93 l-145 32 75 55
c41 30 134 98 208 152 l134 98 174 -47 c95 -25 185 -45 199 -43 15 2 -53 24
-160 53 -102 28 -186 53 -186 56 0 3 21 21 46 39 96 69 909 722 944 758 21 22
-55 -33 -115 -83 -121 -101 -628 -496 -631 -492 -2 2 14 78 36 168 49 200 49
199 44 199 -9 0 -27 -58 -70 -224 -23 -93 -49 -175 -56 -181 -19 -18 -377
-285 -381 -285 -2 0 29 115 70 256 40 141 72 262 70 268 -5 13 -90 -249 -138
-423 l-34 -125 -150 -111 c-82 -61 -177 -130 -211 -153 l-61 -41 58 232 c48
194 83 380 64 342 -3 -5 -36 -138 -75 -294 -39 -156 -74 -289 -78 -297 -4 -7
-34 -32 -67 -55 l-59 -41 -19 23 c-11 13 -27 33 -36 44 -9 11 -49 49 -89 84
-40 35 -93 88 -118 118 l-46 53 83 91 c89 97 107 109 244 159 50 18 92 34 94
36 2 2 -4 22 -14 45 -12 26 -15 43 -9 47 6 4 48 35 95 68 382 278 871 502
1391 639 110 29 385 90 421 94 5 1 5 -9 1 -21z m-7599 -433 c40 -212 113 -544
148 -677 13 -49 21 -88 17 -88 -16 0 -28 29 -50 115 -13 50 -36 114 -52 144
-26 49 -28 63 -28 161 0 95 -3 111 -21 135 -15 19 -24 48 -29 98 -4 45 -15 86
-28 108 -19 30 -21 49 -20 140 2 69 -2 114 -11 134 l-13 30 -24 -69 c-13 -39
-24 -82 -24 -96 0 -14 -16 -50 -35 -80 -36 -55 -39 -70 -36 -150 2 -27 -6 -67
-18 -98 -13 -33 -21 -77 -21 -115 -1 -34 -5 -82 -9 -106 -7 -32 -5 -59 6 -95
12 -40 13 -61 4 -105 -6 -30 -11 -77 -12 -105 -1 -48 -1 -49 -11 -21 -18 52
-14 455 6 570 33 196 87 377 158 537 l32 71 18 -124 c9 -68 33 -209 53 -314z
m1038 421 c26 -8 68 -27 94 -42 l48 -28 -33 -13 c-17 -7 -76 -24 -129 -38
-113 -30 -178 -26 -218 11 -28 26 -34 74 -11 93 38 32 171 41 249 17z m3026
-53 c23 -32 41 -64 41 -71 0 -7 4 -11 9 -8 4 3 16 -3 25 -13 17 -18 15 -22
-43 -82 l-61 -62 -21 27 -22 28 37 30 c50 41 46 57 -5 17 l-42 -33 -38 45
c-57 67 -72 95 -57 109 19 17 111 68 125 69 6 1 30 -25 52 -56z m-825 -32 c25
-27 23 -75 -5 -116 -13 -19 -27 -35 -30 -35 -12 0 -109 109 -109 123 0 19 57
46 96 47 18 0 38 -8 48 -19z m-1579 -51 c45 -87 39 -206 -17 -332 l-31 -69
-24 58 c-65 159 -72 318 -16 361 31 23 71 15 88 -18z m2320 -116 c54 -69 111
-134 127 -145 29 -21 36 -43 16 -55 -6 -4 -19 4 -30 19 -26 35 -150 128 -231
172 -63 35 -67 39 -52 54 8 10 15 23 15 31 0 7 -9 1 -20 -12 -14 -19 -33 -27
-69 -32 -33 -4 -49 -11 -46 -19 3 -7 -4 -23 -15 -37 l-20 -25 0 33 c0 42 24
100 46 109 27 10 126 31 155 32 21 1 42 -20 124 -125z m-3381 -184 c0 -303
-26 -486 -78 -547 -32 -37 -39 -27 -22 33 7 27 21 92 31 145 15 78 16 102 6
132 -9 28 -10 45 -1 74 14 44 23 333 10 333 -13 0 -38 -44 -50 -88 -6 -25 -21
-49 -35 -58 -13 -9 -34 -36 -46 -60 -11 -25 -36 -63 -55 -85 -19 -23 -37 -53
-40 -68 -3 -14 -16 -55 -29 -91 -13 -36 -26 -81 -30 -101 -3 -20 -17 -46 -31
-60 -14 -13 -37 -46 -51 -72 -13 -27 -26 -47 -29 -45 -8 9 44 172 91 283 76
181 168 338 279 476 56 70 62 75 70 55 5 -11 10 -127 10 -256z m3504 159 c-18
-51 2 -54 70 -9 75 50 96 44 49 -13 -53 -67 -54 -76 -1 -24 46 43 74 58 74 39
0 -4 -23 -36 -51 -70 -54 -67 -79 -76 -89 -32 -5 18 -12 24 -28 23 -14 -2 -22
3 -22 12 0 8 -5 15 -12 15 -6 0 -20 7 -30 17 -18 16 -17 17 14 44 18 16 34 28
35 29 1 0 -3 -14 -9 -31z m-2842 -14 c34 -8 88 -26 120 -40 59 -26 59 -27 34
-40 -14 -7 -65 -27 -115 -45 -76 -26 -101 -31 -159 -28 -78 4 -106 26 -106 83
0 73 93 102 226 70z m-2594 -327 c184 -352 477 -732 723 -936 28 -23 47 -42
43 -42 -4 0 -36 24 -70 53 -101 84 -139 112 -204 151 -66 38 -84 59 -104 121
-9 29 -46 74 -130 160 -101 104 -118 126 -129 169 -16 63 -40 111 -111 216
-71 106 -76 114 -85 170 -8 49 -30 100 -44 100 -27 0 -28 -92 -1 -185 13 -46
20 -97 19 -150 -1 -44 4 -93 11 -110 7 -16 16 -73 20 -125 5 -76 13 -110 38
-167 18 -39 32 -88 32 -110 0 -41 37 -129 74 -178 28 -36 141 -259 128 -251
-19 11 -111 154 -160 246 -94 177 -157 385 -187 613 -15 120 -20 407 -8 505
l6 53 36 -88 c20 -48 67 -145 103 -215z m5121 271 c89 -45 186 -111 232 -159
l40 -41 -38 -36 c-33 -30 -44 -34 -70 -29 -18 4 -46 9 -64 12 -17 4 -39 15
-49 25 -9 10 -28 19 -41 19 -37 0 -60 16 -68 47 -3 16 -18 40 -32 55 -21 22
-25 33 -19 59 6 32 31 79 42 79 2 0 33 -14 67 -31z m1543 -26 c-8 -16 -44 -57
-81 -93 -78 -76 -135 -154 -195 -265 -24 -44 -73 -123 -110 -175 -37 -52 -87
-133 -110 -179 -39 -79 -120 -180 -162 -202 -15 -8 -17 -7 -9 13 32 82 48 108
86 144 43 42 155 247 142 260 -3 3 -15 -14 -27 -38 -47 -91 -123 -209 -145
-224 -15 -10 -38 -50 -61 -105 -20 -49 -44 -94 -53 -99 -14 -9 -14 -9 0 -10
10 0 40 15 68 34 l51 34 -21 -40 c-14 -27 -25 -38 -35 -34 -8 3 -12 1 -9 -4 3
-5 1 -20 -6 -32 -9 -17 -3 -15 25 11 l36 35 0 -146 c0 -88 6 -177 15 -225 19
-97 20 -146 3 -141 -18 6 -44 133 -52 256 -4 59 -12 114 -17 122 -9 15 -4
-188 7 -237 2 -13 0 -23 -6 -23 -13 0 -1 -50 15 -67 7 -7 16 -34 19 -60 4 -26
9 -56 12 -65 3 -10 -2 -18 -13 -20 -25 -5 -48 48 -66 152 -15 84 -42 168 -52
158 -3 -3 -1 -18 5 -34 6 -16 17 -55 25 -86 10 -45 10 -56 0 -52 -8 4 -14 -12
-18 -52 -4 -43 -12 -63 -33 -85 -27 -28 -52 -40 -39 -19 12 19 -15 304 -36
380 -11 41 -29 120 -39 175 l-20 100 4 -80 c2 -44 15 -123 29 -175 29 -113 43
-204 27 -177 -25 40 -32 17 -25 -90 4 -60 9 -115 10 -125 5 -25 -16 -47 -51
-54 -36 -7 -44 8 -44 91 0 36 -3 46 -10 35 -5 -8 -10 -25 -10 -38 0 -32 -36
-99 -60 -112 -31 -16 -40 16 -41 142 0 62 -4 122 -9 133 -7 16 -9 11 -9 -21
-1 -23 -8 -61 -16 -84 -8 -23 -15 -57 -15 -74 -1 -28 -2 -29 -12 -11 -9 14
-13 129 -15 404 l-2 384 29 73 c16 40 47 131 69 201 46 149 52 166 93 256 30
66 32 67 69 67 22 0 39 -3 39 -6 0 -3 -11 -24 -25 -47 -28 -48 -78 -177 -71
-184 2 -2 7 6 11 19 8 25 35 79 82 168 l30 55 71 3 c40 2 72 0 72 -3 0 -3 -9
-24 -20 -45 -28 -54 -19 -50 17 8 29 47 32 49 94 59 35 6 65 9 67 8 2 -2 -27
-48 -63 -103 -37 -55 -66 -105 -64 -111 2 -5 40 43 84 107 86 125 87 126 208
156 l28 7 -39 -53 c-43 -58 -72 -110 -72 -130 0 -7 22 21 49 62 71 109 98 135
165 160 l59 21 -19 -28 c-17 -26 -149 -243 -197 -323 l-21 -35 22 19 c12 10
64 89 117 175 52 86 103 167 113 180 18 22 130 79 160 80 10 1 9 -5 -2 -26z
m-3416 -103 c24 -51 24 -51 6 -103 -10 -29 -37 -92 -60 -142 l-43 -90 -18 98
c-29 159 -12 276 44 295 33 12 42 4 71 -58z m3375 -71 c-8 -52 -39 -173 -69
-269 -30 -96 -58 -193 -63 -214 -4 -22 -14 -41 -20 -44 -23 -7 -14 75 23 220
20 77 33 142 30 145 -8 9 -22 -32 -56 -174 -23 -93 -30 -140 -26 -172 5 -39 3
-48 -21 -73 -39 -41 -23 -43 28 -4 24 19 45 33 47 31 2 -2 -6 -25 -17 -50 -12
-26 -21 -50 -21 -53 0 -14 40 34 51 61 7 18 14 34 15 36 7 8 73 -51 215 -191
144 -140 159 -158 179 -215 10 -27 10 -27 -22 8 -18 19 -46 46 -62 60 l-30 24
22 -31 c11 -17 28 -37 36 -44 20 -16 52 -68 61 -100 7 -23 6 -24 -9 -11 -15
12 -21 13 -38 2 -19 -12 -29 -5 -121 91 -109 114 -109 108 1 -23 74 -89 83
-103 57 -92 -13 4 -12 -3 5 -46 11 -29 20 -54 20 -56 0 -17 -30 6 -106 80 -95
91 -129 108 -48 22 27 -28 61 -65 74 -81 l25 -29 -35 18 c-19 10 -46 26 -60
35 -14 10 -29 19 -35 20 -5 1 -30 14 -56 29 -31 20 -63 55 -106 118 -34 49
-82 112 -107 140 -39 43 -43 52 -29 57 15 6 13 11 -12 36 -25 23 -32 26 -41
14 -9 -12 -18 -7 -48 26 -35 39 -36 42 -36 124 l0 84 50 74 c28 40 59 84 69
98 l19 24 -8 -44 c-13 -78 -22 -175 -14 -167 4 4 15 61 25 127 16 110 21 127
69 212 35 64 49 83 45 61 -10 -50 2 -39 19 17 11 37 33 70 78 119 35 38 64 68
65 67 2 -1 -4 -45 -12 -97z m-4175 -60 c0 -132 -65 -387 -143 -564 -80 -180
-77 -177 -95 -119 -9 30 -8 41 9 67 10 18 19 45 19 61 0 16 11 49 25 73 31 51
75 182 75 221 0 15 9 47 20 71 23 51 37 121 23 121 -23 0 -101 -60 -127 -98
-19 -27 -46 -50 -80 -66 -28 -14 -60 -34 -71 -46 -11 -12 -41 -33 -67 -46 -25
-13 -54 -34 -65 -47 -10 -13 -43 -39 -74 -59 -31 -20 -75 -58 -98 -86 -66 -77
-77 -70 -18 11 99 137 272 302 429 409 70 47 219 136 231 137 4 1 7 -18 7 -40z
m898 -116 c-38 -16 -66 -79 -74 -171 l-7 -72 -43 62 c-24 34 -44 67 -44 74 0
6 16 44 35 83 19 39 45 96 56 127 l21 56 43 -73 43 -74 -30 -12z m-476 92 c37
-7 79 -20 93 -28 l27 -14 -73 -32 c-145 -65 -245 -75 -290 -30 -41 41 -3 92
81 108 65 13 87 12 162 -4z m-1579 -401 c14 -65 26 -126 28 -134 3 -10 -3 -15
-16 -15 -18 0 -21 9 -26 80 -4 44 -12 93 -18 108 -6 16 -11 49 -12 75 0 26 -4
56 -8 67 -7 17 -10 14 -21 -20 -7 -22 -23 -65 -35 -95 -13 -30 -26 -89 -30
-130 -4 -41 -14 -95 -21 -120 -21 -70 -8 -304 22 -399 13 -40 24 -87 24 -103
0 -39 43 -165 81 -239 34 -65 34 -88 0 -40 -74 104 -148 372 -166 606 -15 187
52 501 143 669 l17 31 7 -111 c4 -61 18 -165 31 -230z m2113 279 c9 -10 25
-35 35 -57 16 -36 16 -43 3 -75 -19 -46 -32 -60 -68 -75 -17 -8 -42 -24 -55
-37 l-24 -23 6 95 c6 101 23 160 54 178 25 14 29 14 49 -6z m-237 -195 l44
-13 -107 -43 c-59 -23 -112 -42 -118 -42 -6 0 -8 13 -4 35 4 20 3 35 -2 35 -5
0 -40 -11 -76 -25 -79 -30 -96 -31 -96 -7 0 25 29 50 77 68 46 18 216 13 282
-8z m91 -63 c28 -46 21 -85 -16 -85 -15 0 -38 -12 -56 -30 -27 -27 -30 -35
-26 -84 l3 -54 -53 -4 c-66 -6 -86 -24 -88 -83 -1 -36 -7 -50 -28 -66 -14 -11
-26 -30 -26 -42 0 -15 -10 -27 -31 -36 -18 -8 -34 -22 -36 -32 -3 -11 -10 -19
-17 -20 -6 0 -32 -4 -57 -8 l-46 -7 40 85 c22 47 63 154 92 236 42 118 57 153
76 162 28 15 231 100 241 102 3 1 16 -15 28 -34z m216 13 c11 -13 26 -36 32
-52 l13 -29 23 22 c12 11 27 21 33 21 12 0 152 -199 152 -215 0 -5 -9 -13 -20
-17 -13 -5 -19 -3 -19 7 0 7 -5 17 -11 21 -8 5 -10 -1 -7 -19 5 -23 -1 -28
-65 -56 -38 -17 -73 -31 -77 -31 -5 0 -32 32 -60 71 -64 88 -78 85 -15 -4 25
-36 45 -69 45 -73 0 -21 -563 -205 -578 -189 -2 2 11 13 29 24 19 12 36 31 39
43 3 13 20 32 36 43 28 18 30 24 26 62 -3 25 0 49 7 57 18 21 68 27 111 12 45
-15 46 -13 25 37 -8 20 -15 48 -15 61 0 35 39 76 80 85 29 6 35 12 41 39 17
84 128 134 175 80z m-560 -165 c-53 -154 -135 -355 -159 -386 -7 -9 -25 -19
-41 -23 -25 -6 -28 -5 -23 12 13 42 59 152 86 204 16 30 32 71 36 90 4 19 20
50 35 70 26 32 65 110 55 110 -18 0 -165 -76 -191 -100 -19 -16 -39 -30 -43
-30 -5 0 -29 -16 -53 -36 -23 -20 -62 -45 -84 -55 -23 -9 -61 -38 -85 -63 -24
-24 -66 -54 -94 -66 -27 -12 -60 -30 -71 -41 l-21 -20 -5 26 c-5 23 5 35 76
96 91 79 247 187 350 244 63 35 262 124 278 125 4 0 -17 -71 -46 -157z m3283
35 c-5 -82 -2 -86 104 -191 56 -56 130 -143 164 -193 34 -50 80 -106 103 -125
80 -67 160 -142 156 -147 -3 -2 -33 21 -67 52 -34 31 -66 56 -71 56 -5 0 -5
-12 -2 -26 l7 -27 -49 32 -49 33 35 -32 c19 -18 64 -60 98 -94 l64 -61 -32 -3
c-44 -5 -110 37 -166 106 -25 31 -59 64 -74 72 -15 8 -38 21 -51 29 l-24 14
19 -22 c16 -17 17 -24 7 -34 -10 -9 -17 -7 -32 13 -11 14 -44 52 -72 85 l-52
59 58 -33 c72 -41 86 -35 20 10 -70 47 -210 167 -217 186 -13 32 6 108 35 143
24 30 29 32 29 14 0 -25 48 -101 85 -134 l28 -25 -13 25 c-7 14 -26 41 -41 60
-15 19 -32 51 -38 71 -10 32 -9 43 11 83 12 25 24 46 26 46 2 0 3 -19 1 -42z
m-2261 -360 l73 -86 49 -161 c28 -88 50 -164 50 -167 0 -8 -56 2 -153 28 -69
18 -81 25 -115 65 -36 45 -36 46 -43 162 -5 105 -9 124 -44 204 -21 48 -36 89
-34 91 2 2 18 11 34 19 30 17 30 17 70 -26 22 -24 73 -82 113 -129z m-196 24
c36 -84 39 -98 36 -168 l-3 -76 -93 131 c-51 72 -95 137 -98 144 -4 12 92 68
110 63 4 -1 26 -43 48 -94z m-33 -182 c71 -102 127 -186 126 -188 -1 -1 -24 7
-51 19 -96 42 -188 69 -267 79 -76 9 -83 12 -151 67 -93 75 -96 77 -101 71 -3
-2 27 -30 66 -62 38 -32 68 -60 66 -63 -3 -2 -53 -10 -112 -18 -107 -14 -107
-14 -156 10 -26 14 -59 25 -71 24 -16 0 -6 -9 35 -28 l59 -27 -99 -17 c-172
-30 -203 -32 -203 -13 0 30 30 75 60 91 33 17 34 19 20 44 -8 17 -3 20 53 30
111 21 322 89 449 144 110 48 124 52 136 38 7 -9 71 -99 141 -201z m-2104 143
c-20 -53 -28 -113 -17 -135 l11 -23 0 24 c2 47 33 141 48 141 11 0 11 -4 2
-22 -11 -20 -8 -144 6 -238 7 -46 -6 -65 -38 -56 -55 14 -84 201 -45 289 17
36 47 55 33 20z m4717 -190 c38 -52 69 -95 67 -97 -60 -41 -202 -158 -256
-210 -59 -55 -73 -64 -73 -48 0 12 12 38 26 59 25 36 26 43 21 130 -5 100 -2
106 93 245 30 44 28 46 122 -79z m-1994 -191 l54 -42 -50 0 c-27 0 -83 3 -124
6 l-75 7 -38 131 c-21 72 -41 138 -43 146 -3 8 46 -35 109 -96 63 -60 138
-129 167 -152z m-1426 226 c2 -6 -11 -25 -30 -43 -24 -21 -37 -44 -41 -71 l-6
-39 -92 -3 -92 -3 37 65 c20 35 41 61 46 58 5 -3 6 0 3 5 -12 19 17 32 78 36
33 2 68 4 77 5 9 1 18 -3 20 -10z m-2592 -144 c76 -35 107 -63 134 -119 16
-34 56 -84 113 -140 141 -140 -12 -17 -185 149 -64 62 -162 173 -129 147 10
-8 40 -24 67 -37z m6100 -13 c0 -18 86 -104 117 -117 18 -8 53 -14 77 -14 43
0 52 -6 178 -111 73 -62 137 -115 141 -119 4 -4 -54 -34 -130 -68 -182 -80
-273 -116 -279 -110 -3 3 4 29 16 57 11 28 23 77 27 108 l6 57 -129 -89 c-71
-48 -138 -95 -148 -104 -18 -15 -19 -15 -12 9 3 14 9 52 12 85 10 110 5 104
71 89 69 -16 76 -17 68 -5 -3 5 -30 15 -60 22 -31 7 -59 17 -65 24 -5 6 -10
42 -12 80 l-3 70 -65 -67 c-60 -61 -68 -66 -98 -61 -18 3 -31 10 -30 15 4 12
299 257 311 258 4 0 7 -4 7 -9z m-4808 -166 c53 -55 128 -167 128 -192 0 -27
-21 -11 -44 35 -33 61 -139 157 -155 138 -33 -40 -62 -177 -66 -311 -2 -110
-5 -128 -15 -90 -14 54 -11 228 5 288 16 62 74 187 86 187 4 0 32 -25 61 -55z
m-562 6 c142 -24 364 -118 378 -159 7 -22 -40 -13 -76 15 -26 19 -49 27 -85
29 -37 2 -60 10 -95 35 -35 25 -55 33 -85 32 -21 -1 -57 5 -79 14 -30 12 -54
14 -101 8 -34 -4 -77 -7 -94 -7 -38 1 -43 -16 -12 -44 25 -23 60 -90 83 -161
13 -40 30 -63 69 -97 75 -65 73 -62 146 -161 54 -72 73 -91 101 -98 19 -5 51
-23 70 -41 51 -47 92 -74 158 -101 75 -32 44 -31 -57 0 -141 45 -304 171 -421
327 -56 75 -220 382 -220 414 0 21 187 18 320 -5z m7144 -34 c30 -44 37 -117
27 -257 -5 -74 -7 -137 -5 -139 2 -3 21 12 42 32 21 20 43 37 49 37 26 0 31
-74 7 -108 -21 -31 -15 -35 37 -23 63 15 103 13 148 -5 59 -23 62 -47 11 -99
-29 -29 -38 -44 -28 -48 10 -4 9 -9 -5 -23 -16 -18 -41 -19 -349 -22 -362 -3
-378 -1 -378 53 0 32 39 49 94 39 35 -6 38 -4 32 12 -35 90 11 165 83 137 l29
-10 -1 101 c0 79 5 115 22 165 50 144 143 223 185 158z m-4086 -93 l58 -6 43
-142 c23 -77 44 -148 47 -157 5 -14 -8 -16 -116 -15 -108 1 -123 3 -136 20
-15 21 -17 90 -6 186 l7 55 58 -97 c32 -54 62 -98 67 -98 10 0 -39 90 -94 173
-44 66 -48 102 -11 93 13 -3 51 -9 83 -12z m490 3 c6 -7 14 -50 18 -95 l7 -82
-89 6 -88 7 32 -41 c18 -23 54 -59 79 -81 l45 -40 -22 -36 c-17 -27 -28 -35
-50 -35 -42 0 -44 -15 -8 -45 l33 -27 -70 7 c-47 4 -73 11 -78 21 -17 30 -71
85 -96 98 -16 9 -32 31 -43 60 l-17 46 70 105 c38 58 69 109 69 114 0 6 78 19
181 29 9 1 21 -4 27 -11z m-256 -64 c-21 -32 -52 -78 -67 -103 l-28 -45 -31
95 -31 95 95 6 c52 3 96 6 98 7 1 1 -15 -24 -36 -55z m428 -43 c39 -23 45 -31
42 -56 -2 -16 -7 -32 -10 -36 -10 -10 -134 12 -149 26 -6 6 -15 42 -19 80 l-7
69 49 -28 c27 -16 69 -41 94 -55z m-4065 -63 c66 -7 129 -18 140 -25 11 -6 16
-12 10 -12 -315 -9 -338 -9 -369 7 -41 21 -194 29 -281 14 -51 -9 -79 -9 -120
0 -47 10 -61 9 -126 -11 -40 -12 -98 -24 -129 -27 -30 -2 -61 -7 -69 -9 -27
-9 5 -25 66 -34 43 -6 76 -19 114 -44 41 -27 67 -36 110 -40 35 -3 77 -15 115
-35 64 -33 165 -58 284 -71 46 -4 113 -22 175 -45 77 -30 120 -39 195 -45 52
-4 109 -13 125 -19 17 -7 63 -19 104 -28 40 -8 87 -21 105 -29 31 -13 30 -13
-19 -8 -164 18 -546 93 -770 150 -312 81 -492 140 -642 210 l-98 47 50 13 c93
26 215 45 332 54 147 11 538 3 698 -13z m2576 -197 c42 -45 61 -49 149 -25 30
8 56 15 57 15 8 0 -96 -89 -114 -99 -23 -12 -101 -15 -128 -5 -13 5 -10 10 15
25 17 11 28 23 25 28 -6 11 -83 28 -200 45 l-80 12 100 21 c136 28 135 29 176
-17z m-173 -42 c72 -12 132 -25 132 -28 0 -11 -206 -77 -351 -113 -117 -29
-138 -32 -154 -20 -28 20 -7 33 61 40 32 3 76 14 96 25 21 10 59 21 85 25 27
3 54 9 61 13 17 9 -56 36 -120 46 -51 7 -63 20 -25 27 48 9 87 7 215 -15z"/>
<path d="M6754 5829 c-101 -61 -102 -62 -108 -107 -11 -81 -8 -110 13 -117 15
-4 22 -22 30 -73 28 -164 28 -165 87 -223 64 -63 63 -63 110 48 l28 65 -23
134 c-13 74 -20 142 -17 150 7 19 -4 184 -13 184 -4 0 -52 -28 -107 -61z m98
-31 c5 -67 -4 -88 -71 -167 -28 -32 -30 -33 -68 -21 -21 7 -42 16 -47 20 -4 5
-5 35 -1 68 l7 61 81 49 c45 28 85 51 89 51 3 1 8 -27 10 -61z m18 -255 l21
-120 -31 -68 -31 -68 -35 34 c-47 44 -59 70 -73 150 -15 91 -16 91 14 77 32
-14 59 8 76 61 12 36 29 64 35 58 2 -2 13 -58 24 -124z"/>
<path d="M7260 6019 c-156 -62 -106 -299 62 -299 86 0 142 66 136 161 -8 111
-101 176 -198 138z m118 -29 c44 -27 66 -80 59 -144 -6 -67 -47 -106 -112
-106 -24 0 -56 5 -70 12 -62 28 -91 144 -50 200 42 57 115 73 173 38z"/>
<path d="M7303 5972 c-35 -4 -41 -18 -22 -54 10 -19 9 -20 -7 -13 -41 16 -49
12 -49 -30 0 -39 1 -40 33 -37 32 2 33 2 16 -22 -22 -35 -12 -44 46 -44 54 0
65 15 36 47 -13 14 -11 16 17 16 28 0 32 3 34 33 3 38 -14 50 -48 32 -20 -11
-21 -10 -14 6 25 60 17 72 -42 66z"/>
<path d="M7033 3856 c-67 -146 -136 -373 -135 -441 1 -22 11 -81 23 -130 11
-50 27 -128 34 -175 l13 -85 1 68 c1 40 -8 102 -19 149 -42 163 -42 167 -10
293 32 121 53 180 120 338 63 150 43 137 -27 -17z"/>
<path d="M8295 7373 c-91 -18 -100 -22 -89 -32 5 -6 41 -4 84 4 41 7 76 12 78
10 2 -1 -36 -44 -84 -95 -61 -63 -84 -94 -75 -99 7 -4 51 -2 99 5 48 7 108 16
135 19 33 4 47 11 47 22 0 12 -7 14 -32 10 -18 -3 -60 -9 -93 -12 -33 -3 -71
-8 -84 -11 -19 -4 -8 12 52 76 43 45 77 90 77 101 0 23 -15 23 -115 2z"/>
</g>
</svg>
