<?xml version="1.0" encoding="UTF-8" standalone="no"?>
<svg
   xmlns:dc="http://purl.org/dc/elements/1.1/"
   xmlns:cc="http://creativecommons.org/ns#"
   xmlns:rdf="http://www.w3.org/1999/02/22-rdf-syntax-ns#"
   xmlns:svg="http://www.w3.org/2000/svg"
   xmlns="http://www.w3.org/2000/svg"
   xmlns:sodipodi="http://sodipodi.sourceforge.net/DTD/sodipodi-0.dtd"
   xmlns:inkscape="http://www.inkscape.org/namespaces/inkscape"
   viewBox="0 0 1600 900"
   version="1.1"
   id="svg28"
   sodipodi:docname="mountains.svg"
   inkscape:version="0.92.4 5da689c313, 2019-01-14">
  <metadata
     id="metadata34">
    <rdf:RDF>
      <cc:Work
         rdf:about="">
        <dc:format>image/svg+xml</dc:format>
        <dc:type
           rdf:resource="http://purl.org/dc/dcmitype/StillImage" />
      </cc:Work>
    </rdf:RDF>
  </metadata>
  <defs
     id="defs32" />
  <sodipodi:namedview
     pagecolor="#ffffff"
     bordercolor="#666666"
     borderopacity="1"
     objecttolerance="10"
     gridtolerance="10"
     guidetolerance="10"
     inkscape:pageopacity="0"
     inkscape:pageshadow="2"
     inkscape:window-width="1120"
     inkscape:window-height="1023"
     id="namedview30"
     showgrid="false"
     inkscape:zoom="0.20125"
     inkscape:cx="807.45342"
     inkscape:cy="450"
     inkscape:window-x="778"
     inkscape:window-y="20"
     inkscape:window-maximized="0"
     inkscape:current-layer="svg28" />
  <rect
     width="1600"
     height="900"
     id="rect2"
     x="0"
     y="0"
     style="fill:#89acff" />
  <polygon
     fill="#cc81c7"
     points="957 450 539 900 1396 900"
     id="polygon4" />
  <polygon
     fill="#81aa8b"
     points="957 450 872.9 900 1396 900"
     id="polygon6" />
  <polygon
     fill="#e37da6"
     points="-60 900 398 662 816 900"
     id="polygon8" />
  <polygon
     fill="#939a70"
     points="337 900 398 662 816 900"
     id="polygon10" />
  <polygon
     fill="#e78286"
     points="1203 546 1552 900 876 900"
     id="polygon12" />
  <polygon
     fill="#a18864"
     points="1203 546 1552 900 1162 900"
     id="polygon14" />
  <polygon
     fill="#dd8e6f"
     points="641 695 886 900 367 900"
     id="polygon16" />
  <polygon
     fill="#a67667"
     points="587 900 641 695 886 900"
     id="polygon18" />
  <polygon
     fill="#c99c64"
     points="1710 900 1401 632 1096 900"
     id="polygon20" />
  <polygon
     fill="#9f6973"
     points="1710 900 1401 632 1365 900"
     id="polygon22" />
  <polygon
     fill="#b0a868"
     points="1210 900 971 687 725 900"
     id="polygon24" />
  <polygon
     fill="#886280"
     points="943 900 1210 900 971 687"
     id="polygon26" />
</svg>
