<svg width="1235" height="480" viewBox="0 0 1235 480" fill="none" xmlns="http://www.w3.org/2000/svg">
<path d="M636.089 0.676025C637.162 0.756025 638.23 0.857025 639.299 0.951025C638.23 0.857025 637.162 0.756025 636.089 0.676025Z" fill="#FEE9AE"/>
<path d="M624.08 0.0769043C624.845 0.0959043 625.605 0.134904 626.368 0.160904C625.605 0.134904 624.845 0.0959043 624.08 0.0769043Z" fill="#FEE9AE"/>
<path d="M630.11 0.302979C631.066 0.350979 632.017 0.418978 632.97 0.477978C632.017 0.419978 631.067 0.350979 630.11 0.302979Z" fill="#FEE9AE"/>
<path d="M378.146 247.974C378.124 247.307 378.092 246.641 378.076 245.973C378.092 246.642 378.124 247.306 378.146 247.974Z" fill="#FEE9AE"/>
<path d="M379.438 266.279C379.343 265.41 379.247 264.541 379.162 263.67C379.247 264.542 379.344 265.41 379.438 266.279Z" fill="#FEE9AE"/>
<path d="M681.561 8.5249C720.118 19.1079 754.791 39.0789 782.998 65.8059C773.485 64.6589 763.822 63.9999 754 63.9999C742.891 63.9999 731.964 64.7719 721.257 66.2329C721.706 66.8199 722.147 67.4189 722.568 68.0419C731.688 81.5149 730.587 98.1879 720.108 105.282C709.629 112.376 693.74 107.204 684.62 93.7309C680.817 88.1129 678.798 81.9409 678.488 76.1369C660.318 82.1559 643.114 90.2879 627.159 100.241C631.44 105.681 634 112.539 634 120C634 137.673 619.673 152 602 152C592.365 152 583.732 147.736 577.865 140.999C538.234 183.802 514 241.067 514 304C514 372.614 542.84 434.454 589.002 478.194C511.087 468.803 444.659 422.109 408.134 356.486C449.109 430.151 527.727 480 618 480C750.548 480 858 372.548 858 240C858 129.458 783.259 36.3879 681.561 8.5249ZM564.32 186.32C567.359 183.359 572.64 183.359 575.679 186.32C577.117 187.84 577.999 189.918 577.999 192C577.999 194.078 577.116 196.16 575.679 197.68C574.156 199.118 572.077 200 569.999 200C567.921 200 565.835 199.117 564.319 197.68C562.874 196.16 561.999 194.078 561.999 192C562 189.84 562.875 187.84 564.32 186.32ZM559.68 389.679C558.157 391.117 556.078 391.999 554 391.999C551.922 391.999 549.836 391.116 548.32 389.679C546.875 388.159 546 386.077 546 383.999C546 381.917 546.875 379.839 548.32 378.319C551.359 375.358 556.64 375.358 559.679 378.319C561.117 379.839 561.999 381.917 561.999 383.999C562 386.078 561.117 388.16 559.68 389.679ZM562 300C562 275.7 581.699 256 606 256C630.3 256 650 275.699 650 300C650 324.301 630.301 344 606 344C581.699 344 562 324.301 562 300ZM646.277 438.911C626.621 444.174 607.432 436.285 603.416 421.289C599.4 406.293 612.079 389.87 631.735 384.606C651.391 379.343 670.58 387.232 674.596 402.228C678.612 417.224 665.933 433.647 646.277 438.911ZM703.68 293.68C702.157 295.118 700.078 296 698 296C695.922 296 693.836 295.117 692.32 293.68C690.875 292.16 690 290.078 690 288C690 285.918 690.875 283.84 692.32 282.32C695.359 279.359 700.64 279.359 703.679 282.32C705.117 283.84 705.999 285.918 705.999 288C706 290.078 705.117 292.16 703.68 293.68ZM690 216C676.745 216 666 205.255 666 192C666 178.745 676.745 168 690 168C703.255 168 714 178.745 714 192C714 205.255 703.255 216 690 216ZM756.398 146.32C759.195 143.437 764.64 143.359 767.679 146.32C769.117 147.84 769.999 149.918 769.999 152C769.999 154.078 769.116 156.16 767.679 157.68C766.156 159.118 764.077 160 761.999 160C759.835 160 757.835 159.117 756.319 157.68C754.874 156.16 753.999 154.078 753.999 152C754 149.84 754.875 147.84 756.398 146.32ZM761.856 352.573C752.862 361.567 740.101 363.39 733.356 356.644C726.61 349.898 728.433 337.138 737.427 328.144C746.422 319.15 759.182 317.327 765.927 324.072C772.672 330.817 770.85 343.578 761.856 352.573ZM766.289 267.636C753.985 265.608 746.204 250.665 748.908 234.26C751.612 217.855 763.779 206.201 776.082 208.229C788.385 210.257 796.167 225.2 793.463 241.605C790.759 258.01 778.592 269.664 766.289 267.636Z" fill="#FEE9AE"/>
<path d="M378.435 254.289C378.388 253.496 378.334 252.706 378.295 251.911C378.334 252.706 378.389 253.496 378.435 254.289Z" fill="#FEE9AE"/>
<path d="M676.142 7.10693C677.877 7.53893 679.604 7.98993 681.324 8.45993C679.604 7.99093 677.877 7.53893 676.142 7.10693Z" fill="#FEE9AE"/>
<path d="M665.051 4.62402C666.59 4.93002 668.122 5.25502 669.65 5.59102C668.121 5.25502 666.589 4.92902 665.051 4.62402Z" fill="#FEE9AE"/>
<path d="M642.009 1.19189C643.181 1.30889 644.347 1.44589 645.515 1.57889C644.348 1.44589 643.182 1.30889 642.009 1.19189Z" fill="#FEE9AE"/>
<path d="M378.866 260.34C378.795 259.497 378.72 258.656 378.658 257.811C378.72 258.656 378.796 259.498 378.866 260.34Z" fill="#FEE9AE"/>
<path d="M670.635 5.80493C672.268 6.17093 673.894 6.55493 675.514 6.95393C673.894 6.55593 672.269 6.17093 670.635 5.80493Z" fill="#FEE9AE"/>
<path d="M647.87 1.84912C649.135 2.00612 650.393 2.18312 651.652 2.36012C650.393 2.18312 649.135 2.00612 647.87 1.84912Z" fill="#FEE9AE"/>
<path d="M653.664 2.64209C655.019 2.84409 656.367 3.06509 657.714 3.29009C656.367 3.06509 655.019 2.84409 653.664 2.64209Z" fill="#FEE9AE"/>
<path d="M659.394 3.56812C660.84 3.82012 662.279 4.09012 663.716 4.36812C662.279 4.09112 660.84 3.82012 659.394 3.56812Z" fill="#FEE9AE"/>
<path d="M381.982 283.7C381.815 282.793 381.655 281.883 381.498 280.972C381.655 281.883 381.815 282.792 381.982 283.7Z" fill="#FEE9AE"/>
<path d="M380.149 272.147C380.03 271.261 379.913 270.375 379.804 269.487C379.914 270.375 380.031 271.261 380.149 272.147Z" fill="#FEE9AE"/>
<path d="M392.108 321.229C390.553 316.907 389.125 312.525 387.815 308.093C389.125 312.526 390.554 316.907 392.108 321.229Z" fill="#FEE9AE"/>
<path d="M395.864 330.98C395.345 329.715 394.829 328.447 394.331 327.171C394.829 328.448 395.345 329.715 395.864 330.98Z" fill="#FEE9AE"/>
<path d="M398.031 336.094C397.482 334.84 396.938 333.582 396.41 332.317C396.938 333.582 397.482 334.839 398.031 336.094Z" fill="#FEE9AE"/>
<path d="M393.854 325.916C393.348 324.598 392.845 323.278 392.362 321.949C392.845 323.278 393.349 324.597 393.854 325.916Z" fill="#FEE9AE"/>
<path d="M383.1 289.396C382.908 288.477 382.725 287.555 382.543 286.632C382.725 287.555 382.907 288.477 383.1 289.396Z" fill="#FEE9AE"/>
<path d="M385.731 300.627C385.482 299.671 385.249 298.709 385.011 297.748C385.249 298.709 385.482 299.671 385.731 300.627Z" fill="#FEE9AE"/>
<path d="M384.349 295.035C384.13 294.104 383.925 293.168 383.717 292.233C383.925 293.168 384.131 294.104 384.349 295.035Z" fill="#FEE9AE"/>
<path d="M380.998 277.952C380.855 277.054 380.717 276.153 380.584 275.252C380.717 276.154 380.855 277.053 380.998 277.952Z" fill="#FEE9AE"/>
<path d="M387.242 306.163C386.952 305.152 386.682 304.132 386.405 303.116C386.681 304.133 386.952 305.152 387.242 306.163Z" fill="#FEE9AE"/>
<path d="M402.746 346.221C402.11 344.935 401.484 343.642 400.87 342.343C401.483 343.643 402.11 344.935 402.746 346.221Z" fill="#FEE9AE"/>
<path d="M407.933 356.127C407.162 354.736 406.407 353.336 405.664 351.929C406.407 353.336 407.163 354.736 407.933 356.127Z" fill="#FEE9AE"/>
<path d="M405.283 351.207C404.587 349.88 403.905 348.544 403.233 347.203C403.905 348.545 404.588 349.88 405.283 351.207Z" fill="#FEE9AE"/>
<path d="M400.327 341.18C399.739 339.917 399.159 338.65 398.592 337.376C399.158 338.651 399.739 339.917 400.327 341.18Z" fill="#FEE9AE"/>
<path d="M589.002 478.194C542.84 434.454 514 372.614 514 304C514 241.067 538.234 183.803 577.865 141C583.732 147.736 592.365 152 602 152C619.673 152 634 137.673 634 120C634 112.539 631.44 105.681 627.159 100.239C643.113 90.286 660.317 82.154 678.488 76.135C678.798 81.939 680.817 88.112 684.62 93.729C693.74 107.202 709.629 112.374 720.108 105.28C730.587 98.186 731.689 81.514 722.568 68.04C722.146 67.417 721.706 66.818 721.257 66.231C731.964 64.772 742.891 64 754 64C763.822 64 773.485 64.659 782.998 65.806C754.791 39.079 720.118 19.108 681.561 8.525C681.482 8.503 681.403 8.482 681.324 8.461C679.604 7.991 677.877 7.54 676.142 7.108C675.933 7.056 675.724 7.006 675.515 6.955C673.895 6.556 672.269 6.172 670.636 5.806C670.308 5.733 669.978 5.663 669.65 5.591C668.122 5.255 666.59 4.931 665.051 4.624C664.607 4.536 664.161 4.454 663.717 4.368C662.28 4.09 660.841 3.82 659.395 3.568C658.837 3.471 658.275 3.383 657.716 3.29C656.369 3.065 655.02 2.844 653.666 2.642C652.997 2.542 652.324 2.455 651.653 2.36C650.394 2.183 649.136 2.006 647.871 1.849C647.088 1.752 646.301 1.67 645.516 1.58C644.349 1.446 643.183 1.309 642.01 1.193C641.109 1.103 640.203 1.032 639.3 0.952C638.231 0.858 637.163 0.757 636.09 0.677C635.054 0.6 634.011 0.543 632.971 0.479C632.018 0.42 631.067 0.352 630.111 0.304C628.867 0.242 627.617 0.205 626.368 0.162C625.605 0.136 624.845 0.097 624.08 0.078C622.059 0.027 620.033 0 618 0C485.452 0 378 107.452 378 240C378 241.997 378.027 243.988 378.076 245.973C378.092 246.642 378.125 247.307 378.146 247.974C378.189 249.288 378.232 250.602 378.296 251.911C378.335 252.706 378.389 253.496 378.436 254.289C378.505 255.465 378.573 256.64 378.659 257.811C378.721 258.656 378.796 259.497 378.867 260.34C378.96 261.452 379.054 262.563 379.163 263.67C379.248 264.542 379.344 265.41 379.439 266.279C379.556 267.35 379.675 268.42 379.806 269.487C379.915 270.376 380.032 271.262 380.151 272.147C380.29 273.184 380.433 274.219 380.585 275.252C380.718 276.154 380.856 277.054 380.999 277.952C381.159 278.961 381.326 279.967 381.499 280.972C381.656 281.883 381.815 282.793 381.983 283.7C382.163 284.68 382.353 285.657 382.545 286.632C382.727 287.555 382.909 288.477 383.102 289.396C383.3 290.344 383.51 291.289 383.719 292.233C383.927 293.168 384.133 294.104 384.351 295.035C384.564 295.942 384.79 296.845 385.013 297.748C385.25 298.708 385.484 299.671 385.733 300.627C385.95 301.46 386.181 302.286 386.406 303.116C386.683 304.133 386.953 305.152 387.243 306.163C387.428 306.809 387.627 307.449 387.817 308.092C389.127 312.525 390.555 316.906 392.11 321.228C392.196 321.467 392.277 321.709 392.364 321.948C392.847 323.277 393.35 324.597 393.856 325.915C394.016 326.333 394.171 326.754 394.333 327.17C394.831 328.446 395.347 329.714 395.866 330.979C396.049 331.424 396.227 331.872 396.412 332.315C396.94 333.581 397.484 334.838 398.033 336.092C398.22 336.519 398.404 336.948 398.594 337.374C399.161 338.648 399.741 339.916 400.329 341.178C400.51 341.566 400.689 341.954 400.872 342.341C401.486 343.64 402.112 344.933 402.748 346.219C402.91 346.547 403.072 346.874 403.236 347.2C403.908 348.542 404.59 349.877 405.286 351.204C405.412 351.445 405.54 351.685 405.667 351.926C406.411 353.333 407.165 354.734 407.936 356.124C408.003 356.244 408.07 356.363 408.137 356.483C444.659 422.109 511.088 468.803 589.002 478.194ZM687.08 56.49C697.067 49.729 711.901 54.203 721.173 66.292C706.51 68.299 692.278 71.628 678.584 76.159C678.151 68.043 680.97 60.626 687.08 56.49ZM580.32 34.32C583.281 31.359 588.64 31.359 591.679 34.32C593.117 35.84 593.999 37.918 593.999 40C593.999 42.078 593.116 44.16 591.679 45.68C590.156 47.117 588.078 48 586 48C583.922 48 581.836 47.117 580.32 45.68C578.875 44.16 578 42.16 578 40C578 37.84 578.875 35.758 580.32 34.32ZM570.042 118.353C570.871 101.99 583.991 88.871 600.354 88.041C600.899 88.014 601.448 88 602 88C612.219 88 621.213 92.878 627.072 100.335C608.941 111.659 592.432 125.324 577.97 140.928C573.07 135.306 570 128.044 570 120C570 119.448 570.014 118.899 570.042 118.353ZM482.201 100.201C491.605 90.797 505.9 89.844 514.128 98.073C522.357 106.302 521.404 120.596 512 130C502.596 139.404 488.301 140.357 480.073 132.128C471.845 123.899 472.797 109.605 482.201 100.201ZM498 287.9C498 289.978 497.117 292.06 495.68 293.58C494.157 295.018 492.078 295.9 490 295.9C487.922 295.9 485.836 295.017 484.32 293.58C482.875 292.06 482 289.978 482 287.9C482 285.818 482.875 283.74 484.32 282.22C487.281 279.259 492.718 279.259 495.679 282.22C497.117 283.74 498 285.818 498 287.9ZM426 224C426 206.327 438.536 192 454 192C469.464 192 482 206.327 482 224C482 241.673 469.464 256 454 256C438.536 256 426 241.673 426 224ZM455.087 325.087C464.46 315.714 482.188 318.247 494.685 330.744C507.182 343.241 509.715 360.969 500.342 370.342C490.969 379.715 473.241 377.182 460.744 364.685C448.247 352.188 445.714 334.459 455.087 325.087Z" fill="#FFCC6D"/>
<path d="M454 256C469.464 256 482 241.673 482 224C482 206.327 469.464 192 454 192C438.536 192 426 206.327 426 224C426 241.673 438.536 256 454 256Z" fill="#F2B476"/>
<path d="M460.745 364.681C473.241 377.178 490.97 379.71 500.342 370.338C509.715 360.965 507.182 343.237 494.686 330.74C482.189 318.244 464.46 315.711 455.088 325.083C445.715 334.456 448.248 352.184 460.745 364.681Z" fill="#F2B476"/>
<path d="M765.927 324.077C759.181 317.331 746.421 319.154 737.427 328.149C728.432 337.143 726.61 349.903 733.355 356.649C740.101 363.395 752.861 361.572 761.856 352.578C770.85 343.583 772.673 330.823 765.927 324.077Z" fill="#FFCC6D"/>
<path d="M570 200C572.078 200 574.156 199.117 575.68 197.68C577.118 196.16 578 194.078 578 192C578 189.918 577.117 187.84 575.68 186.32C572.641 183.359 567.36 183.359 564.321 186.32C562.876 187.84 562.001 189.84 562.001 192C562.001 194.078 562.876 196.16 564.321 197.68C565.836 199.117 567.922 200 570 200Z" fill="#FFCC6D"/>
<path d="M484.32 282.221C482.875 283.741 482 285.819 482 287.901C482 289.979 482.875 292.061 484.32 293.581C485.836 295.019 487.922 295.901 490 295.901C492.078 295.901 494.156 295.018 495.68 293.581C497.118 292.061 498 289.979 498 287.901C498 285.819 497.117 283.741 495.68 282.221C492.719 279.26 487.281 279.26 484.32 282.221Z" fill="#F2B476"/>
<path d="M692.32 282.32C690.875 283.84 690 285.918 690 288C690 290.078 690.875 292.16 692.32 293.68C693.836 295.118 695.922 296 698 296C700.078 296 702.156 295.117 703.68 293.68C705.118 292.16 706 290.078 706 288C706 285.918 705.117 283.84 703.68 282.32C700.641 279.359 695.359 279.359 692.32 282.32Z" fill="#FFCC6D"/>
<path d="M762 160C764.078 160 766.156 159.117 767.68 157.68C769.118 156.16 770 154.078 770 152C770 149.918 769.117 147.84 767.68 146.32C764.641 143.359 759.196 143.437 756.399 146.32C754.876 147.84 754.001 149.84 754.001 152C754.001 154.078 754.876 156.16 756.321 157.68C757.836 159.117 759.836 160 762 160Z" fill="#FFCC6D"/>
<path d="M586 48.0001C588.078 48.0001 590.156 47.1171 591.68 45.6801C593.118 44.1601 594 42.0781 594 40.0001C594 37.9181 593.117 35.8401 591.68 34.3201C588.641 31.3591 583.282 31.3591 580.321 34.3201C578.875 35.7581 578 37.8401 578 40.0001C578 42.1601 578.875 44.1601 580.32 45.6801C581.836 47.1171 583.922 48.0001 586 48.0001Z" fill="#F2B476"/>
<path d="M548.32 378.32C546.875 379.84 546 381.918 546 384C546 386.078 546.875 388.16 548.32 389.68C549.836 391.118 551.922 392 554 392C556.078 392 558.156 391.117 559.68 389.68C561.118 388.16 562 386.078 562 384C562 381.918 561.117 379.84 559.68 378.32C556.641 375.359 551.359 375.359 548.32 378.32Z" fill="#FFCC6D"/>
<path d="M606 344C630.301 344 650 324.301 650 300C650 275.699 630.301 256 606 256C581.699 256 562 275.699 562 300C562 324.301 581.699 344 606 344Z" fill="#FFCC6D"/>
<path d="M690 216C703.255 216 714 205.255 714 192C714 178.745 703.255 168 690 168C676.745 168 666 178.745 666 192C666 205.255 676.745 216 690 216Z" fill="#FFCC6D"/>
<path d="M674.604 402.205C670.588 387.209 651.397 379.319 631.741 384.584C612.084 389.848 599.405 406.272 603.421 421.268C607.437 436.265 626.628 444.154 646.284 438.89C665.941 433.626 678.62 417.202 674.604 402.205Z" fill="#FFCC6D"/>
<path d="M793.485 241.609C796.19 225.204 788.408 210.261 776.105 208.232C763.801 206.203 751.634 217.857 748.929 234.262C746.224 250.667 754.005 265.61 766.309 267.639C778.613 269.668 790.78 258.014 793.485 241.609Z" fill="#FFCC6D"/>
<path d="M577.97 140.928C592.431 125.324 608.94 111.659 627.072 100.335C621.213 92.878 612.219 88 602 88C601.448 88 600.899 88.014 600.353 88.042C583.99 88.871 570.871 101.991 570.041 118.354C570.014 118.899 570 119.448 570 120C570 128.043 573.07 135.306 577.97 140.928Z" fill="#F2B476"/>
<path d="M480.073 132.126C488.301 140.354 502.596 139.402 512 129.997C521.404 120.593 522.357 106.299 514.128 98.0704C505.899 89.8418 491.605 90.7947 482.201 100.199C472.797 109.603 471.844 123.897 480.073 132.126Z" fill="#F2B476"/>
<path d="M678.584 76.1591C692.278 71.6281 706.51 68.2991 721.173 66.2921C711.901 54.2031 697.067 49.7291 687.08 56.4901C680.97 60.6261 678.151 68.0431 678.584 76.1591Z" fill="#F2B476"/>
<path d="M282.911 296.171H334.836V369.529H282.911V468.703H191.964V369.529H4.09104L0 312.228L191.02 10.2968H282.911V296.171ZM90.6323 296.171H191.964V134.344L185.985 144.733L90.6323 296.171Z" fill="#595959"/>
<path d="M1183.08 296.171H1235V369.529H1183.08V468.703H1092.13V369.529H904.255L900.164 312.228L1091.18 10.2968H1183.08V296.171ZM990.796 296.171H1092.13V134.344L1086.15 144.733L990.796 296.171Z" fill="#595959"/>
</svg>
