<?xml version="1.0" encoding="UTF-8" standalone="no"?>
<svg
   xmlns:dc="http://purl.org/dc/elements/1.1/"
   xmlns:cc="http://creativecommons.org/ns#"
   xmlns:rdf="http://www.w3.org/1999/02/22-rdf-syntax-ns#"
   xmlns:svg="http://www.w3.org/2000/svg"
   xmlns="http://www.w3.org/2000/svg"
   xmlns:sodipodi="http://sodipodi.sourceforge.net/DTD/sodipodi-0.dtd"
   xmlns:inkscape="http://www.inkscape.org/namespaces/inkscape"
   id="svg8"
   version="1.1"
   viewBox="0 0 185.20835 158.75016"
   height="600"
   width="700"
   sodipodi:docname="brainhub.svg"
   inkscape:version="0.92.4 5da689c313, 2019-01-14">
  <sodipodi:namedview
     pagecolor="#ffffff"
     bordercolor="#666666"
     borderopacity="1"
     objecttolerance="10"
     gridtolerance="10"
     guidetolerance="10"
     inkscape:pageopacity="0"
     inkscape:pageshadow="2"
     inkscape:window-width="1120"
     inkscape:window-height="1023"
     id="namedview100"
     showgrid="false"
     inkscape:zoom="0.39333333"
     inkscape:cx="266.10169"
     inkscape:cy="300"
     inkscape:window-x="778"
     inkscape:window-y="20"
     inkscape:window-maximized="0"
     inkscape:current-layer="svg8" />
  <defs
     id="defs2">
    <marker
       style="overflow:visible;"
       id="Arrow2Send"
       refX="0.0"
       refY="0.0"
       orient="auto">
      <path
         transform="scale(0.3) rotate(180) translate(-2.3,0)"
         d="M 8.7185878,4.0337352 L -2.2072895,0.016013256 L 8.7185884,-4.0017078 C 6.9730900,-1.6296469 6.9831476,1.6157441 8.7185878,4.0337352 z "
         style="fill-rule:evenodd;stroke-width:0.625;stroke-linejoin:round;stroke:#fa5477;stroke-opacity:1;fill:#fa5477;fill-opacity:1"
         id="path891" />
    </marker>
  </defs>
  <metadata
     id="metadata5">
    <rdf:RDF>
      <cc:Work
         rdf:about="">
        <dc:format>image/svg+xml</dc:format>
        <dc:type
           rdf:resource="http://purl.org/dc/dcmitype/StillImage" />
        <dc:title />
      </cc:Work>
    </rdf:RDF>
  </metadata>
  <g
     style="display:inline"
     id="layer12"
     transform="translate(0,-19.579179)"
     inkscape:export-xdpi="96"
     inkscape:export-ydpi="96">
    <path
       id="path915-7"
       d="m 177.51474,74.785139 -29.13849,11.246437 -5.112,-58.276979 z"
       style="display:inline;opacity:0.7;fill:#fdcb6e;fill-opacity:1;stroke:none;stroke-width:0.26458332px;stroke-linecap:butt;stroke-linejoin:miter;stroke-opacity:1"
       inkscape:connector-curvature="0" />
    <path
       id="path915-5"
       d="M 123.58298,21.620174 139.43023,82.453158 7.0290237,41.045838 Z"
       style="display:inline;opacity:0.7;fill:#fdcb6e;fill-opacity:1;stroke:none;stroke-width:0.26458332px;stroke-linecap:butt;stroke-linejoin:miter;stroke-opacity:1"
       inkscape:connector-curvature="0" />
    <path
       id="path913-3"
       d="M 31.720488,58.928576 89.490507,118.70916 15.675729,102.3598 Z"
       style="display:inline;opacity:0.7;fill:#55efc4;fill-opacity:1;stroke:none;stroke-width:0.26458332px;stroke-linecap:butt;stroke-linejoin:miter;stroke-opacity:1"
       inkscape:connector-curvature="0" />
    <path
       id="path911"
       d="M 184.36836,69.026058 60.663453,110.99731 23.270613,45.489811 Z"
       style="opacity:0.6;fill:#f6416c;fill-opacity:1;stroke:none;stroke-width:0.26458332px;stroke-linecap:butt;stroke-linejoin:miter;stroke-opacity:1"
       inkscape:connector-curvature="0" />
    <path
       id="path913-6"
       d="M 156.86351,99.44514 51.802884,59.734918 102.0688,128.94228 Z"
       style="display:inline;opacity:0.72000002;fill:#55efc4;fill-opacity:1;stroke:none;stroke-width:0.26458332px;stroke-linecap:butt;stroke-linejoin:miter;stroke-opacity:1"
       inkscape:connector-curvature="0" />
    <path
       id="path911-5"
       d="m 88.596538,110.52879 -59.549111,8.48755 10.156431,34.22598 z"
       style="display:inline;opacity:0.7;fill:#f6416c;fill-opacity:1;stroke:none;stroke-width:0.26458332px;stroke-linecap:butt;stroke-linejoin:miter;stroke-opacity:1"
       inkscape:connector-curvature="0" />
  </g>
  <g
     id="g3755"
     style="display:inline"
     transform="translate(0,-19.579179)"
     inkscape:export-xdpi="96"
     inkscape:export-ydpi="96">
    <path
       style="color:#000000;font-style:normal;font-variant:normal;font-weight:normal;font-stretch:normal;font-size:medium;line-height:normal;font-family:sans-serif;font-variant-ligatures:normal;font-variant-position:normal;font-variant-caps:normal;font-variant-numeric:normal;font-variant-alternates:normal;font-feature-settings:normal;text-indent:0;text-align:start;text-decoration:none;text-decoration-line:none;text-decoration-style:solid;text-decoration-color:#000000;letter-spacing:normal;word-spacing:normal;text-transform:none;writing-mode:lr-tb;direction:ltr;text-orientation:mixed;dominant-baseline:auto;baseline-shift:baseline;text-anchor:start;white-space:normal;shape-padding:0;clip-rule:nonzero;display:inline;overflow:visible;visibility:visible;opacity:1;isolation:auto;mix-blend-mode:normal;color-interpolation:sRGB;color-interpolation-filters:linearRGB;solid-color:#000000;solid-opacity:1;vector-effect:none;fill:#474747;fill-opacity:1;fill-rule:nonzero;stroke:none;stroke-width:10;stroke-linecap:butt;stroke-linejoin:miter;stroke-miterlimit:4;stroke-dasharray:none;stroke-dashoffset:0;stroke-opacity:1;color-rendering:auto;image-rendering:auto;shape-rendering:auto;text-rendering:auto;enable-background:accumulate"
       d="m 108.31664,102.57337 c -23.413829,2.94461 -59.309501,12.22047 -69.423109,17.61213 0,0 36.658718,-6.99838 50.372673,-7.38555 -11.949337,12.46054 -33.653304,35.70784 -33.653304,35.70784 0,0 17.213873,7.73494 24.662003,9.75147 -9.41295,-5.59391 -12.702525,-7.55413 -17.63841,-11.42134 0,0 24.581906,-21.91133 45.680147,-44.26455 z"
       id="path3753"
       inkscape:connector-curvature="0" />
  </g>
  <g
     transform="translate(0,-157.829)"
     style="display:inline;opacity:0.98999999"
     id="g1142"
     inkscape:export-xdpi="96"
     inkscape:export-ydpi="96">
    <path
       id="path1008"
       d="m 85.903196,167.52827 c -8.968992,1.50658 -18.021783,3.47005 -26.31745,7.19758 -7.615964,3.42212 -14.752285,8.12119 -20.984437,13.67763 -6.033734,5.37954 -11.34761,11.72074 -15.476825,18.6702 -3.703585,6.23312 -6.716374,13.07583 -8.070078,20.19874 -1.662747,8.74903 -2.631141,18.24654 0.119835,26.71663 1.407814,4.33458 4.448013,8.22386 7.984077,11.09905 2.487596,2.02268 5.649199,3.26033 8.789687,3.90585 4.027829,0.82791 8.298048,0.62483 12.335114,-0.1568 5.119999,-0.9913 9.988637,-3.86313 14.587713,-5.6544 5.761354,-2.15334 18.656203,-6.28193 17.4608,-5.96581 -1.685854,0.44582 -9.519898,1.29517 -18.144646,3.74815 -6.305443,1.79335 -12.155482,4.73652 -18.504829,4.55079 -4.649108,-0.136 -9.660263,-1.26302 -13.331622,-4.11851 -3.047826,-2.37052 -5.099825,-6.13983 -6.038159,-9.88525 -1.717204,-6.85433 -0.380726,-14.28016 1.215891,-21.16357 1.590369,-6.85648 4.412873,-13.5239 8.192669,-19.46138 4.101661,-6.44308 9.5252,-12.07753 15.37135,-16.99277 5.50748,-4.6305 11.69871,-8.55726 18.25732,-11.51677 8.12581,-3.6667 16.8712,-6.05869 25.665474,-7.51961 9.63806,-1.60109 19.55281,-2.19191 29.28179,-1.29589 3.54649,0.32662 7.07744,0.93736 10.55376,1.72599 4.07273,0.92392 8.12159,2.03063 12.02656,3.51115 3.40228,1.28993 6.81162,2.68964 9.87268,4.65669 l 3.58814,-4.47098 c -3.53467,-2.51615 -7.59162,-4.2405 -11.59214,-5.92001 -3.44113,-1.44467 -7.00555,-2.61428 -10.61801,-3.55163 -4.20099,-1.09006 -8.48932,-1.87517 -12.79823,-2.39458 -4.91934,-0.59299 -9.88753,-0.84367 -14.84241,-0.81662 -6.208051,0.0339 -12.461653,0.19773 -18.584024,1.22614 z"
       style="color:#000000;font-style:normal;font-variant:normal;font-weight:normal;font-stretch:normal;font-size:medium;line-height:normal;font-family:sans-serif;font-variant-ligatures:normal;font-variant-position:normal;font-variant-caps:normal;font-variant-numeric:normal;font-variant-alternates:normal;font-feature-settings:normal;text-indent:0;text-align:start;text-decoration:none;text-decoration-line:none;text-decoration-style:solid;text-decoration-color:#000000;letter-spacing:normal;word-spacing:normal;text-transform:none;writing-mode:lr-tb;direction:ltr;text-orientation:mixed;dominant-baseline:auto;baseline-shift:baseline;text-anchor:start;white-space:normal;shape-padding:0;clip-rule:nonzero;display:inline;overflow:visible;visibility:visible;opacity:1;isolation:auto;mix-blend-mode:normal;color-interpolation:sRGB;color-interpolation-filters:linearRGB;solid-color:#000000;solid-opacity:1;vector-effect:none;fill:#474747;fill-opacity:1;fill-rule:nonzero;stroke:#474747;stroke-width:0.89999998;stroke-linecap:butt;stroke-linejoin:miter;stroke-miterlimit:4;stroke-dasharray:none;stroke-dashoffset:0;stroke-opacity:1;color-rendering:auto;image-rendering:auto;shape-rendering:auto;text-rendering:auto;enable-background:accumulate"
       inkscape:connector-curvature="0" />
    <rect
       style="opacity:1;fill:#474747;fill-opacity:1;stroke:none;stroke-width:0.2;stroke-linecap:round;stroke-miterlimit:4;stroke-dasharray:none;stroke-dashoffset:0;stroke-opacity:1"
       id="rect1010"
       width="3"
       height="3"
       x="154.33801"
       y="178.98502" />
    <rect
       style="display:inline;opacity:1;fill:#474747;fill-opacity:1;stroke:none;stroke-width:0.2;stroke-linecap:round;stroke-miterlimit:4;stroke-dasharray:none;stroke-dashoffset:0;stroke-opacity:1"
       id="rect1012"
       width="3"
       height="3"
       x="151.33801"
       y="181.98502" />
    <rect
       style="display:inline;opacity:1;fill:#474747;fill-opacity:1;stroke:none;stroke-width:0.2;stroke-linecap:round;stroke-miterlimit:4;stroke-dasharray:none;stroke-dashoffset:0;stroke-opacity:1"
       id="rect1014"
       width="3"
       height="3"
       x="154.33801"
       y="181.98502" />
    <rect
       style="display:inline;opacity:1;fill:#474747;fill-opacity:1;stroke:none;stroke-width:0.2;stroke-linecap:round;stroke-miterlimit:4;stroke-dasharray:none;stroke-dashoffset:0;stroke-opacity:1"
       id="rect1016"
       width="3"
       height="3"
       x="157.33801"
       y="181.98502" />
    <rect
       style="display:inline;opacity:1;fill:#474747;fill-opacity:1;stroke:none;stroke-width:0.2;stroke-linecap:round;stroke-miterlimit:4;stroke-dasharray:none;stroke-dashoffset:0;stroke-opacity:1"
       id="rect1018"
       width="3"
       height="3"
       x="154.33801"
       y="184.98502" />
    <rect
       style="display:inline;opacity:1;fill:#474747;fill-opacity:1;stroke:none;stroke-width:0.2;stroke-linecap:round;stroke-miterlimit:4;stroke-dasharray:none;stroke-dashoffset:0;stroke-opacity:1"
       id="rect1020"
       width="3"
       height="3"
       x="157.33801"
       y="184.98502" />
    <rect
       style="display:inline;opacity:0.8;fill:#474747;fill-opacity:1;stroke:none;stroke-width:0.2;stroke-linecap:round;stroke-miterlimit:4;stroke-dasharray:none;stroke-dashoffset:0;stroke-opacity:1"
       id="rect1022"
       width="3"
       height="3"
       x="157.33801"
       y="187.98502" />
    <rect
       style="display:inline;opacity:1;fill:#474747;fill-opacity:1;stroke:none;stroke-width:0.2;stroke-linecap:round;stroke-miterlimit:4;stroke-dasharray:none;stroke-dashoffset:0;stroke-opacity:1"
       id="rect1024"
       width="3"
       height="3"
       x="160.33801"
       y="184.98502" />
    <rect
       style="display:inline;opacity:1;fill:#474747;fill-opacity:1;stroke:none;stroke-width:0.2;stroke-linecap:round;stroke-miterlimit:4;stroke-dasharray:none;stroke-dashoffset:0;stroke-opacity:1"
       id="rect1026"
       width="3"
       height="3"
       x="160.33801"
       y="190.98502" />
    <rect
       style="display:inline;opacity:0.81800022;fill:#474747;fill-opacity:1;stroke:none;stroke-width:0.2;stroke-linecap:round;stroke-miterlimit:4;stroke-dasharray:none;stroke-dashoffset:0;stroke-opacity:1"
       id="rect1028"
       width="3"
       height="3"
       x="163.33801"
       y="187.98502" />
    <rect
       style="display:inline;opacity:1;fill:#474747;fill-opacity:1;stroke:none;stroke-width:0.2;stroke-linecap:round;stroke-miterlimit:4;stroke-dasharray:none;stroke-dashoffset:0;stroke-opacity:1"
       id="rect1030"
       width="3"
       height="3"
       x="163.33801"
       y="190.98502" />
    <rect
       style="display:inline;opacity:1;fill:#474747;fill-opacity:1;stroke:none;stroke-width:0.2;stroke-linecap:round;stroke-miterlimit:4;stroke-dasharray:none;stroke-dashoffset:0;stroke-opacity:1"
       id="rect1032"
       width="3"
       height="3"
       x="163.33801"
       y="193.98502" />
    <rect
       style="display:inline;opacity:0.7;fill:#474747;fill-opacity:1;stroke:none;stroke-width:0.2;stroke-linecap:round;stroke-miterlimit:4;stroke-dasharray:none;stroke-dashoffset:0;stroke-opacity:1"
       id="rect1034"
       width="3"
       height="3"
       x="166.33801"
       y="193.98502" />
    <rect
       style="display:inline;opacity:1;fill:#474747;fill-opacity:1;stroke:none;stroke-width:0.2;stroke-linecap:round;stroke-miterlimit:4;stroke-dasharray:none;stroke-dashoffset:0;stroke-opacity:1"
       id="rect1036"
       width="3"
       height="3"
       x="163.33801"
       y="196.98502" />
    <rect
       style="display:inline;opacity:0.9;fill:#474747;fill-opacity:1;stroke:none;stroke-width:0.2;stroke-linecap:round;stroke-miterlimit:4;stroke-dasharray:none;stroke-dashoffset:0;stroke-opacity:1"
       id="rect1038"
       width="3"
       height="3"
       x="166.33801"
       y="196.98502" />
    <rect
       style="display:inline;opacity:0.9;fill:#474747;fill-opacity:1;stroke:none;stroke-width:0.2;stroke-linecap:round;stroke-miterlimit:4;stroke-dasharray:none;stroke-dashoffset:0;stroke-opacity:1"
       id="rect1040"
       width="3"
       height="3"
       x="166.33801"
       y="199.98502" />
    <rect
       style="display:inline;opacity:0.47300002;fill:#474747;fill-opacity:1;stroke:none;stroke-width:0.2;stroke-linecap:round;stroke-miterlimit:4;stroke-dasharray:none;stroke-dashoffset:0;stroke-opacity:1"
       id="rect1042"
       width="3"
       height="3"
       x="163.33801"
       y="184.98502" />
    <rect
       style="display:inline;opacity:0.49200056;fill:#474747;fill-opacity:1;stroke:none;stroke-width:0.2;stroke-linecap:round;stroke-miterlimit:4;stroke-dasharray:none;stroke-dashoffset:0;stroke-opacity:1"
       id="rect1044"
       width="3"
       height="3"
       x="160.33801"
       y="181.98502" />
    <rect
       style="display:inline;opacity:0.5270004;fill:#474747;fill-opacity:1;stroke:none;stroke-width:0.2;stroke-linecap:round;stroke-miterlimit:4;stroke-dasharray:none;stroke-dashoffset:0;stroke-opacity:1"
       id="rect1046"
       width="3"
       height="3"
       x="157.33801"
       y="178.98502" />
    <rect
       style="display:inline;opacity:0.3;fill:#474747;fill-opacity:1;stroke:none;stroke-width:0.2;stroke-linecap:round;stroke-miterlimit:4;stroke-dasharray:none;stroke-dashoffset:0;stroke-opacity:1"
       id="rect1048"
       width="3"
       height="3"
       x="151.33801"
       y="184.98502" />
    <rect
       style="display:inline;opacity:0.25;fill:#474747;fill-opacity:1;stroke:none;stroke-width:0.2;stroke-linecap:round;stroke-miterlimit:4;stroke-dasharray:none;stroke-dashoffset:0;stroke-opacity:1"
       id="rect1050"
       width="3"
       height="3"
       x="157.33801"
       y="190.98502" />
    <rect
       style="display:inline;opacity:0.8;fill:#474747;fill-opacity:1;stroke:none;stroke-width:0.2;stroke-linecap:round;stroke-miterlimit:4;stroke-dasharray:none;stroke-dashoffset:0;stroke-opacity:1"
       id="rect1052"
       width="3"
       height="3"
       x="160.33801"
       y="193.98502" />
    <rect
       style="display:inline;opacity:0.3;fill:#474747;fill-opacity:1;stroke:none;stroke-width:0.2;stroke-linecap:round;stroke-miterlimit:4;stroke-dasharray:none;stroke-dashoffset:0;stroke-opacity:1"
       id="rect1054"
       width="3"
       height="3"
       x="160.33801"
       y="196.98502" />
    <rect
       style="display:inline;opacity:0.9;fill:#474747;fill-opacity:1;stroke:none;stroke-width:0.2;stroke-linecap:round;stroke-miterlimit:4;stroke-dasharray:none;stroke-dashoffset:0;stroke-opacity:1"
       id="rect1056"
       width="3"
       height="3"
       x="166.33801"
       y="202.98502" />
    <rect
       style="display:inline;opacity:1;fill:#474747;fill-opacity:1;stroke:none;stroke-width:0.2;stroke-linecap:round;stroke-miterlimit:4;stroke-dasharray:none;stroke-dashoffset:0;stroke-opacity:1"
       id="rect1058"
       width="3"
       height="3"
       x="163.33801"
       y="202.98502" />
    <rect
       style="display:inline;opacity:1;fill:#474747;fill-opacity:1;stroke:none;stroke-width:0.2;stroke-linecap:round;stroke-miterlimit:4;stroke-dasharray:none;stroke-dashoffset:0;stroke-opacity:1"
       id="rect1060"
       width="3"
       height="3"
       x="163.33801"
       y="205.98502" />
    <rect
       style="display:inline;opacity:0.9;fill:#474747;fill-opacity:1;stroke:none;stroke-width:0.2;stroke-linecap:round;stroke-miterlimit:4;stroke-dasharray:none;stroke-dashoffset:0;stroke-opacity:1"
       id="rect1062"
       width="3"
       height="3"
       x="166.33801"
       y="205.98502" />
    <rect
       style="display:inline;opacity:0.6;fill:#474747;fill-opacity:1;stroke:none;stroke-width:0.2;stroke-linecap:round;stroke-miterlimit:4;stroke-dasharray:none;stroke-dashoffset:0;stroke-opacity:1"
       id="rect1064"
       width="3"
       height="3"
       x="166.33801"
       y="208.98502" />
    <rect
       style="display:inline;opacity:1;fill:#474747;fill-opacity:1;stroke:none;stroke-width:0.2;stroke-linecap:round;stroke-miterlimit:4;stroke-dasharray:none;stroke-dashoffset:0;stroke-opacity:1"
       id="rect1066"
       width="3"
       height="3"
       x="163.33801"
       y="211.98502" />
    <rect
       style="display:inline;opacity:0.9;fill:#474747;fill-opacity:1;stroke:none;stroke-width:0.2;stroke-linecap:round;stroke-miterlimit:4;stroke-dasharray:none;stroke-dashoffset:0;stroke-opacity:1"
       id="rect1068"
       width="3"
       height="3"
       x="160.33801"
       y="211.98502" />
    <rect
       style="display:inline;opacity:1;fill:#474747;fill-opacity:1;stroke:none;stroke-width:0.2;stroke-linecap:round;stroke-miterlimit:4;stroke-dasharray:none;stroke-dashoffset:0;stroke-opacity:1"
       id="rect1070"
       width="3"
       height="3"
       x="160.33801"
       y="214.98502" />
    <rect
       style="display:inline;opacity:1;fill:#474747;fill-opacity:1;stroke:none;stroke-width:0.2;stroke-linecap:round;stroke-miterlimit:4;stroke-dasharray:none;stroke-dashoffset:0;stroke-opacity:1"
       id="rect1072"
       width="3"
       height="3"
       x="157.33801"
       y="217.98502" />
    <rect
       style="display:inline;opacity:1;fill:#474747;fill-opacity:1;stroke:none;stroke-width:0.2;stroke-linecap:round;stroke-miterlimit:4;stroke-dasharray:none;stroke-dashoffset:0;stroke-opacity:1"
       id="rect1074"
       width="3"
       height="3"
       x="154.33801"
       y="220.98502" />
    <rect
       style="display:inline;opacity:0.75;fill:#474747;fill-opacity:1;stroke:none;stroke-width:0.2;stroke-linecap:round;stroke-miterlimit:4;stroke-dasharray:none;stroke-dashoffset:0;stroke-opacity:1"
       id="rect1076"
       width="3"
       height="3"
       x="151.33801"
       y="223.98502" />
    <rect
       style="display:inline;opacity:0.35;fill:#474747;fill-opacity:1;stroke:none;stroke-width:0.2;stroke-linecap:round;stroke-miterlimit:4;stroke-dasharray:none;stroke-dashoffset:0;stroke-opacity:1"
       id="rect1078"
       width="3"
       height="3"
       x="157.33801"
       y="220.98502" />
    <rect
       style="display:inline;opacity:0.5;fill:#474747;fill-opacity:1;stroke:none;stroke-width:0.2;stroke-linecap:round;stroke-miterlimit:4;stroke-dasharray:none;stroke-dashoffset:0;stroke-opacity:1"
       id="rect1080"
       width="3"
       height="3"
       x="160.33801"
       y="217.98502" />
    <rect
       style="display:inline;opacity:0.28999999;fill:#474747;fill-opacity:1;stroke:none;stroke-width:0.2;stroke-linecap:round;stroke-miterlimit:4;stroke-dasharray:none;stroke-dashoffset:0;stroke-opacity:1"
       id="rect1082"
       width="3"
       height="3"
       x="163.33801"
       y="214.98502" />
    <rect
       style="display:inline;opacity:0.2;fill:#474747;fill-opacity:1;stroke:none;stroke-width:0.2;stroke-linecap:round;stroke-miterlimit:4;stroke-dasharray:none;stroke-dashoffset:0;stroke-opacity:1"
       id="rect1084"
       width="3"
       height="3"
       x="166.33801"
       y="211.98502" />
    <rect
       style="display:inline;opacity:0.4;fill:#474747;fill-opacity:1;stroke:none;stroke-width:0.2;stroke-linecap:round;stroke-miterlimit:4;stroke-dasharray:none;stroke-dashoffset:0;stroke-opacity:1"
       id="rect1086"
       width="3"
       height="3"
       x="160.33801"
       y="208.98502" />
    <rect
       style="display:inline;opacity:0.5;fill:#474747;fill-opacity:1;stroke:none;stroke-width:0.2;stroke-linecap:round;stroke-miterlimit:4;stroke-dasharray:none;stroke-dashoffset:0;stroke-opacity:1"
       id="rect1088"
       width="3"
       height="3"
       x="157.33801"
       y="214.98502" />
    <rect
       style="display:inline;opacity:0.45;fill:#474747;fill-opacity:1;stroke:none;stroke-width:0.2;stroke-linecap:round;stroke-miterlimit:4;stroke-dasharray:none;stroke-dashoffset:0;stroke-opacity:1"
       id="rect1090"
       width="3"
       height="3"
       x="154.33801"
       y="217.98502" />
    <rect
       style="display:inline;opacity:0.67000002;fill:#f3f3f3;fill-opacity:1;stroke:none;stroke-width:0.2;stroke-linecap:round;stroke-miterlimit:4;stroke-dasharray:none;stroke-dashoffset:0;stroke-opacity:1"
       id="rect1092"
       width="3"
       height="3"
       x="151.33801"
       y="220.98502" />
    <rect
       style="display:inline;opacity:0.25;fill:#474747;fill-opacity:1;stroke:none;stroke-width:0.2;stroke-linecap:round;stroke-miterlimit:4;stroke-dasharray:none;stroke-dashoffset:0;stroke-opacity:1"
       id="rect1094"
       width="3"
       height="3"
       x="154.33801"
       y="223.98502" />
    <rect
       style="display:inline;opacity:0.8;fill:#474747;fill-opacity:1;stroke:none;stroke-width:0.2;stroke-linecap:round;stroke-miterlimit:4;stroke-dasharray:none;stroke-dashoffset:0;stroke-opacity:1"
       id="rect1096"
       width="3"
       height="3"
       x="148.33801"
       y="223.98502" />
    <rect
       style="display:inline;opacity:1;fill:#f3f3f3;fill-opacity:1;stroke:none;stroke-width:0.2;stroke-linecap:round;stroke-miterlimit:4;stroke-dasharray:none;stroke-dashoffset:0;stroke-opacity:1"
       id="rect1098"
       width="3"
       height="3"
       x="151.33801"
       y="178.98502" />
    <rect
       style="display:inline;opacity:1;fill:#474747;fill-opacity:1;stroke:none;stroke-width:0.2;stroke-linecap:round;stroke-miterlimit:4;stroke-dasharray:none;stroke-dashoffset:0;stroke-opacity:1"
       id="rect1100"
       width="3"
       height="3"
       x="148.33801"
       y="181.98502" />
    <rect
       style="display:inline;opacity:0.26100003;fill:#474747;fill-opacity:1;stroke:none;stroke-width:0.2;stroke-linecap:round;stroke-miterlimit:4;stroke-dasharray:none;stroke-dashoffset:0;stroke-opacity:1"
       id="rect1102"
       width="3"
       height="3"
       x="166.33801"
       y="190.98502" />
    <rect
       style="display:inline;opacity:0.4;fill:#474747;fill-opacity:1;stroke:none;stroke-width:0.2;stroke-linecap:round;stroke-miterlimit:4;stroke-dasharray:none;stroke-dashoffset:0;stroke-opacity:1"
       id="rect1104"
       width="3"
       height="3"
       x="169.33801"
       y="199.98502" />
    <rect
       style="display:inline;opacity:0.4;fill:#474747;fill-opacity:1;stroke:none;stroke-width:0.2;stroke-linecap:round;stroke-miterlimit:4;stroke-dasharray:none;stroke-dashoffset:0;stroke-opacity:1"
       id="rect1106"
       width="3"
       height="3"
       x="169.33801"
       y="202.98502" />
    <rect
       style="display:inline;opacity:0.25;fill:#474747;fill-opacity:1;stroke:none;stroke-width:0.2;stroke-linecap:round;stroke-miterlimit:4;stroke-dasharray:none;stroke-dashoffset:0;stroke-opacity:1"
       id="rect1108"
       width="3"
       height="3"
       x="169.33801"
       y="205.98502" />
    <rect
       style="display:inline;opacity:1;fill:#f3f3f3;fill-opacity:1;stroke:none;stroke-width:0.2;stroke-linecap:round;stroke-miterlimit:4;stroke-dasharray:none;stroke-dashoffset:0;stroke-opacity:1"
       id="rect1110"
       width="3"
       height="3"
       x="144.58772"
       y="175.48799" />
    <rect
       style="display:inline;opacity:1;fill:#474747;fill-opacity:1;stroke:none;stroke-width:0.2;stroke-linecap:round;stroke-miterlimit:4;stroke-dasharray:none;stroke-dashoffset:0;stroke-opacity:1"
       id="rect1112"
       width="3"
       height="3"
       x="169.33801"
       y="220.98502" />
    <rect
       style="display:inline;opacity:1;fill:#474747;fill-opacity:1;stroke:none;stroke-width:0.2;stroke-linecap:round;stroke-miterlimit:4;stroke-dasharray:none;stroke-dashoffset:0;stroke-opacity:1"
       id="rect1114"
       width="3"
       height="3"
       x="166.33801"
       y="223.98502" />
    <rect
       style="display:inline;opacity:0.47999998;fill:#474747;fill-opacity:1;stroke:none;stroke-width:0.2;stroke-linecap:round;stroke-miterlimit:4;stroke-dasharray:none;stroke-dashoffset:0;stroke-opacity:1"
       id="rect1116"
       width="3"
       height="3"
       x="169.33801"
       y="226.98502" />
    <rect
       style="display:inline;opacity:1;fill:#474747;fill-opacity:1;stroke:none;stroke-width:0.2;stroke-linecap:round;stroke-miterlimit:4;stroke-dasharray:none;stroke-dashoffset:0;stroke-opacity:1"
       id="rect1118"
       width="3"
       height="3"
       x="154.33801"
       y="208.98502" />
    <rect
       style="display:inline;opacity:1;fill:#474747;fill-opacity:1;stroke:none;stroke-width:0.2;stroke-linecap:round;stroke-miterlimit:4;stroke-dasharray:none;stroke-dashoffset:0;stroke-opacity:1"
       id="rect1120"
       width="3"
       height="3"
       x="145.33801"
       y="226.98502" />
    <rect
       style="display:inline;opacity:0.32000002;fill:#474747;fill-opacity:1;stroke:none;stroke-width:0.2;stroke-linecap:round;stroke-miterlimit:4;stroke-dasharray:none;stroke-dashoffset:0;stroke-opacity:1"
       id="rect1122"
       width="3"
       height="3"
       x="142.33801"
       y="229.98502" />
    <rect
       style="display:inline;opacity:1;fill:#f3f3f3;fill-opacity:1;stroke:none;stroke-width:0.2;stroke-linecap:round;stroke-miterlimit:4;stroke-dasharray:none;stroke-dashoffset:0;stroke-opacity:1"
       id="rect1124"
       width="3"
       height="3"
       x="141.58772"
       y="178.48799" />
    <rect
       style="display:inline;opacity:0.15;fill:#474747;fill-opacity:1;stroke:none;stroke-width:0.2;stroke-linecap:round;stroke-miterlimit:4;stroke-dasharray:none;stroke-dashoffset:0;stroke-opacity:1"
       id="rect1126"
       width="3"
       height="3"
       x="163.33801"
       y="199.98502" />
    <rect
       style="display:inline;opacity:0.25;fill:#474747;fill-opacity:1;stroke:none;stroke-width:0.2;stroke-linecap:round;stroke-miterlimit:4;stroke-dasharray:none;stroke-dashoffset:0;stroke-opacity:1"
       id="rect1128"
       width="3"
       height="3"
       x="154.33801"
       y="175.98502" />
    <rect
       style="display:inline;opacity:1;fill:#474747;fill-opacity:1;stroke:none;stroke-width:0.2;stroke-linecap:round;stroke-miterlimit:4;stroke-dasharray:none;stroke-dashoffset:0;stroke-opacity:1"
       id="rect1130"
       width="3"
       height="3"
       x="151.33801"
       y="175.98502" />
    <rect
       style="display:inline;opacity:0.8;fill:#474747;fill-opacity:1;stroke:none;stroke-width:0.2;stroke-linecap:round;stroke-miterlimit:4;stroke-dasharray:none;stroke-dashoffset:0;stroke-opacity:1"
       id="rect1132"
       width="3"
       height="3"
       x="148.33801"
       y="190.98502" />
    <rect
       style="display:inline;opacity:0.3;fill:#474747;fill-opacity:1;stroke:none;stroke-width:0.2;stroke-linecap:round;stroke-miterlimit:4;stroke-dasharray:none;stroke-dashoffset:0;stroke-opacity:1"
       id="rect1134"
       width="3"
       height="3"
       x="151.33801"
       y="193.98502" />
    <rect
       style="display:inline;opacity:0.25;fill:#474747;fill-opacity:1;stroke:none;stroke-width:0.2;stroke-linecap:round;stroke-miterlimit:4;stroke-dasharray:none;stroke-dashoffset:0;stroke-opacity:1"
       id="rect1136"
       width="3"
       height="3"
       x="144.58772"
       y="169.48799" />
    <rect
       style="display:inline;opacity:1;fill:#474747;fill-opacity:1;stroke:none;stroke-width:0.2;stroke-linecap:round;stroke-miterlimit:4;stroke-dasharray:none;stroke-dashoffset:0;stroke-opacity:1"
       id="rect1138"
       width="3"
       height="3"
       x="141.58772"
       y="172.48799" />
    <rect
       style="display:inline;opacity:0.15;fill:#474747;fill-opacity:1;stroke:none;stroke-width:0.2;stroke-linecap:round;stroke-miterlimit:4;stroke-dasharray:none;stroke-dashoffset:0;stroke-opacity:1"
       id="rect1140"
       width="3"
       height="3"
       x="142.33801"
       y="190.98502" />
  </g>
  <g
     style="display:inline"
     id="layer10"
     transform="translate(0,-19.579179)"
     inkscape:export-xdpi="96"
     inkscape:export-ydpi="96">
    <g
       id="flowRoot881"
       style="font-style:normal;font-weight:normal;font-size:200.00001526px;line-height:1.25;font-family:sans-serif;letter-spacing:0px;word-spacing:0px;fill:#474747;fill-opacity:1;stroke:none"
       transform="matrix(0.26458333,0,0,0.26458333,-48.373562,-23.762539)"
       aria-label="Brain">
      <path
         id="path2787"
         style="font-style:normal;font-variant:normal;font-weight:normal;font-stretch:normal;font-size:200.00001526px;font-family:Clementine;-inkscape-font-specification:Clementine;fill:#474747;fill-opacity:1"
         d="m 463.3465,423.74415 c -2.2,-3.2 -5.4,-5.8 -9,-7.8 -9.00001,-4.8 -19.00001,-6 -29.80001,-5.6 -3.2,0 -6.4,0.4 -9.8,0.6 1.6,-0.8 3,-1.6 4.4,-2.2 9.8,-4.4 19.2,-9.8 27.8,-16.6 4.2,-3.2 7.80001,-7 10.40001,-11.4 4,-7 4.2,-13.6 0.2,-19.8 -2.2,-3.4 -5.40001,-6 -9.20001,-7.8 -7.6,-3.6 -16.2,-4.2 -25,-4.2 -3.2,0 -6.4,0.4 -9.6,0.6 -0.2,0 -0.4,-0.2 -0.6,-0.4 1,-3.4 2.4,-6.6 4.2,-9.8 0.4,-0.4 0.6,-1 0.8,-1.40001 0.6,-1.4 0.2,-2.4 -0.6,-3 -1,-0.8 -2.2,-0.8 -3.4,0.2 -1,1.2 -2.2,2.4 -2.8,3.60001 -1.4,2.4 -2.4,4.8 -3.6,7.4 -0.6,1.4 -1.2,2.8 -1.8,4.2 -3.8,0.6 -7.4,1.4 -11,2.2 -12.2,3 -24,6.8 -35.6,12.2 -8.8,3.8 -17.2,8.2 -25.2,13.6 -2.8,1.8 -5.4,4 -8,6.2 -1.2,1 -2,2.6 -2.8,4 -0.6,1.2 -0.2,2.4 0.8,3 0.8,0.6 1.8,0.4 3,-0.6 0.8,-0.6 1.6,-1.4 2.6,-2 4.6,-2.6 9,-5.6 13.6,-8 18.2,-9 37.2,-15.6 56.4,-20.4 0.6,-0.2 1.4,-0.2 2.2,-0.4 -0.2,0.8 -0.2,1.2 -0.4,1.8 -4,10.6 -7.8,21.4 -10.6,32.2 -1.8,6.6 -3.6,13.2 -5.6,19.6 -2,7.8 -4.2,15.4 -6.2,23 -1.8,6 -3.4,12.2 -5,18.4 -1.2,4.6 -2.4,9.4 -3.4,14.20001 -0.6,2.6 -1,5.4 -1.2,8 0,1.2 0.2,2.2 0.4,3.4 0,0.8 0.4,1.4 1.8,1.2 0.4,-0.6 0.8,-1.4 1.2,-2 0.6,-1.2 1,-2.4 1.4,-3.6 1.6,-5 3,-10.00001 4.4,-15.20001 2.6,-9 5.2,-18.2 8,-27.2 1,-4 2.2,-7.8 3.4,-11.8 1.6,-0.2 3,-0.6 4.4,-0.8 8,-1.4 15.8,-3.2 23.6,-3.6 7.8,-0.4 15.6,0 23,1.6 4.4,1 8.8,2.4 12.20001,5.2 4.6,3.6 6.8,8.6 6,15 -0.6,5.6 -3.2,10.8 -6.6,15.6 -4.60001,6.2 -10.20001,11.2 -16.40001,15.80001 -7.4,5.6 -15.2,10.2 -23.4,14 -6.2,3 -12.2,5.8 -18.8,7.4 -6.8,1.6 -13.8,3 -20.8,4.2 -5.2,0.8 -10.2,1.4 -15.2,1.8 -5,0.4 -10,0.4 -14.8,-0.6 -1.2,-0.2 -2.4,-0.6 -4,0.4 0.2,0.6 0.2,1.4 0.6,1.8 0.6,0.6 1.4,1.4 2.2,1.8 2.2,1.4 4.8,1.8 7.6,1.8 5.8,0.4 11.8,0.2 17.8,-0.4 8.4,-1 16.8,-2.4 25.2,-4.2 10.4,-2 20.6,-5 30.4,-10 11.4,-5.8 21.8,-13.2 30.60001,-22.80001 5.4,-6 9.8,-12.6 12.2,-20 2.8,-8.2 2.2,-15.8 -2.6,-22.4 z m -69.80001,-9.4 c -0.2,0.2 -0.6,0.2 -1.2,0.4 3,-11 16.8,-54.4 18.2,-56.8 3.4,-0.4 7,-1 10.8,-1.4 4.4,-0.4 8.8,-0.4 13.2,0 4.6,0.4 9,1.2 13,3 2,1.2 4,2.4 5.40001,4.2 3.2,4.4 3,10.2 -0.80001,15.8 -2.8,4.2 -6.4,7.6 -10.6,10.4 -6.6,4.6 -13.4,8.2 -20.4,12 -9,4.8 -18.4,8.4 -27.6,12.4 z"
         inkscape:connector-curvature="0" />
      <path
         id="path2789"
         style="font-style:normal;font-variant:normal;font-weight:normal;font-stretch:normal;font-size:200.00001526px;font-family:Clementine;-inkscape-font-specification:Clementine;fill:#474747;fill-opacity:1"
         d="m 505.34649,434.14415 c -4,0.2 -7,-0.8 -9.2,-4.4 -1.4,-2.4 -3.6,-2 -5.6,0.4 -0.8,0.8 -1.4,1.8 -2,2.8 -0.2,0 -0.4,0 -0.4,0 0.4,-2 0.8,-4 1,-6 0.2,-1.4 0.6,-2.8 0.4,-4 -0.2,-2.2 -2.2,-3.2 -4.6,-2.6 -1.6,0.6 -2.8,1.6 -3.4,3 -1,2.2 -2,4.4 -2.6,6.6 -1.8,7.2 -2.6,14.4 -3.2,21.6 -0.2,1 -0.2,2 0,3 0.4,2.2 1.8,3.4 3.6,3.4 1.6,0 3.2,-1.2 4.2,-3.2 0.4,-1.2 1,-2.4 1.2,-3.8 1.6,-5.4 4.2,-10.6 6.8,-16 0.4,-0.6 1,-1.4 1.4,-2.2 0.8,0.8 1.2,1.4 1.6,2 1,1.2 2.2,2 3.6,2.2 2,0.4 4,0.4 6,0.6 1,0 2.2,-0.4 3.2,-0.6 1,-0.4 2,-1 2,-2.4 -1.2,-1 -2.6,-0.4 -4,-0.4 z"
         inkscape:connector-curvature="0" />
      <path
         id="path2791"
         style="font-style:normal;font-variant:normal;font-weight:normal;font-stretch:normal;font-size:200.00001526px;font-family:Clementine;-inkscape-font-specification:Clementine;fill:#474747;fill-opacity:1"
         d="m 562.94615,432.34415 c -1.4,-0.8 -2.6,0 -3.6,0.8 -3.6,3 -7.2,6 -11,9 -2.6,1.8 -5.2,3.8 -7.8,5.2 -3.80001,2.2 -5.60001,0.8 -5.20001,-3.2 0.2,-1.8 0.4,-3.4 0.6,-5 0.6,-3.2 -2,-4.6 -4.8,-3.2 -1,0.4 -2.2,1.2 -3.2,1.8 -4.2,2.8 -8.6,5.8 -12.8,8.6 -1.2,0.8 -2.4,1.4 -3.6,2.2 -0.4,-2.4 0.4,-4.4 1.4,-6.4 3.2,-6 7.8,-11 13,-15.4 1,-0.6 1.8,-1.2 2.8,-1.6 3.8,-2 5.4,-1.2 5.6,2.8 0,1 0.2,1.8 1.4,2 1,0.2 1.8,-0.4 2.4,-1.2 0.2,-0.4 0.4,-0.8 0.6,-1.2 1.40001,-3.4 0.4,-7.2 -2.4,-9 -2.2,-1.4 -4.8,-1.8 -7.6,-1.4 -2.6,0.4 -5.2,1.6 -7.8,3 -2.8,1.6 -5.4,3.8 -7.8,6.2 -5.2,5.2 -9,11.4 -10.4,18.4 -0.6,3 -0.4,5.8 1,8.4 1.4,2.6 4.4,3.6 7.6,2.2 1.4,-0.6 2.8,-1.4 4.2,-2.4 2.2,-1.6 4.2,-3.2 6.2,-5 2.6,-2 4.8,-4.2 7.4,-6.4 0.6,-0.6 1.4,-1.4 2.6,-1.6 0,0.6 -0.2,1 -0.2,1.4 -0.4,2.6 -0.6,5 -0.2,7.4 1,3.8 3.6,5.2 7.6,4 3.00001,-0.8 5.60001,-2.2 8.00001,-4 4,-3 8,-6.2 11.8,-9.4 1.2,-1 2.4,-2.2 3.4,-3.4 1,-1.2 1.4,-2.4 0.8,-3.6 z"
         inkscape:connector-curvature="0" />
      <path
         id="path2793"
         style="font-style:normal;font-variant:normal;font-weight:normal;font-stretch:normal;font-size:200.00001526px;font-family:Clementine;-inkscape-font-specification:Clementine;fill:#474747;fill-opacity:1"
         d="m 597.34609,433.14415 c -0.8,0.4 -1.4,0.8 -2.2,1.4 -3.8,3 -7.8,5.8 -11.8,8.8 -4.2,3 -8.2,6.2 -12.8,8.4 -1.6,0.8 -3.2,1.6 -4.8,2 -2,0.6 -3.00001,-0.2 -3.00001,-2 0,-0.8 0,-1.6 0.2,-2.4 0.4,-3.2 1.60001,-6.2 3.00001,-9.2 2,-4.4 4.2,-8.6 6.4,-13 1.2,-2.4 1.2,-4.4 -0.4,-5.6 -1.6,-1 -3.8,-0.6 -5.8,1 -0.4,0.4 -0.8,0.6 -1,1 -0.8,1.2 -1.80001,2.4 -2.40001,3.6 -3,5.6 -5,11.6 -6.2,17.6 -0.4,2.6 -0.4,5.2 0,7.8 1.2,5.6 4.8,7.6 10.60001,5.2 3,-1.2 5.8,-2.8 8.6,-4.6 4,-2.8 8,-5.8 12,-8.8 3,-2.2 5.8,-4.8 8.8,-7.2 1,-1 2,-2 2.4,-4 -0.8,0 -1.2,0 -1.6,0 z m -25.4,-18.6 c 1.2,0.4 2.4,-0.2 3.6,-1.2 1.2,-1.2 1.8,-2.8 2.2,-4.6 -0.2,-1 -0.2,-2 -0.6,-2.8 -0.4,-1.2 -1.4,-1.4 -2.6,-1.2 -3,0.8 -5.2,4 -5,7 0.2,1.4 1,2.4 2.4,2.8 z"
         inkscape:connector-curvature="0" />
      <path
         id="path2795"
         style="font-style:normal;font-variant:normal;font-weight:normal;font-stretch:normal;font-size:200.00001526px;font-family:Clementine;-inkscape-font-specification:Clementine;fill:#474747;fill-opacity:1"
         d="m 657.34573,431.14415 c -1.6,-0.2 -2.8,0.6 -4,1.4 -4.2,3.2 -8.4,6.2 -12.60001,9.4 -3.6,2.6 -7.2,5.4 -11.2,7.4 -3.6,1.6 -5.6,1.8 -5.4,-3.2 0,-2.8 1,-5.6 1.8,-8.2 1.2,-3.6 2.4,-7 3.6,-10.6 0.4,-1.6 0.8,-3.4 0.8,-5 -0.2,-3 -2.4,-4.2 -5.4,-2.6 -1,0.6 -2,1.2 -2.8,2 -3,2.8 -6,5.4 -8.8,8.4 -4.2,4 -8,8.2 -12.2,12.6 0.2,-0.6 0.2,-0.8 0.4,-1.2 1.2,-3.2 2.6,-6.4 3.8,-9.6 0.4,-1 0.8,-2 0.8,-3 0.2,-2.6 -2.2,-4 -4.6,-2.8 -1,0.4 -2,1.2 -2.6,2.2 -1.2,1.6 -2.4,3.4 -3,5.4 -2,5 -4,10 -5.6,15.2 -0.8,2.2 -1.6,4.8 -1.2,7.2 0.2,1.4 0.8,2.4 2.4,2.8 1.4,0.4 2.8,-0.2 4,-1.4 0.8,-0.8 1.6,-1.8 2.2,-2.8 3.4,-4.6 6.8,-9.2 10.2,-13.8 4,-5.6 8.4,-10.8 13.6,-15.2 1.2,-0.8 2.2,-1.6 3.8,-2.8 -0.2,1.2 -0.4,1.8 -0.6,2.4 -1,3.8 -2.2,7.6 -3.4,11.4 -1.2,4.4 -2,8.8 -1.4,13 0.8,4.4 4.2,6 8.6,4.6 1.8,-0.6 3.6,-1.6 5.2,-2.8 7.2,-5.2 14.40001,-10.8 21.60001,-16.2 0.8,-0.6 1.4,-1.4 2,-2.2 0.6,-0.6 0.8,-1.4 0,-2 z"
         inkscape:connector-curvature="0" />
    </g>
    <g
       id="flowRoot2556"
       style="font-style:normal;font-variant:normal;font-weight:500;font-stretch:normal;font-size:40px;line-height:1.25;font-family:Rajdhani;-inkscape-font-specification:'Rajdhani Medium';letter-spacing:0px;word-spacing:0px;fill:#474747;fill-opacity:1;stroke:none"
       transform="matrix(0.26458333,0,0,0.26458333,-9.0368523,-9.7598004)"
       aria-label="HUB">
      <path
         id="path2798"
         style="font-style:normal;font-variant:normal;font-weight:500;font-stretch:normal;font-size:173.33332825px;font-family:Rajdhani;-inkscape-font-specification:'Rajdhani Medium';fill:#474747;fill-opacity:1"
         d="m 418.75203,587.7233 h -7.8 q -2.42667,0 -2.42667,-2.42666 v -106.6 q 0,-2.42667 2.42667,-2.42667 h 7.8 q 2.42667,0 2.42667,2.42667 v 45.58666 q 0,1.56 1.73333,1.56 h 42.98667 q 1.73333,0 1.73333,-1.56 v -45.58666 q 0,-2.42667 2.42667,-2.42667 h 7.8 q 2.42666,0 2.42666,2.42667 v 106.6 q 0,2.42666 -2.42666,2.42666 h -7.8 q -2.42667,0 -2.42667,-2.42666 v -46.8 q 0,-1.56 -1.73333,-1.56 h -42.98667 q -1.73333,0 -1.73333,1.56 v 46.8 q 0,2.42666 -2.42667,2.42666 z"
         inkscape:connector-curvature="0" />
      <path
         id="path2800"
         style="font-style:normal;font-variant:normal;font-weight:500;font-stretch:normal;font-size:173.33332825px;font-family:Rajdhani;-inkscape-font-specification:'Rajdhani Medium';fill:#474747;fill-opacity:1"
         d="m 566.95179,476.26997 h 7.8 q 2.42666,0 2.42666,2.25334 v 83.54666 q 0,12.13333 -6.76,18.89333 -6.76,6.76 -18.72,6.76 h -19.24 q -11.96,0 -18.89333,-6.76 -6.76,-6.76 -6.76,-18.89333 v -83.37333 q 0,-2.42667 2.42667,-2.42667 h 7.8 q 2.42666,0 2.42666,2.42667 v 82.85333 q 0,15.08 14.38667,15.08 h 16.29333 q 14.56,0 14.56,-15.08 v -82.85333 q 0,-2.42667 2.25334,-2.42667 z"
         inkscape:connector-curvature="0" />
      <path
         id="path2802"
         style="font-style:normal;font-variant:normal;font-weight:500;font-stretch:normal;font-size:173.33332825px;font-family:Rajdhani;-inkscape-font-specification:'Rajdhani Medium';fill:#474747;fill-opacity:1"
         d="m 618.08494,576.97664 h 28.42667 q 14.90667,0 14.90667,-14.73334 v -11.26666 q 0,-14.73334 -15.94667,-14.73334 h -27.38667 q -1.73333,0 -1.73333,1.56 v 37.44 q 0,1.73334 1.73333,1.73334 z m 0,-51.30667 h 26.69334 q 15.25333,0 15.25333,-14.73333 v -9.18667 q 0,-14.73333 -14.73333,-14.73333 h -27.21334 q -1.73333,0 -1.73333,1.73333 v 35.36 q 0,1.56 1.73333,1.56 z m -14.38666,59.62667 v -106.6 q 0,-2.42667 2.42666,-2.42667 h 40.73334 q 11.96,0 18.71999,6.76 6.76,6.58667 6.76,18.54667 v 9.53333 q 0,15.42667 -14.55999,19.93333 6.58666,0.52 11.26666,5.89334 4.68,5.2 4.68,13.86666 v 11.61334 q 0,11.96 -6.93333,18.72 -6.76,6.58666 -18.72,6.58666 h -41.94667 q -2.42666,0 -2.42666,-2.42666 z"
         inkscape:connector-curvature="0" />
    </g>
    <rect
       y="115.83535"
       x="140.34785"
       height="3.338882"
       width="3.338882"
       id="rect1795-2-610-3"
       style="display:inline;opacity:1;fill:#474747;fill-opacity:1;stroke:none;stroke-width:0.22259213;stroke-linecap:round;stroke-miterlimit:4;stroke-dasharray:none;stroke-dashoffset:0;stroke-opacity:1" />
    <rect
       y="119.17423"
       x="140.34785"
       height="3.338882"
       width="3.338882"
       id="rect1795-2-610-3-2"
       style="display:inline;opacity:0.45800003;fill:#f3f3f3;fill-opacity:1;stroke:none;stroke-width:0.22259213;stroke-linecap:round;stroke-miterlimit:4;stroke-dasharray:none;stroke-dashoffset:0;stroke-opacity:1" />
    <rect
       y="109.15759"
       x="140.34785"
       height="3.338882"
       width="3.338882"
       id="rect1795-2-610-3-0"
       style="display:inline;opacity:0.28000004;fill:#474747;fill-opacity:1;stroke:none;stroke-width:0.22259213;stroke-linecap:round;stroke-miterlimit:4;stroke-dasharray:none;stroke-dashoffset:0;stroke-opacity:1" />
    <rect
       y="112.49647"
       x="143.68674"
       height="3.338882"
       width="3.338882"
       id="rect1795-2-610-3-9"
       style="display:inline;opacity:0.51499999;fill:#474747;fill-opacity:1;stroke:none;stroke-width:0.22259213;stroke-linecap:round;stroke-miterlimit:4;stroke-dasharray:none;stroke-dashoffset:0;stroke-opacity:1" />
    <rect
       y="102.47983"
       x="140.34785"
       height="3.338882"
       width="3.338882"
       id="rect1795-2-610-3-0-6"
       style="display:inline;opacity:0.43900003;fill:#474747;fill-opacity:1;stroke:none;stroke-width:0.22259213;stroke-linecap:round;stroke-miterlimit:4;stroke-dasharray:none;stroke-dashoffset:0;stroke-opacity:1" />
  </g>
</svg>
