<?xml version="1.0" encoding="UTF-8" standalone="no"?>
<svg
   xmlns:dc="http://purl.org/dc/elements/1.1/"
   xmlns:cc="http://creativecommons.org/ns#"
   xmlns:rdf="http://www.w3.org/1999/02/22-rdf-syntax-ns#"
   xmlns:svg="http://www.w3.org/2000/svg"
   xmlns="http://www.w3.org/2000/svg"
   xmlns:sodipodi="http://sodipodi.sourceforge.net/DTD/sodipodi-0.dtd"
   xmlns:inkscape="http://www.inkscape.org/namespaces/inkscape"
   viewBox="0 0 646.31765 565.28575"
   height="149.56519mm"
   width="171.00488mm"
   id="svg17935"
   version="1.1"
   sodipodi:docname="tinusaur.svg"
   inkscape:version="0.92.4 5da689c313, 2019-01-14">
  <sodipodi:namedview
     pagecolor="#ffffff"
     bordercolor="#666666"
     borderopacity="1"
     objecttolerance="10"
     gridtolerance="10"
     guidetolerance="10"
     inkscape:pageopacity="0"
     inkscape:pageshadow="2"
     inkscape:window-width="1878"
     inkscape:window-height="1023"
     id="namedview9"
     showgrid="false"
     fit-margin-top="0"
     fit-margin-left="0"
     fit-margin-right="0"
     fit-margin-bottom="0"
     inkscape:zoom="1.1893044"
     inkscape:cx="458.56162"
     inkscape:cy="205.14666"
     inkscape:window-x="20"
     inkscape:window-y="20"
     inkscape:window-maximized="0"
     inkscape:current-layer="svg17935" />
  <metadata
     id="metadata17941">
    <rdf:RDF>
      <cc:Work
         rdf:about="">
        <dc:format>image/svg+xml</dc:format>
        <dc:type
           rdf:resource="http://purl.org/dc/dcmitype/StillImage" />
        <dc:title />
      </cc:Work>
    </rdf:RDF>
  </metadata>
  <defs
     id="defs17939" />
  <path
     style="fill:#ffffff;fill-rule:evenodd;stroke:#000000;stroke-width:1px;stroke-linecap:butt;stroke-linejoin:miter;stroke-opacity:1"
     d="M 97.405959,449.3815 110.50911,427.42415 112.6815,388.65025 95.514867,347.35386 117.02629,274.94685 94.814686,221.87888 114.64445,162.9251 99.159471,98.860717 l 8.899019,-53.843145 404.0243,1.862561 -0.85959,31.566406 30.09613,-0.329876 0.17367,126.976507 -217.25188,0.31834 0.84083,87.56028 123.07918,1.8858 0.52248,33.5189 -60.42538,0.31834 -0.63669,121.07918 z"
     id="path39"
     inkscape:connector-curvature="0"
     sodipodi:nodetypes="cccccccccccccccccccc" />
  <g
     style="display:inline"
     id="layer16"
     transform="matrix(0.76440179,0,0,0.76440179,19.805693,-178.25274)">
    <path
       id="path3166"
       d="m 74.804021,821.03856 c -0.922284,-1.11138 -1.273469,-7.65173 -1.044758,-19.46057 l 0.344374,-17.7865 18.574562,-0.32951 c 15.680021,-0.27824 18.815771,-0.65283 20.122441,-2.40379 2.24281,-3.00537 2.16814,-36.69343 -0.0855,-38.56388 -0.9769,-0.81073 -9.06476,-1.49377 -20.12244,-1.69945 l -18.489129,-0.344 -0.321952,-58.0585 c -0.231943,-41.83871 0.06932,-58.53057 1.080412,-59.74818 1.065312,-1.2836 5.670196,-1.68964 19.162506,-1.68964 16.291613,0 17.866123,-0.19806 19.042023,-2.3952 1.35941,-2.54011 1.80457,-33.18931 0.53024,-36.51009 -0.63847,-1.66379 -3.50589,-1.95873 -19.042016,-1.95873 -13.940206,0 -18.62409,-0.40188 -19.692753,-1.68966 -1.010578,-1.2176 -1.312355,-17.90946 -1.080412,-59.74815 l 0.321947,-58.05853 18.785571,-0.61914 c 10.332033,-0.34054 19.247813,-1.08196 19.812863,-1.64757 0.56504,-0.56563 1.20524,-9.24185 1.42268,-19.28048 0.31243,-14.42848 0.0347,-18.55095 -1.32375,-19.67879 -1.08264,-0.89844 -8.56522,-1.55408 -20.208244,-1.77069 l -18.48912,-0.34397 v -59.43858 -59.43859 l 18.547315,-0.34429 c 10.441139,-0.19382 19.100469,-0.8954 19.812869,-1.60524 0.69605,-0.69351 1.54416,-9.73299 1.8847,-20.08771 l 0.61914,-18.82679 h 281.71415 281.71413 l 0.30122,17.33625 c 0.44168,25.42144 -1.74186,22.90863 19.90673,22.90863 12.58483,0 18.76756,0.46425 19.78928,1.48596 2.15481,2.15481 2.15481,236.34252 0,238.49733 -1.13819,1.13819 -34.17195,1.48597 -141.14306,1.48597 H 437.59301 l -0.68918,2.78618 c -0.37907,1.53241 -0.529,10.58751 -0.33318,20.12244 l 0.35603,17.33625 79.1357,0.31883 c 56.28896,0.22676 79.61946,0.72029 80.81135,1.70947 1.37378,1.14013 1.61772,11.90253 1.35406,59.73892 l -0.3216,58.34826 -39.21471,0.61915 c -21.5681,0.34053 -39.6783,1.0834 -40.24488,1.65078 -0.5666,0.56739 -1.16364,27.31476 -1.32678,59.4386 -0.16316,32.12383 -0.56359,59.1035 -0.88988,59.95483 -0.43391,1.13219 -5.06609,1.54787 -17.24792,1.54787 -9.16008,0 -17.53612,-0.33817 -18.61342,-0.75165 -1.74741,-0.67053 -1.96078,-7.05003 -1.97769,-59.12901 -0.0112,-34.61678 -0.49677,-59.13335 -1.1929,-60.23482 -1.02233,-1.61759 -14.09273,-1.93745 -101.21235,-2.4766 l -100.03849,-0.61915 -0.61915,-19.19371 -0.61915,-19.1937 -19.19371,-0.61916 -19.19372,-0.61915 v -39.62572 -39.62572 l 18.20395,-0.34233 c 17.28956,-0.32515 18.27228,-0.21432 19.56792,2.20649 0.83883,1.56731 1.27075,8.9981 1.12177,19.29655 -0.13323,9.21126 0.26785,17.25781 0.89134,17.88124 0.62336,0.62341 9.47971,1.28842 19.68085,1.47777 l 18.54733,0.34431 0.32951,18.57455 c 0.27824,15.68005 0.65283,18.81577 2.4038,20.12244 2.71336,2.02498 235.66637,2.28379 239.43651,0.26601 2.20204,-1.17849 2.3952,-2.75636 2.3952,-19.56519 0,-12.56931 -0.4644,-18.74775 -1.48597,-19.7693 -1.12463,-1.12464 -20.66399,-1.48598 -80.35726,-1.48598 -70.77801,0 -78.94844,-0.20099 -79.62294,-1.95873 -0.41341,-1.0773 -0.75164,-27.4346 -0.75164,-58.57178 0,-42.38128 0.37354,-56.98658 1.48596,-58.099 1.13809,-1.13808 34.00591,-1.48596 140.39588,-1.48596 115.68151,0 139.14386,-0.28192 140.30906,-1.68588 1.01526,-1.22332 1.31167,-23.39234 1.08035,-80.79933 l -0.31881,-79.11346 -18.75871,-0.34114 c -13.48295,-0.24522 -19.13259,-0.79165 -20.08806,-1.94291 -0.77839,-0.93791 -1.47188,-9.26449 -1.6733,-20.09086 l -0.34396,-18.48911 -241.40421,-0.31271 c -167.17602,-0.21656 -241.80501,0.0867 -242.7076,0.98608 -0.73829,0.73566 -1.57178,9.46152 -1.92247,20.12557 l -0.61916,18.82678 -19.19371,0.61916 -19.19371,0.61914 v 19.81287 19.81286 l 19.19371,0.61915 19.19371,0.61916 0.32147,59.74816 0.32146,59.74815 -18.27687,0.019 c -10.05231,0.01 -18.98803,0.4703 -19.85732,1.02192 -1.19781,0.7602 -1.49761,5.77613 -1.2383,20.72263 l 0.34214,19.71968 18.57456,0.32957 c 13.71198,0.2433 18.89875,0.76137 19.81286,1.97898 0.80527,1.07268 1.02186,21.95812 0.61916,59.72818 l -0.61916,58.07875 -19.19371,0.61915 -19.19371,0.61916 -0.343,19.09834 c -0.2021,11.25223 0.1533,19.59481 0.86507,20.30646 0.66447,0.66447 9.17731,1.3864 18.91757,1.60434 9.74025,0.21795 18.13272,0.41372 18.6501,0.43515 0.51736,0.021 0.79598,26.92555 0.61915,59.78704 l -0.32147,59.74817 -37.96169,0.26685 c -30.632543,0.21533 -38.229905,-0.0557 -39.351069,-1.40721 z M 237.25017,457.9037 c -1.20821,-0.47743 -1.54787,-13.604 -1.54787,-59.81457 0,-52.84299 0.21038,-59.28366 1.95875,-59.95454 2.97886,-1.1431 185.41352,-0.86017 187.22651,0.29035 1.19471,0.75816 1.49798,5.53 1.23831,19.48432 l -0.34392,18.48025 -34.67251,0.61917 -34.67251,0.61914 -0.32704,39.35344 -0.32704,39.35342 -3.08635,1.17343 c -3.12138,1.18674 -112.49582,1.56152 -115.44633,0.39559 z m 77.45592,-40.27865 c 2.07403,-2.0741 2.07403,-37.05633 0,-39.13042 -1.83802,-1.83801 -37.61063,-2.10565 -38.73291,-0.28977 -1.02161,1.65309 -1.0969,37.93515 -0.0817,39.57719 1.1988,1.93971 36.86245,1.79544 38.81501,-0.157 z m 246.13119,39.46599 c -1.72289,-1.2598 -1.96009,-4.02748 -1.66391,-19.41507 l 0.3454,-17.94582 39.31616,-0.32697 39.31614,-0.32697 v 19.07862 c 0,15.98327 -0.3074,19.19658 -1.89472,19.80571 -3.83662,1.47224 -73.31194,0.67128 -75.41907,-0.8695 z"
       style="fill:#474747;fill-opacity:1;stroke-width:1.2383039"
       inkscape:connector-curvature="0" />
  </g>
</svg>
