<svg width="412" height="127" viewBox="0 0 412 127" fill="none" xmlns="http://www.w3.org/2000/svg">
<rect width="346" height="127" rx="11" fill="#AF6060"/>
<path d="M26.9878 27.756H10.4433L12.4298 21.124H23.5114L26.9878 27.756ZM11.9937 20.8373L10.3574 26.3001V15.0679L11.9937 11.3415V20.8373ZM12.4937 20.624V10.4004H23.4126V20.624H12.4937ZM23.9126 10.744L27.5044 14.2521L27.1759 27.0379L23.9126 20.8124V10.744Z" fill="#65A9BE" stroke="#5D666B" stroke-width="0.5" stroke-linecap="round" stroke-linejoin="round"/>
<path d="M68.0854 27.756H51.5409L53.5274 21.124H64.609L68.0854 27.756ZM53.0914 20.8373L51.4551 26.3001V15.0679L53.0914 11.3415V20.8373ZM53.5914 20.624V10.4004H64.5102V20.624H53.5914ZM65.0102 10.744L68.6021 14.2521L68.2735 27.0379L65.0102 20.8124V10.744Z" fill="#F2F2F2" stroke="#5D666B" stroke-width="0.5" stroke-linecap="round" stroke-linejoin="round"/>
<path d="M88.2788 27.756H71.7343L73.7208 21.124H84.8024L88.2788 27.756ZM73.2847 20.8373L71.6484 26.3001V15.0679L73.2847 11.3415V20.8373ZM73.7847 20.624V10.4004H84.7036V20.624H73.7847ZM85.2036 10.744L88.7954 14.2521L88.4669 27.0379L85.2036 20.8124V10.744Z" fill="#F2F2F2" stroke="#5D666B" stroke-width="0.5" stroke-linecap="round" stroke-linejoin="round"/>
<path d="M108.472 27.756H91.9277L93.9142 21.124H104.996L108.472 27.756ZM93.4781 20.8373L91.8418 26.3001V15.0679L93.4781 11.3415V20.8373ZM93.9781 20.624V10.4004H104.897V20.624H93.9781ZM105.397 10.744L108.989 14.2521L108.66 27.0379L105.397 20.8124V10.744Z" fill="#F2F2F2" stroke="#5D666B" stroke-width="0.5" stroke-linecap="round" stroke-linejoin="round"/>
<path d="M128.665 27.756H112.121L114.108 21.124H125.189L128.665 27.756ZM113.671 20.8373L112.035 26.3001V15.0679L113.671 11.3415V20.8373ZM114.171 20.624V10.4004H125.09V20.624H114.171ZM125.59 10.744L129.182 14.2521L128.854 27.0379L125.59 20.8124V10.744Z" fill="#F2F2F2" stroke="#5D666B" stroke-width="0.5" stroke-linecap="round" stroke-linejoin="round"/>
<path d="M170.679 27.756H154.135L156.121 21.124H167.203L170.679 27.756ZM155.685 20.8373L154.049 26.3001V15.0679L155.685 11.3415V20.8373ZM156.185 20.624V10.4004H167.104V20.624H156.185ZM167.604 10.744L171.196 14.2521L170.867 27.0379L167.604 20.8124V10.744Z" fill="#F2F2F2" stroke="#5D666B" stroke-width="0.5" stroke-linecap="round" stroke-linejoin="round"/>
<path d="M190.873 27.756H174.328L176.315 21.124H187.396L190.873 27.756ZM175.878 20.8373L174.242 26.3001V15.0679L175.878 11.3415V20.8373ZM176.378 20.624V10.4004H187.297V20.624H176.378ZM187.797 10.744L191.389 14.2521L191.061 27.0379L187.797 20.8124V10.744Z" fill="#F2F2F2" stroke="#5D666B" stroke-width="0.5" stroke-linecap="round" stroke-linejoin="round"/>
<path d="M211.064 27.756H194.519L196.506 21.124H207.588L211.064 27.756ZM196.07 20.8373L194.434 26.3001V15.0679L196.07 11.3415V20.8373ZM196.57 20.624V10.4004H207.489V20.624H196.57ZM207.989 10.744L211.581 14.2521L211.252 27.0379L207.989 20.8124V10.744Z" fill="#F2F2F2" stroke="#5D666B" stroke-width="0.5" stroke-linecap="round" stroke-linejoin="round"/>
<path d="M231.255 27.756H214.711L216.697 21.124H227.779L231.255 27.756ZM216.261 20.8373L214.625 26.3001V15.0679L216.261 11.3415V20.8373ZM216.761 20.624V10.4004H227.68V20.624H216.761ZM228.18 10.744L231.772 14.2521L231.443 27.0379L228.18 20.8124V10.744Z" fill="#F2F2F2" stroke="#5D666B" stroke-width="0.5" stroke-linecap="round" stroke-linejoin="round"/>
<path d="M274.236 27.756H257.691L259.678 21.124H270.759L274.236 27.756ZM259.242 20.8373L257.605 26.3001V15.0679L259.242 11.3415V20.8373ZM259.742 20.624V10.4004H270.661V20.624H259.742ZM271.161 10.744L274.752 14.2521L274.424 27.0379L271.161 20.8124V10.744Z" fill="#F2F2F2" stroke="#5D666B" stroke-width="0.5" stroke-linecap="round" stroke-linejoin="round"/>
<path d="M294.429 27.756H277.885L279.871 21.124H290.953L294.429 27.756ZM279.435 20.8373L277.799 26.3001V15.0679L279.435 11.3415V20.8373ZM279.935 20.624V10.4004H290.854V20.624H279.935ZM291.354 10.744L294.946 14.2521L294.617 27.0379L291.354 20.8124V10.744Z" fill="#F2F2F2" stroke="#5D666B" stroke-width="0.5" stroke-linecap="round" stroke-linejoin="round"/>
<path d="M314.621 27.756H298.076L300.063 21.124H311.144L314.621 27.756ZM299.627 20.8373L297.99 26.3001V15.0679L299.627 11.3415V20.8373ZM300.127 20.624V10.4004H311.045V20.624H300.127ZM311.545 10.744L315.137 14.2521L314.809 27.0379L311.545 20.8124V10.744Z" fill="#F2F2F2" stroke="#5D666B" stroke-width="0.5" stroke-linecap="round" stroke-linejoin="round"/>
<path d="M334.816 27.756H318.271L320.258 21.124H331.339L334.816 27.756ZM319.822 20.8373L318.186 26.3001V15.0679L319.822 11.3415V20.8373ZM320.322 20.624V10.4004H331.241V20.624H320.322ZM331.741 10.744L335.333 14.2521L335.004 27.0379L331.741 20.8124V10.744Z" fill="#F2F2F2" stroke="#5D666B" stroke-width="0.5" stroke-linecap="round" stroke-linejoin="round"/>
<path d="M27.1161 46.3502H10.545L12.5346 39.7182H23.6343L27.1161 46.3502ZM12.0986 39.4315L10.459 44.8969V33.6623L12.0986 29.9341V39.4315ZM12.5986 39.2182V28.9946H23.5354V39.2182H12.5986ZM24.0354 29.3376L27.6336 32.8464L27.3045 45.6335L24.0354 39.4066V29.3376Z" fill="#DDE2E5" stroke="#5D666B" stroke-width="0.5" stroke-linecap="round" stroke-linejoin="round"/>
<path d="M65.5653 46.3502H48.9942L50.9838 39.7182H62.0835L65.5653 46.3502ZM50.5478 39.4315L48.9082 44.8969V33.6623L50.5478 29.9341V39.4315ZM51.0478 39.2182V28.9946H61.9846V39.2182H51.0478ZM62.4846 29.3376L66.0828 32.8464L65.7537 45.6335L62.4846 39.4066V29.3376Z" fill="#DDE2E5" stroke="#5D666B" stroke-width="0.5" stroke-linecap="round" stroke-linejoin="round"/>
<path d="M87.7899 46.3502H71.2188L73.2084 39.7182H84.3081L87.7899 46.3502ZM72.7724 39.4315L71.1328 44.8969V33.6623L72.7724 29.9341V39.4315ZM73.2724 39.2182V28.9946H84.2092V39.2182H73.2724ZM84.7092 29.3376L88.3074 32.8464L87.9783 45.6335L84.7092 39.4066V29.3376Z" fill="#DDE2E5" stroke="#5D666B" stroke-width="0.5" stroke-linecap="round" stroke-linejoin="round"/>
<path d="M108.015 46.3502H91.4434L93.433 39.7182H104.533L108.015 46.3502ZM92.997 39.4315L91.3574 44.8969V33.6623L92.997 29.9341V39.4315ZM93.497 39.2182V28.9946H104.434V39.2182H93.497ZM104.934 29.3376L108.532 32.8464L108.203 45.6335L104.934 39.4066V29.3376Z" fill="#DDE2E5" stroke="#5D666B" stroke-width="0.5" stroke-linecap="round" stroke-linejoin="round"/>
<path d="M128.239 46.3502H111.668L113.658 39.7182H124.757L128.239 46.3502ZM113.222 39.4315L111.582 44.8969V33.6623L113.222 29.9341V39.4315ZM113.722 39.2182V28.9946H124.658V39.2182H113.722ZM125.158 29.3376L128.757 32.8464L128.428 45.6335L125.158 39.4066V29.3376Z" fill="#DDE2E5" stroke="#5D666B" stroke-width="0.5" stroke-linecap="round" stroke-linejoin="round"/>
<path d="M148.464 46.3502H131.893L133.882 39.7182H144.982L148.464 46.3502ZM133.446 39.4315L131.807 44.8969V33.6623L133.446 29.9341V39.4315ZM133.946 39.2182V28.9946H144.883V39.2182H133.946ZM145.383 29.3376L148.981 32.8464L148.652 45.6335L145.383 39.4066V29.3376Z" fill="#DDE2E5" stroke="#5D666B" stroke-width="0.5" stroke-linecap="round" stroke-linejoin="round"/>
<path d="M168.688 46.3502H152.117L154.107 39.7182H165.207L168.688 46.3502ZM153.671 39.4315L152.031 44.8969V33.6623L153.671 29.9341V39.4315ZM154.171 39.2182V28.9946H165.108V39.2182H154.171ZM165.608 29.3376L169.206 32.8464L168.877 45.6335L165.608 39.4066V29.3376Z" fill="#DDE2E5" stroke="#5D666B" stroke-width="0.5" stroke-linecap="round" stroke-linejoin="round"/>
<path d="M188.913 46.3502H172.342L174.331 39.7182H185.431L188.913 46.3502ZM173.895 39.4315L172.256 44.8969V33.6623L173.895 29.9341V39.4315ZM174.395 39.2182V28.9946H185.332V39.2182H174.395ZM185.832 29.3376L189.43 32.8464L189.101 45.6335L185.832 39.4066V29.3376Z" fill="#DDE2E5" stroke="#5D666B" stroke-width="0.5" stroke-linecap="round" stroke-linejoin="round"/>
<path d="M209.138 46.3502H192.566L194.556 39.7182H205.656L209.138 46.3502ZM194.12 39.4315L192.48 44.8969V33.6623L194.12 29.9341V39.4315ZM194.62 39.2182V28.9946H205.557V39.2182H194.62ZM206.057 29.3376L209.655 32.8464L209.326 45.6335L206.057 39.4066V29.3376Z" fill="#DDE2E5" stroke="#5D666B" stroke-width="0.5" stroke-linecap="round" stroke-linejoin="round"/>
<path d="M229.36 46.3502H212.789L214.779 39.7182H225.878L229.36 46.3502ZM214.343 39.4315L212.703 44.8969V33.6623L214.343 29.9341V39.4315ZM214.843 39.2182V28.9946H225.78V39.2182H214.843ZM226.28 29.3376L229.878 32.8464L229.549 45.6335L226.28 39.4066V29.3376Z" fill="#DDE2E5" stroke="#5D666B" stroke-width="0.5" stroke-linecap="round" stroke-linejoin="round"/>
<path d="M249.587 46.3502H233.016L235.005 39.7182H246.105L249.587 46.3502ZM234.569 39.4315L232.93 44.8969V33.6623L234.569 29.9341V39.4315ZM235.069 39.2182V28.9946H246.006V39.2182H235.069ZM246.506 29.3376L250.104 32.8464L249.775 45.6335L246.506 39.4066V29.3376Z" fill="#DDE2E5" stroke="#5D666B" stroke-width="0.5" stroke-linecap="round" stroke-linejoin="round"/>
<path d="M269.811 46.3502H253.24L255.23 39.7182H266.33L269.811 46.3502ZM254.794 39.4315L253.154 44.8969V33.6623L254.794 29.9341V39.4315ZM255.294 39.2182V28.9946H266.231V39.2182H255.294ZM266.731 29.3376L270.329 32.8464L270 45.6335L266.731 39.4066V29.3376Z" fill="#DDE2E5" stroke="#5D666B" stroke-width="0.5" stroke-linecap="round" stroke-linejoin="round"/>
<path d="M290.036 46.3502H273.465L275.455 39.7182H286.554L290.036 46.3502ZM275.019 39.4315L273.379 44.8969V33.6623L275.019 29.9341V39.4315ZM275.519 39.2182V28.9946H286.455V39.2182H275.519ZM286.955 29.3376L290.553 32.8464L290.224 45.6335L286.955 39.4066V29.3376Z" fill="#DDE2E5" stroke="#5D666B" stroke-width="0.5" stroke-linecap="round" stroke-linejoin="round"/>
<path d="M334.338 46.3248H293.724L296.392 39.7029H331.183L334.338 46.3248ZM295.974 39.4044L293.604 45.2856V33.6711L295.974 29.6593V39.4044ZM296.474 39.2029V28.9946H331.091V39.2029H296.474ZM331.591 29.3231L335.329 32.8397L334.543 45.5944L331.591 39.3964V29.3231Z" fill="#DDE2E5" stroke="#5D666B" stroke-width="0.5" stroke-linecap="round" stroke-linejoin="round"/>
<path d="M47.3407 46.3502H30.7696L32.7592 39.7182H43.8589L47.3407 46.3502ZM32.3232 39.4315L30.6836 44.8969V33.6623L32.3232 29.9341V39.4315ZM32.8232 39.2182V28.9946H43.76V39.2182H32.8232ZM44.26 29.3376L47.8582 32.8464L47.5291 45.6335L44.26 39.4066V29.3376Z" fill="#DDE2E5" stroke="#5D666B" stroke-width="0.5" stroke-linecap="round" stroke-linejoin="round"/>
<path d="M40.8617 63.8747H10.5582L12.8194 57.2325H37.7208L40.8617 63.8747ZM12.3904 56.9411L10.459 62.6146V51.1746L12.3904 47.3044V56.9411ZM12.8904 56.7325V46.4937H37.6291V56.7325H12.8904ZM38.1291 46.8459L41.6409 50.3474L41.053 63.1096L38.1291 56.9264V46.8459Z" fill="#DDE2E5" stroke="#5D666B" stroke-width="0.5" stroke-linecap="round" stroke-linejoin="round"/>
<path d="M81.5751 63.8493H65.004L66.9936 57.2172H78.0932L81.5751 63.8493ZM66.5576 56.9305L64.918 62.3959V51.1613L66.5576 47.4331V56.9305ZM67.0576 56.7172V46.4937H77.9944V56.7172H67.0576ZM78.4944 46.8366L82.0926 50.3454L81.7635 63.1325L78.4944 56.9056V46.8366Z" fill="#DDE2E5" stroke="#5D666B" stroke-width="0.5" stroke-linecap="round" stroke-linejoin="round"/>
<path d="M101.8 63.8493H85.2286L87.2182 57.2172H98.3179L101.8 63.8493ZM86.7822 56.9305L85.1426 62.3959V51.1613L86.7822 47.4331V56.9305ZM87.2822 56.7172V46.4937H98.219V56.7172H87.2822ZM98.719 46.8366L102.317 50.3454L101.988 63.1325L98.719 56.9056V46.8366Z" fill="#DDE2E5" stroke="#5D666B" stroke-width="0.5" stroke-linecap="round" stroke-linejoin="round"/>
<path d="M122.024 63.8493H105.453L107.443 57.2172H118.542L122.024 63.8493ZM107.007 56.9305L105.367 62.3959V51.1613L107.007 47.4331V56.9305ZM107.507 56.7172V46.4937H118.444V56.7172H107.507ZM118.944 46.8366L122.542 50.3454L122.213 63.1325L118.944 56.9056V46.8366Z" fill="#DDE2E5" stroke="#5D666B" stroke-width="0.5" stroke-linecap="round" stroke-linejoin="round"/>
<path d="M142.249 63.8493H125.678L127.667 57.2172H138.767L142.249 63.8493ZM127.231 56.9305L125.592 62.3959V51.1613L127.231 47.4331V56.9305ZM127.731 56.7172V46.4937H138.668V56.7172H127.731ZM139.168 46.8366L142.766 50.3454L142.437 63.1325L139.168 56.9056V46.8366Z" fill="#DDE2E5" stroke="#5D666B" stroke-width="0.5" stroke-linecap="round" stroke-linejoin="round"/>
<path d="M162.474 63.8493H145.902L147.892 57.2172H158.992L162.474 63.8493ZM147.456 56.9305L145.816 62.3959V51.1613L147.456 47.4331V56.9305ZM147.956 56.7172V46.4937H158.893V56.7172H147.956ZM159.393 46.8366L162.991 50.3454L162.662 63.1325L159.393 56.9056V46.8366Z" fill="#DDE2E5" stroke="#5D666B" stroke-width="0.5" stroke-linecap="round" stroke-linejoin="round"/>
<path d="M182.698 63.8493H166.127L168.117 57.2172H179.216L182.698 63.8493ZM167.681 56.9305L166.041 62.3959V51.1613L167.681 47.4331V56.9305ZM168.181 56.7172V46.4937H179.117V56.7172H168.181ZM179.617 46.8366L183.216 50.3454L182.887 63.1325L179.617 56.9056V46.8366Z" fill="#DDE2E5" stroke="#5D666B" stroke-width="0.5" stroke-linecap="round" stroke-linejoin="round"/>
<path d="M202.923 63.8493H186.352L188.341 57.2172H199.441L202.923 63.8493ZM187.905 56.9305L186.266 62.3959V51.1613L187.905 47.4331V56.9305ZM188.405 56.7172V46.4937H199.342V56.7172H188.405ZM199.842 46.8366L203.44 50.3454L203.111 63.1325L199.842 56.9056V46.8366Z" fill="#DDE2E5" stroke="#5D666B" stroke-width="0.5" stroke-linecap="round" stroke-linejoin="round"/>
<path d="M223.145 63.8493H206.574L208.564 57.2172H219.664L223.145 63.8493ZM208.128 56.9305L206.488 62.3959V51.1613L208.128 47.4331V56.9305ZM208.628 56.7172V46.4937H219.565V56.7172H208.628ZM220.065 46.8366L223.663 50.3454L223.334 63.1325L220.065 56.9056V46.8366Z" fill="#DDE2E5" stroke="#5D666B" stroke-width="0.5" stroke-linecap="round" stroke-linejoin="round"/>
<path d="M243.37 63.8493H226.799L228.789 57.2172H239.888L243.37 63.8493ZM228.353 56.9305L226.713 62.3959V51.1613L228.353 47.4331V56.9305ZM228.853 56.7172V46.4937H239.789V56.7172H228.853ZM240.289 46.8366L243.887 50.3454L243.558 63.1325L240.289 56.9056V46.8366Z" fill="#DDE2E5" stroke="#5D666B" stroke-width="0.5" stroke-linecap="round" stroke-linejoin="round"/>
<path d="M263.595 63.8493H247.024L249.013 57.2172H260.113L263.595 63.8493ZM248.577 56.9305L246.938 62.3959V51.1613L248.577 47.4331V56.9305ZM249.077 56.7172V46.4937H260.014V56.7172H249.077ZM260.514 46.8366L264.112 50.3454L263.783 63.1325L260.514 56.9056V46.8366Z" fill="#DDE2E5" stroke="#5D666B" stroke-width="0.5" stroke-linecap="round" stroke-linejoin="round"/>
<path d="M283.819 63.8493H267.248L269.238 57.2172H280.337L283.819 63.8493ZM268.802 56.9305L267.162 62.3959V51.1613L268.802 47.4331V56.9305ZM269.302 56.7172V46.4937H280.238V56.7172H269.302ZM280.738 46.8366L284.337 50.3454L284.008 63.1325L280.738 56.9056V46.8366Z" fill="#DDE2E5" stroke="#5D666B" stroke-width="0.5" stroke-linecap="round" stroke-linejoin="round"/>
<path d="M304.044 63.8493H287.473L289.462 57.2172H300.562L304.044 63.8493ZM289.026 56.9305L287.387 62.3959V51.1613L289.026 47.4331V56.9305ZM289.526 56.7172V46.4937H300.463V56.7172H289.526ZM300.963 46.8366L304.561 50.3454L304.232 63.1325L300.963 56.9056V46.8366Z" fill="#DDE2E5" stroke="#5D666B" stroke-width="0.5" stroke-linecap="round" stroke-linejoin="round"/>
<path d="M334.675 63.8238H307.69L309.473 57.2019H332.567L334.675 63.8238ZM307.613 51.1494L309.031 47.5576V56.9188L307.613 62.1842V51.1494ZM332.499 56.7019H309.531V46.4937H332.499V56.7019ZM332.999 47.0273L335.333 50.3121L334.825 62.6479L332.999 56.9131V47.0273Z" fill="#DDE2E5" stroke="#5D666B" stroke-width="0.5" stroke-linecap="round" stroke-linejoin="round"/>
<path d="M61.3505 63.8493H44.7794L46.769 57.2172H57.8686L61.3505 63.8493ZM46.333 56.9305L44.6934 62.3959V51.1613L46.333 47.4331V56.9305ZM46.833 56.7172V46.4937H57.7697V56.7172H46.833ZM58.2697 46.8366L61.868 50.3454L61.5389 63.1325L58.2697 56.9056V46.8366Z" fill="#DDE2E5" stroke="#5D666B" stroke-width="0.5" stroke-linecap="round" stroke-linejoin="round"/>
<path d="M46.8734 81.3992H10.5806L13.2821 74.7569H43.1209L46.8734 81.3992ZM12.8639 74.458L10.459 80.3709V68.709L12.8639 64.6755V74.458ZM13.3639 74.2569V64.0181H43.0168V74.2569H13.3639ZM43.5168 64.3023L47.809 67.8844L47.0991 80.7822L43.5168 74.4412V64.3023Z" fill="#DDE2E5" stroke="#5D666B" stroke-width="0.5" stroke-linecap="round" stroke-linejoin="round"/>
<path d="M87.2212 81.3737H70.8738L72.8373 74.7416H83.7851L87.2212 81.3737ZM72.4006 74.4554L70.7891 79.8986V68.6851L72.4006 64.972V74.4554ZM72.9006 74.2416V64.0181H83.6871V74.2416H72.9006ZM84.1871 64.3666L87.7315 67.8689L87.4071 80.6455L84.1871 74.4307V64.3666Z" fill="#DDE2E5" stroke="#5D666B" stroke-width="0.5" stroke-linecap="round" stroke-linejoin="round"/>
<path d="M107.178 81.3737H90.8308L92.7943 74.7416H103.742L107.178 81.3737ZM92.3576 74.4554L90.7461 79.8986V68.6851L92.3576 64.972V74.4554ZM92.8576 74.2416V64.0181H103.644V74.2416H92.8576ZM104.144 64.3666L107.689 67.8689L107.364 80.6455L104.144 74.4307V64.3666Z" fill="#DDE2E5" stroke="#5D666B" stroke-width="0.5" stroke-linecap="round" stroke-linejoin="round"/>
<path d="M127.139 81.3737H110.792L112.755 74.7416H123.703L127.139 81.3737ZM112.319 74.4554L110.707 79.8986V68.6851L112.319 64.972V74.4554ZM112.819 74.2416V64.0181H123.605V74.2416H112.819ZM124.105 64.3666L127.65 67.8689L127.325 80.6455L124.105 74.4307V64.3666Z" fill="#ABDFAA" stroke="#5D666B" stroke-width="0.5" stroke-linecap="round" stroke-linejoin="round"/>
<path d="M147.098 81.3737H130.751L132.714 74.7416H143.662L147.098 81.3737ZM132.278 74.4554L130.666 79.8986V68.6851L132.278 64.972V74.4554ZM132.778 74.2416V64.0181H143.564V74.2416H132.778ZM144.064 64.3666L147.609 67.8689L147.284 80.6455L144.064 74.4307V64.3666Z" fill="#ABDFAA" stroke="#5D666B" stroke-width="0.5" stroke-linecap="round" stroke-linejoin="round"/>
<path d="M167.057 81.3737H150.71L152.673 74.7416H163.621L167.057 81.3737ZM152.237 74.4554L150.625 79.8986V68.6851L152.237 64.972V74.4554ZM152.737 74.2416V64.0181H163.523V74.2416H152.737ZM164.023 64.3666L167.567 67.8689L167.243 80.6455L164.023 74.4307V64.3666Z" fill="#ABDFAA" stroke="#5D666B" stroke-width="0.5" stroke-linecap="round" stroke-linejoin="round"/>
<path d="M187.014 81.3737H170.667L172.63 74.7416H183.578L187.014 81.3737ZM172.194 74.4554L170.582 79.8986V68.6851L172.194 64.972V74.4554ZM172.694 74.2416V64.0181H183.48V74.2416H172.694ZM183.98 64.3666L187.525 67.8689L187.2 80.6455L183.98 74.4307V64.3666Z" fill="#ABDFAA" stroke="#5D666B" stroke-width="0.5" stroke-linecap="round" stroke-linejoin="round"/>
<path d="M206.973 81.3737H190.626L192.589 74.7416H203.537L206.973 81.3737ZM192.153 74.4554L190.541 79.8986V68.6851L192.153 64.972V74.4554ZM192.653 74.2416V64.0181H203.439V74.2416H192.653ZM203.939 64.3666L207.484 67.8689L207.159 80.6455L203.939 74.4307V64.3666Z" fill="#AEAF60" stroke="#5D666B" stroke-width="0.5" stroke-linecap="round" stroke-linejoin="round"/>
<path d="M226.934 81.3737H210.587L212.55 74.7416H223.498L226.934 81.3737ZM212.113 74.4554L210.502 79.8986V68.6851L212.113 64.972V74.4554ZM212.613 74.2416V64.0181H223.4V74.2416H212.613ZM223.9 64.3666L227.444 67.8689L227.12 80.6455L223.9 74.4307V64.3666Z" fill="#AEAF60" stroke="#5D666B" stroke-width="0.5" stroke-linecap="round" stroke-linejoin="round"/>
<path d="M246.891 81.3737H230.544L232.507 74.7416H243.455L246.891 81.3737ZM232.071 74.4554L230.459 79.8986V68.6851L232.071 64.972V74.4554ZM232.571 74.2416V64.0181H243.357V74.2416H232.571ZM243.857 64.3666L247.401 67.8689L247.077 80.6455L243.857 74.4307V64.3666Z" fill="#DDE2E5" stroke="#5D666B" stroke-width="0.5" stroke-linecap="round" stroke-linejoin="round"/>
<path d="M266.85 81.3737H250.503L252.466 74.7416H263.414L266.85 81.3737ZM252.029 74.4554L250.418 79.8986V68.6851L252.029 64.972V74.4554ZM252.529 74.2416V64.0181H263.316V74.2416H252.529ZM263.816 64.3666L267.36 67.8689L267.036 80.6455L263.816 74.4307V64.3666Z" fill="#DDE2E5" stroke="#5D666B" stroke-width="0.5" stroke-linecap="round" stroke-linejoin="round"/>
<path d="M286.809 81.3737H270.462L272.425 74.7416H283.373L286.809 81.3737ZM271.988 74.4554L270.377 79.8986V68.6851L271.988 64.972V74.4554ZM272.488 74.2416V64.0181H283.275V74.2416H272.488ZM283.775 64.3666L287.319 67.8689L286.995 80.6455L283.775 74.4307V64.3666Z" fill="#DDE2E5" stroke="#5D666B" stroke-width="0.5" stroke-linecap="round" stroke-linejoin="round"/>
<path d="M334.257 81.3991H290.467L293.342 74.7772H330.859L334.257 81.3991ZM292.928 74.4753L290.336 80.4456V68.7499L292.928 64.6773V74.4753ZM293.428 74.2772V64.069H330.761V74.2772H293.428ZM331.261 64.3692L335.326 67.9192L334.477 80.7319L331.261 74.4668V64.3692Z" fill="#ABDFAA" stroke="#5D666B" stroke-width="0.5" stroke-linecap="round" stroke-linejoin="round"/>
<path d="M67.2622 81.3737H50.9148L52.8783 74.7416H63.8261L67.2622 81.3737ZM52.4416 74.4554L50.8301 79.8986V68.6851L52.4416 64.972V74.4554ZM52.9416 74.2416V64.0181H63.7282V74.2416H52.9416ZM64.2282 64.3666L67.7726 67.8689L67.4481 80.6455L64.2282 74.4307V64.3666Z" fill="#DDE2E5" stroke="#5D666B" stroke-width="0.5" stroke-linecap="round" stroke-linejoin="round"/>
<path d="M52.1523 81.7578L57.695 85.4254L56.7902 98.4606L52.1523 91.9515V81.7578ZM56.5062 98.9237H10.6182L14.0254 92.2815H51.7734L56.5062 98.9237ZM13.6227 91.9711L10.459 98.1386V86.2481L13.6227 82.041V91.9711ZM14.1227 91.7815V81.5426H51.6523V91.7815H14.1227Z" fill="#DDE2E5" stroke="#5D666B" stroke-width="0.5" stroke-linecap="round" stroke-linejoin="round"/>
<path d="M96.6475 98.8982H80.4977L82.4381 92.2662H93.2518L96.6475 98.8982ZM82.0008 91.9803L80.4141 97.4035V86.209L82.0008 82.5097V91.9803ZM82.5008 91.7662V81.5426H93.1546V91.7662H82.5008ZM93.6546 81.8961L97.1515 85.3926L96.8311 98.1597L93.6546 91.9559V81.8961Z" fill="#DDE2E5" stroke="#5D666B" stroke-width="0.5" stroke-linecap="round" stroke-linejoin="round"/>
<path d="M116.372 98.8982H100.222L102.163 92.2662H112.976L116.372 98.8982ZM101.725 91.9803L100.139 97.4035V86.209L101.725 82.5097V91.9803ZM102.225 91.7662V81.5426H112.879V91.7662H102.225ZM113.379 81.8961L116.876 85.3926L116.556 98.1597L113.379 91.9559V81.8961Z" fill="#DDE2E5" stroke="#5D666B" stroke-width="0.5" stroke-linecap="round" stroke-linejoin="round"/>
<path d="M136.097 98.8982H119.947L121.887 92.2662H132.701L136.097 98.8982ZM121.45 91.9803L119.863 97.4035V86.209L121.45 82.5097V91.9803ZM121.95 91.7662V81.5426H132.604V91.7662H121.95ZM133.104 81.8961L136.601 85.3926L136.28 98.1597L133.104 91.9559V81.8961Z" fill="#DDE2E5" stroke="#5D666B" stroke-width="0.5" stroke-linecap="round" stroke-linejoin="round"/>
<path d="M155.819 98.8982H139.67L141.61 92.2662H152.424L155.819 98.8982ZM141.173 91.9803L139.586 97.4035V86.209L141.173 82.5097V91.9803ZM141.673 91.7662V81.5426H152.326V91.7662H141.673ZM152.826 81.8961L156.323 85.3926L156.003 98.1597L152.826 91.9559V81.8961Z" fill="#DDE2E5" stroke="#5D666B" stroke-width="0.5" stroke-linecap="round" stroke-linejoin="round"/>
<path d="M175.544 98.8982H159.394L161.335 92.2662H172.148L175.544 98.8982ZM160.897 91.9803L159.311 97.4035V86.209L160.897 82.5097V91.9803ZM161.397 91.7662V81.5426H172.051V91.7662H161.397ZM172.551 81.8961L176.048 85.3926L175.728 98.1597L172.551 91.9559V81.8961Z" fill="#DDE2E5" stroke="#5D666B" stroke-width="0.5" stroke-linecap="round" stroke-linejoin="round"/>
<path d="M195.267 98.8982H179.117L181.057 92.2662H191.871L195.267 98.8982ZM180.62 91.9803L179.033 97.4035V86.209L180.62 82.5097V91.9803ZM181.12 91.7662V81.5426H191.774V91.7662H181.12ZM192.274 81.8961L195.771 85.3926L195.45 98.1597L192.274 91.9559V81.8961Z" fill="#DDE2E5" stroke="#5D666B" stroke-width="0.5" stroke-linecap="round" stroke-linejoin="round"/>
<path d="M214.991 98.8982H198.841L200.782 92.2662H211.596L214.991 98.8982ZM200.345 91.9803L198.758 97.4035V86.209L200.345 82.5097V91.9803ZM200.845 91.7662V81.5426H211.498V91.7662H200.845ZM211.998 81.8961L215.495 85.3926L215.175 98.1597L211.998 91.9559V81.8961Z" fill="#DDE2E5" stroke="#5D666B" stroke-width="0.5" stroke-linecap="round" stroke-linejoin="round"/>
<path d="M234.716 98.8982H218.566L220.506 92.2662H231.32L234.716 98.8982ZM220.069 91.9803L218.482 97.4035V86.209L220.069 82.5097V91.9803ZM220.569 91.7662V81.5426H231.223V91.7662H220.569ZM231.723 81.8961L235.22 85.3926L234.899 98.1597L231.723 91.9559V81.8961Z" fill="#DDE2E5" stroke="#5D666B" stroke-width="0.5" stroke-linecap="round" stroke-linejoin="round"/>
<path d="M254.44 98.8982H238.291L240.231 92.2662H251.045L254.44 98.8982ZM239.794 91.9803L238.207 97.4035V86.209L239.794 82.5097V91.9803ZM240.294 91.7662V81.5426H250.948V91.7662H240.294ZM251.448 81.8961L254.944 85.3926L254.624 98.1597L251.448 91.9559V81.8961Z" fill="#DDE2E5" stroke="#5D666B" stroke-width="0.5" stroke-linecap="round" stroke-linejoin="round"/>
<path d="M274.165 98.8982H258.015L259.956 92.2662H270.769L274.165 98.8982ZM259.518 91.9803L257.932 97.4035V86.209L259.518 82.5097V91.9803ZM260.018 91.7662V81.5426H270.672V91.7662H260.018ZM271.172 81.8961L274.669 85.3926L274.349 98.1597L271.172 91.9559V81.8961Z" fill="#DDE2E5" stroke="#5D666B" stroke-width="0.5" stroke-linecap="round" stroke-linejoin="round"/>
<path d="M333.948 98.9237H277.831L281.507 92.3018H329.603L333.948 98.9237ZM281.11 91.987L277.656 98.2083V86.2905L281.11 82.0467V91.987ZM281.61 91.8018V81.5935H329.488V91.8018H281.61ZM329.988 81.817L335.324 85.461L334.224 98.4316L329.988 91.9771V81.817Z" fill="#DDE2E5" stroke="#5D666B" stroke-width="0.5" stroke-linecap="round" stroke-linejoin="round"/>
<path d="M76.9228 98.8982H60.7731L62.7135 92.2662H73.5271L76.9228 98.8982ZM62.2761 91.9803L60.6895 97.4035V86.209L62.2761 82.5097V91.9803ZM62.7761 91.7662V81.5426H73.43V91.7662H62.7761ZM73.93 81.8961L77.4269 85.3926L77.1064 98.1597L73.93 91.9559V81.8961Z" fill="#DDE2E5" stroke="#5D666B" stroke-width="0.5" stroke-linecap="round" stroke-linejoin="round"/>
<path d="M223.508 103.007V116.338L218.128 109.868V99.6975L223.508 103.007ZM217.628 99.5001V109.708L98.7908 109.658V99.4493L217.628 99.5001ZM98.2908 99.8409V109.836L94.3281 116.16V104.155L98.2908 99.8409ZM223.225 116.779H94.5298L98.6791 110.158L217.761 110.208L223.225 116.779ZM223.758 102.867V116.638V102.867Z" fill="#65A9BE" stroke="#5D666B" stroke-width="0.5" stroke-linecap="round" stroke-linejoin="round"/>
<path d="M34.8497 116.448H10.5449L12.5294 109.827L31.6011 109.877L34.8497 116.448ZM12.0937 109.539L10.459 114.993V103.78L12.1362 100.046L12.0937 109.539ZM12.5946 109.327L12.6403 99.1187L31.5065 99.1683V109.377L12.5946 109.327ZM32.0065 99.5152L35.5139 102.962L35.0391 115.703L32.0065 109.569V99.5152Z" fill="#DDE2E5" stroke="#5D666B" stroke-width="0.5" stroke-linecap="round" stroke-linejoin="round"/>
<path d="M334.666 116.779H310.361L312.346 110.158L331.417 110.208L334.666 116.779ZM311.91 109.87L310.275 115.324V104.111L311.953 100.378L311.91 109.87ZM312.411 109.658L312.457 99.4499L331.323 99.4995V109.708L312.411 109.658ZM331.823 99.8464L335.33 103.294L334.856 116.034L331.823 109.9V99.8464Z" fill="#DDE2E5" stroke="#5D666B" stroke-width="0.5" stroke-linecap="round" stroke-linejoin="round"/>
<path d="M306.711 116.728H282.406L284.391 110.107L303.462 110.157L306.711 116.728ZM283.955 109.819L282.32 115.274V104.06L283.998 100.327L283.955 109.819ZM284.456 109.607L284.502 99.399L303.368 99.4486V109.657L284.456 109.607ZM303.868 99.7955L307.375 103.243L306.9 115.983L303.868 109.849V99.7955Z" fill="#DDE2E5" stroke="#5D666B" stroke-width="0.5" stroke-linecap="round" stroke-linejoin="round"/>
<path d="M278.754 116.779H254.449L256.434 110.158L275.505 110.208L278.754 116.779ZM255.998 109.87L254.363 115.324V104.111L256.04 100.378L255.998 109.87ZM256.499 109.658L256.545 99.4499L275.411 99.4995V109.708L256.499 109.658ZM275.911 99.8464L279.418 103.294L278.943 116.034L275.911 109.9V99.8464Z" fill="#DDE2E5" stroke="#5D666B" stroke-width="0.5" stroke-linecap="round" stroke-linejoin="round"/>
<path d="M250.797 116.779H226.492L228.477 110.158L247.548 110.208L250.797 116.779ZM228.041 109.87L226.406 115.324V104.111L228.083 100.378L228.041 109.87ZM228.542 109.658L228.588 99.4499L247.454 99.4995V109.708L228.542 109.658ZM247.954 99.8464L251.461 103.294L250.986 116.034L247.954 109.9V99.8464Z" fill="#DDE2E5" stroke="#5D666B" stroke-width="0.5" stroke-linecap="round" stroke-linejoin="round"/>
<path d="M62.8067 116.728H38.5019L40.4864 110.107L59.5581 110.157L62.8067 116.728ZM40.0507 109.819L38.416 115.274V104.06L40.0932 100.327L40.0507 109.819ZM40.5517 109.607L40.5974 99.399L59.4636 99.4486V109.657L40.5517 109.607ZM59.9636 99.7955L63.4709 103.243L62.9961 115.983L59.9636 109.849V99.7955Z" fill="#DDE2E5" stroke="#5D666B" stroke-width="0.5" stroke-linecap="round" stroke-linejoin="round"/>
<path d="M90.7638 116.474H66.459L68.4435 109.852L87.5151 109.902L90.7638 116.474ZM68.0077 109.565L66.373 115.019V103.805L68.0502 100.072L68.0077 109.565ZM68.5087 109.352L68.5544 99.1442L87.4206 99.1938V109.402L68.5087 109.352ZM87.9206 99.5407L91.4279 102.988L90.9532 115.729L87.9206 109.594V99.5407Z" fill="#DDE2E5" stroke="#5D666B" stroke-width="0.5" stroke-linecap="round" stroke-linejoin="round"/>
<path d="M118.259 70.9165L119.524 67.0234H120.474L118.683 72H117.846L116.062 67.0234H117.008L118.259 70.9165Z" fill="black"/>
<path d="M138.371 71.3096H140.63V72H137.506V67.0234H138.371V71.3096Z" fill="black"/>
<path d="M176.506 72V67.0234H177.976C178.415 67.0234 178.805 67.1214 179.145 67.3174C179.486 67.5133 179.751 67.7913 179.938 68.1514C180.124 68.5114 180.218 68.9238 180.218 69.3887V69.6382C180.218 70.1099 180.123 70.5246 179.934 70.8823C179.747 71.2401 179.479 71.5158 179.131 71.7095C178.785 71.9032 178.387 72 177.938 72H176.506ZM177.371 67.7207V71.3096H177.935C178.388 71.3096 178.736 71.1683 178.977 70.8857C179.221 70.6009 179.345 70.193 179.35 69.6621V69.3853C179.35 68.8452 179.232 68.4328 178.998 68.1479C178.763 67.8631 178.422 67.7207 177.976 67.7207H177.371Z" fill="black"/>
<path d="M159.292 70.8413H157.364L156.96 72H156.062L157.941 67.0234H158.717L160.601 72H159.698L159.292 70.8413ZM157.606 70.144H159.049L158.328 68.0796L157.606 70.144Z" fill="black"/>
</svg>
