<?xml version="1.0" encoding="UTF-8" standalone="no"?>
<svg
   xmlns:dc="http://purl.org/dc/elements/1.1/"
   xmlns:cc="http://creativecommons.org/ns#"
   xmlns:rdf="http://www.w3.org/1999/02/22-rdf-syntax-ns#"
   xmlns:svg="http://www.w3.org/2000/svg"
   xmlns="http://www.w3.org/2000/svg"
   xmlns:xlink="http://www.w3.org/1999/xlink"
   xmlns:sodipodi="http://sodipodi.sourceforge.net/DTD/sodipodi-0.dtd"
   xmlns:inkscape="http://www.inkscape.org/namespaces/inkscape"
   id="f1a3512c-954b-43cd-b4a7-b2a657bfa049"
   data-name="Layer 1"
   width="1135.18"
   height="814.22"
   viewBox="0 0 1135.18 814.22"
   version="1.1"
   sodipodi:docname="space.svg"
   inkscape:version="0.92.4 5da689c313, 2019-01-14">
  <metadata
     id="metadata196">
    <rdf:RDF>
      <cc:Work
         rdf:about="">
        <dc:format>image/svg+xml</dc:format>
        <dc:type
           rdf:resource="http://purl.org/dc/dcmitype/StillImage" />
      </cc:Work>
    </rdf:RDF>
  </metadata>
  <sodipodi:namedview
     pagecolor="#ffffff"
     bordercolor="#666666"
     borderopacity="1"
     objecttolerance="10"
     gridtolerance="10"
     guidetolerance="10"
     inkscape:pageopacity="0"
     inkscape:pageshadow="2"
     inkscape:window-width="1878"
     inkscape:window-height="1006"
     id="namedview194"
     showgrid="false"
     inkscape:zoom="0.79980714"
     inkscape:cx="798.27521"
     inkscape:cy="347.11325"
     inkscape:window-x="20"
     inkscape:window-y="38"
     inkscape:window-maximized="0"
     inkscape:current-layer="f1a3512c-954b-43cd-b4a7-b2a657bfa049" />
  <defs
     id="defs23">
    <linearGradient
       id="a846f69c-c3f1-49f3-adee-5a4e8443ee4e"
       x1="277.46"
       y1="697.11"
       x2="277.46"
       y2="669.52"
       gradientUnits="userSpaceOnUse">
      <stop
         offset="0"
         stop-color="gray"
         stop-opacity="0.25"
         id="stop2" />
      <stop
         offset="0.54"
         stop-color="gray"
         stop-opacity="0.12"
         id="stop4" />
      <stop
         offset="1"
         stop-color="gray"
         stop-opacity="0.1"
         id="stop6" />
    </linearGradient>
    <linearGradient
       id="b1395abd-e294-4466-9af9-40f9f1f4ad0f"
       x1="748.15"
       y1="567.16"
       x2="748.15"
       y2="544.13"
       xlink:href="#a846f69c-c3f1-49f3-adee-5a4e8443ee4e" />
    <linearGradient
       id="a8b11853-451e-4181-8600-fa718044326b"
       x1="556.93"
       y1="707.16"
       x2="556.93"
       y2="42.89"
       xlink:href="#a846f69c-c3f1-49f3-adee-5a4e8443ee4e" />
    <linearGradient
       id="f1ea05b4-3102-498a-ab85-05d222a08540"
       x1="456.95"
       y1="628.14"
       x2="456.95"
       y2="692.54"
       gradientUnits="userSpaceOnUse">
      <stop
         offset="0"
         stop-color="#e0e0e0"
         id="stop11" />
      <stop
         offset="0.31"
         stop-color="#fccc63"
         id="stop13" />
      <stop
         offset="0.77"
         stop-color="#f55f44"
         id="stop15" />
    </linearGradient>
    <linearGradient
       id="a65a9945-4cea-45de-8969-2abf9ed9c602"
       x1="534.05"
       y1="628.14"
       x2="534.05"
       y2="692.54"
       xlink:href="#f1ea05b4-3102-498a-ab85-05d222a08540"
       gradientTransform="matrix(0.07357333,-0.1771505,0.1771505,0.07357333,489.74694,781.80077)" />
    <linearGradient
       id="e83da883-60d3-4fc8-a1fc-2d21e84cc652"
       x1="582.35"
       y1="628.14"
       x2="582.35"
       y2="692.54"
       xlink:href="#f1ea05b4-3102-498a-ab85-05d222a08540"
       gradientTransform="matrix(0.07357333,-0.1771505,0.1771505,0.07357333,489.74694,781.80077)" />
    <linearGradient
       id="e7319a41-e0d4-4be9-9de6-9ff87ed2cc66"
       x1="660.3"
       y1="628.14"
       x2="660.3"
       y2="692.54"
       xlink:href="#f1ea05b4-3102-498a-ab85-05d222a08540"
       gradientTransform="matrix(0.07357333,-0.1771505,0.1771505,0.07357333,489.74694,781.80077)" />
    <linearGradient
       id="a8b1f8cd-6e4b-4699-9cd1-501c51b12a87"
       x1="766.05"
       y1="409.23"
       x2="766.05"
       y2="340.57"
       xlink:href="#a846f69c-c3f1-49f3-adee-5a4e8443ee4e" />
    <linearGradient
       id="ef97273a-5cfd-4109-a624-feeb24fdeadc"
       x1="331.05"
       y1="577.85"
       x2="331.05"
       y2="529.94"
       xlink:href="#a846f69c-c3f1-49f3-adee-5a4e8443ee4e" />
    <linearGradient
       inkscape:collect="always"
       xlink:href="#f1ea05b4-3102-498a-ab85-05d222a08540"
       id="linearGradient1005"
       gradientUnits="userSpaceOnUse"
       x1="456.95"
       y1="628.14"
       x2="456.95"
       y2="692.54"
       gradientTransform="matrix(0.07357333,-0.1771505,0.1771505,0.07357333,489.74694,781.80077)" />
  </defs>
  <title
     id="title25">Outer space</title>
  <path
     d="M 94.49132,412.97003 C 103.31316,487.82891 42.03685,569.17159 60.473031,631.9201 111.11906,804.29652 662.44974,865.12196 904.65999,758.83971 980.03595,725.76462 1176.4502,518.0269 1086.9732,226.50022 1048.0912,99.818108 997.51931,103.58758 794.87317,111.87925 592.22702,120.17092 304.74271,-9.7641501 176.43506,27.352954 -80.180311,101.58726 88.56651,283.44401 94.49132,412.97003 Z"
     id="path27"
     inkscape:connector-curvature="0"
     style="opacity:1;fill:#000000;fill-opacity:0.25490196;stroke-width:0.79091907"
     sodipodi:nodetypes="csssssc" />
  <g
     opacity="0.7"
     id="g31">
    <circle
       cx="277.46"
       cy="683.31"
       r="13.8"
       fill="url(#a846f69c-c3f1-49f3-adee-5a4e8443ee4e)"
       id="circle29" />
  </g>
  <circle
     cx="277.46"
     cy="683.31"
     r="13.18"
     opacity="0.2"
     id="circle33" />
  <circle
     cx="203.11"
     cy="414.14"
     r="5.1"
     fill="#fff"
     id="circle35" />
  <circle
     cx="498.34341"
     cy="533.84753"
     r="5.0999999"
     id="circle37"
     style="fill:#ffffff" />
  <circle
     cx="352.11"
     cy="736.14"
     r="2.85"
     fill="#fff"
     id="circle39" />
  <circle
     cx="983.11"
     cy="598.14"
     r="2.85"
     fill="#fff"
     id="circle41" />
  <circle
     cx="820.11"
     cy="342.14"
     r="2.85"
     fill="#fff"
     id="circle43" />
  <circle
     cx="1051.11"
     cy="467.14"
     r="2.85"
     fill="#fff"
     id="circle45" />
  <circle
     cx="293.11"
     cy="247.14"
     r="5.1"
     fill="#fff"
     id="circle47" />
  <polygon
     points="152.94 592.21 148.4 592.21 148.4 587.67 146.55 587.67 146.55 592.21 142.01 592.21 142.01 594.06 146.55 594.06 146.55 598.59 148.4 598.59 148.4 594.06 152.94 594.06 152.94 592.21"
     fill="#fff"
     id="polygon49" />
  <polygon
     points="266.94 590.21 262.4 590.21 262.4 585.67 260.55 585.67 260.55 590.21 256.01 590.21 256.01 592.06 260.55 592.06 260.55 596.59 262.4 596.59 262.4 592.06 266.94 592.06 266.94 590.21"
     fill="#fff"
     id="polygon51" />
  <polygon
     points="429.94 682.21 425.4 682.21 425.4 677.67 423.55 677.67 423.55 682.21 419.01 682.21 419.01 684.06 423.55 684.06 423.55 688.59 425.4 688.59 425.4 684.06 429.94 684.06 429.94 682.21"
     fill="#fff"
     id="polygon53" />
  <polygon
     points="654.06,130.71 651.99,130.71 651.99,131.55 654.06,131.55 654.06,133.62 654.9,133.62 654.9,131.55 656.97,131.55 656.97,130.71 654.9,130.71 654.9,128.64 654.06,128.64 "
     id="polygon55"
     transform="matrix(0.63285986,0.38455279,-0.38455279,0.63285986,311.08283,-26.132047)"
     style="fill:#ffffff" />
  <polygon
     points="951.97 320.71 949.9 320.71 949.9 318.64 949.06 318.64 949.06 320.71 946.99 320.71 946.99 321.55 949.06 321.55 949.06 323.62 949.9 323.62 949.9 321.55 951.97 321.55 951.97 320.71"
     fill="#fff"
     id="polygon57" />
  <polygon
     points="777.97 444.71 775.9 444.71 775.9 442.64 775.06 442.64 775.06 444.71 772.99 444.71 772.99 445.55 775.06 445.55 775.06 447.62 775.9 447.62 775.9 445.55 777.97 445.55 777.97 444.71"
     fill="#fff"
     id="polygon59" />
  <polygon
     points="69.97 522.71 67.9 522.71 67.9 520.64 67.06 520.64 67.06 522.71 64.99 522.71 64.99 523.55 67.06 523.55 67.06 525.62 67.9 525.62 67.9 523.55 69.97 523.55 69.97 522.71"
     fill="#fff"
     id="polygon61" />
  <polygon
     points="154.97 692.71 152.9 692.71 152.9 690.64 152.06 690.64 152.06 692.71 149.99 692.71 149.99 693.55 152.06 693.55 152.06 695.62 152.9 695.62 152.9 693.55 154.97 693.55 154.97 692.71"
     fill="#fff"
     id="polygon63" />
  <polygon
     points="419.06,156.55 419.06,158.62 419.9,158.62 419.9,156.55 421.97,156.55 421.97,155.71 419.9,155.71 419.9,153.64 419.06,153.64 419.06,155.71 416.99,155.71 416.99,156.55 "
     id="polygon65"
     transform="matrix(0.07357333,-0.1771505,0.1771505,0.07357333,499.72944,779.21488)"
     style="fill:#ffffff" />
  <polygon
     points="295.97 454.71 293.9 454.71 293.9 452.64 293.06 452.64 293.06 454.71 290.99 454.71 290.99 455.55 293.06 455.55 293.06 457.62 293.9 457.62 293.9 455.55 295.97 455.55 295.97 454.71"
     fill="#fff"
     id="polygon67" />
  <polygon
     points="322.97 368.71 320.9 368.71 320.9 366.64 320.06 366.64 320.06 368.71 317.99 368.71 317.99 369.55 320.06 369.55 320.06 371.62 320.9 371.62 320.9 369.55 322.97 369.55 322.97 368.71"
     fill="#fff"
     id="polygon69" />
  <g
     opacity="0.7"
     id="g73">
    <circle
       cx="748.15"
       cy="555.65"
       r="11.52"
       fill="url(#b1395abd-e294-4466-9af9-40f9f1f4ad0f)"
       id="circle71" />
  </g>
  <circle
     cx="748.15"
     cy="555.65"
     r="10.67"
     opacity="0.2"
     id="circle75" />
  <circle
     cx="776.88"
     cy="630.76"
     r="11.93"
     opacity="0.2"
     id="circle77" />
  <polygon
     points="432.16,556.44 436.4,585.25 412.67,585.25 416.91,556.44 "
     id="polygon83"
     transform="matrix(0.07357333,-0.1771505,0.1771505,0.07357333,499.72944,779.21488)"
     style="fill:#535461" />
  <g
     id="g87"
     transform="matrix(0.07357333,-0.1771505,0.1771505,0.07357333,499.72944,779.21488)"
     style="opacity:0.1">
    <polygon
       points="416.91,559.83 415.73,567.88 433.34,567.88 432.16,559.83 "
       id="polygon85" />
  </g>
  <polygon
     points="635.52,556.44 639.75,585.25 616.03,585.25 620.26,556.44 "
     id="polygon89"
     transform="matrix(0.07357333,-0.1771505,0.1771505,0.07357333,499.72944,779.21488)"
     style="fill:#535461" />
  <g
     id="g93"
     transform="matrix(0.07357333,-0.1771505,0.1771505,0.07357333,499.72944,779.21488)"
     style="opacity:0.1">
    <polygon
       points="620.26,559.83 619.08,567.88 636.7,567.88 635.52,559.83 "
       id="polygon91" />
  </g>
  <polygon
     points="509.27,556.44 513.5,585.25 489.78,585.25 494.01,556.44 "
     id="polygon95"
     transform="matrix(0.07357333,-0.1771505,0.1771505,0.07357333,499.72944,779.21488)"
     style="fill:#535461" />
  <g
     id="g99"
     transform="matrix(0.07357333,-0.1771505,0.1771505,0.07357333,499.72944,779.21488)"
     style="opacity:0.1">
    <polygon
       points="494.01,559.83 492.83,567.88 510.45,567.88 509.27,559.83 "
       id="polygon97" />
  </g>
  <polygon
     points="557.56,556.44 561.8,585.25 538.08,585.25 542.31,556.44 "
     id="polygon101"
     transform="matrix(0.07357333,-0.1771505,0.1771505,0.07357333,499.72944,779.21488)"
     style="fill:#535461" />
  <g
     id="g105"
     transform="matrix(0.07357333,-0.1771505,0.1771505,0.07357333,499.72944,779.21488)"
     style="opacity:0.1">
    <polygon
       points="542.31,559.83 541.13,567.88 558.75,567.88 557.56,559.83 "
       id="polygon103" />
  </g>
  <rect
     x="-444.23895"
     y="821.44574"
     width="32.506001"
     height="1.3005471"
     id="rect107"
     style="fill:#535461;stroke-width:0.1918211"
     transform="rotate(-67.446136)" />
  <path
     d="m 583.65804,682.79074 a 1.8318915,1.8318915 0 0 0 -1.0418,2.50846 c 0.56911,1.26034 1.47216,2.56177 2.4951,3.79459 a 29.688151,29.688151 0 0 0 11.4754,8.37793 l 46.20794,19.19086 5.518,-13.28628 -46.40281,-19.2718 a 29.582648,29.582648 0 0 0 -13.64445,-2.22505 c -2.18316,0.17545 -3.65857,0.54718 -4.60738,0.91129 z"
     id="path109"
     inkscape:connector-curvature="0"
     style="fill:#e0e0e0;stroke-width:0.1918211" />
  <path
     d="m 567.83463,720.8905 a 1.8318915,1.8318915 0 0 1 1.0418,-2.50845 c 1.29526,-0.48813 2.85386,-0.76511 4.44993,-0.9123 a 29.711168,29.711168 0 0 1 14.03428,2.21664 l 46.20793,19.19086 -5.51799,13.2863 -46.4028,-19.27181 a 29.582648,29.582648 0 0 1 -11.20623,-8.09581 c -1.41727,-1.66869 -2.19521,-2.97631 -2.60692,-3.90543 z"
     id="path111"
     inkscape:connector-curvature="0"
     style="fill:#e0e0e0;stroke-width:0.1918211" />
  <polygon
     points="387.25,329.36 387.25,307.33 405.05,307.42 405.05,329.36 "
     id="polygon113"
     transform="matrix(0.07357333,-0.1771505,0.1771505,0.07357333,499.72944,779.21488)"
     style="fill:#535461" />
  <polygon
     points="444.02,329.36 444.02,307.33 461.82,307.42 461.82,329.36 "
     id="polygon115"
     transform="matrix(0.07357333,-0.1771505,0.1771505,0.07357333,499.72944,779.21488)"
     style="fill:#535461" />
  <polygon
     points="587.22,329.36 587.22,307.33 605.01,307.42 605.01,329.36 "
     id="polygon117"
     transform="matrix(0.07357333,-0.1771505,0.1771505,0.07357333,499.72944,779.21488)"
     style="fill:#535461" />
  <polygon
     points="643.99,329.36 643.99,307.33 661.78,307.42 661.78,329.36 "
     id="polygon119"
     transform="matrix(0.07357333,-0.1771505,0.1771505,0.07357333,499.72944,779.21488)"
     style="fill:#535461" />
  <g
     id="g123"
     transform="matrix(0.07357333,-0.1771505,0.1771505,0.07357333,499.72944,779.21488)"
     style="opacity:0.1">
    <path
       d="m 476.84,273.42 c -3.9,-7.39 -8.35,-14.34 -13.29,-19.6 a 9.51,9.51 0 0 0 -11.33,-2.13 10.11,10.11 0 0 1 2.86,2.13 c 4.93,5.26 9.39,12.21 13.28,19.6 a 154.75,154.75 0 0 1 17.39,72 v 260.82 h 8.48 V 345.43 a 154.88,154.88 0 0 0 -17.39,-72.01 z"
       transform="translate(-32.41,-42.89)"
       id="path121"
       inkscape:connector-curvature="0" />
  </g>
  <g
     id="g127"
     transform="matrix(0.07357333,-0.1771505,0.1771505,0.07357333,499.72944,779.21488)"
     style="opacity:0.1">
    <path
       d="m 643.8,274.14 c 3.89,-7.39 8.35,-14.34 13.28,-19.6 a 9.92,9.92 0 0 1 3.28,-2.34 9.54,9.54 0 0 0 -10.9,2.34 c -4.94,5.26 -9.4,12.21 -13.29,19.6 a 154.89,154.89 0 0 0 -17.39,72 V 607 h 7.63 V 346.16 a 154.77,154.77 0 0 1 17.39,-72.02 z"
       transform="translate(-32.41,-42.89)"
       id="path125"
       inkscape:connector-curvature="0" />
  </g>
  <path
     d="m 646.07362,751.74763 -0.0478,0.11514 a 2.2136154,2.2136154 0 0 1 -2.89335,1.19528 l -9.36418,-3.88908 1.7459,-4.20378 9.36417,3.88908 a 2.2136154,2.2136154 0 0 1 1.19528,2.89336 z"
     id="path129"
     style="fill:url(#linearGradient1005);stroke-width:0.1918211"
     inkscape:connector-curvature="0" />
  <path
     d="m 651.74686,738.08755 -0.0485,0.11692 a 2.2136154,2.2136154 0 0 1 -2.89261,1.19351 l -9.36418,-3.88909 1.74516,-4.202 9.36418,3.88908 a 2.2136154,2.2136154 0 0 1 1.19601,2.89157 z"
     id="path131"
     style="fill:url(#a65a9945-4cea-45de-8969-2abf9ed9c602);stroke-width:0.1918211"
     inkscape:connector-curvature="0" />
  <path
     d="m 655.29971,729.53296 -0.0493,0.11868 a 2.2136154,2.2136154 0 0 1 -2.89115,1.18997 l -9.36417,-3.88908 1.74516,-4.20202 9.36417,3.88909 a 2.2136154,2.2136154 0 0 1 1.19528,2.89335 z"
     id="path133"
     style="fill:url(#e83da883-60d3-4fc8-a1fc-2d21e84cc652);stroke-width:0.1918211"
     inkscape:connector-curvature="0" />
  <path
     d="m 661.03549,715.7223 -0.0464,0.11162 a 2.2136154,2.2136154 0 0 1 -2.89482,1.19882 l -9.36417,-3.88909 1.74515,-4.20201 9.36418,3.88909 a 2.2136154,2.2136154 0 0 1 1.19601,2.89158 z"
     id="path135"
     style="fill:url(#e7319a41-e0d4-4be9-9de6-9ff87ed2cc66);stroke-width:0.1918211"
     inkscape:connector-curvature="0" />
  <path
     d="m 540.20821,685.12554 a 2.5320384,2.5320384 0 0 0 -1.48691,3.58021 c 0.88093,1.81981 2.25419,3.71947 3.80501,5.5267 4.60661,5.33204 10.59571,9.55584 17.29199,12.33691 l 74.15698,30.79854 7.87233,-18.95511 -74.45457,-30.92213 c -6.50674,-2.70236 -13.52058,-3.95365 -20.3578,-3.54472 -3.23876,0.18153 -5.41447,0.6841 -6.82703,1.1796 z"
     id="path137"
     inkscape:connector-curvature="0"
     style="fill:#eeeeee;stroke-width:0.1918211" />
  <rect
     x="-433.03851"
     y="770.59357"
     width="10.71129"
     height="4.9087019"
     rx="2.1100321"
     id="rect139"
     style="fill:#535461;stroke-width:0.1918211"
     transform="rotate(-67.446136)" />
  <g
     id="g143"
     transform="matrix(0.07357333,-0.1771505,0.1771505,0.07357333,499.72944,779.21488)"
     style="opacity:0.1">
    <rect
       x="470.48001"
       y="158.35001"
       width="105.91"
       height="4.1100001"
       id="rect141" />
  </g>
  <path
     d="M793.45,354.22h0a34.62,34.62,0,0,0-10.22-9h0a34.33,34.33,0,1,0-17.17,64.07c.73,0,1.46,0,2.17-.08a34.32,34.32,0,0,0,25.23-54.93Z"
     transform="translate(-32.41 -42.89)"
     fill="url(#a8b1f8cd-6e4b-4699-9cd1-501c51b12a87)"
     id="path145" />
  <path
     d="M798.5,374.9a32.45,32.45,0,0,1-30.4,32.38c-.67,0-1.36.07-2.05.07a32.46,32.46,0,1,1,16.23-60.56h0a32.59,32.59,0,0,1,9.66,8.56h0A32.3,32.3,0,0,1,798.5,374.9Z"
     transform="translate(-32.41 -42.89)"
     opacity="0.2"
     id="path147" />
  <path
     d="M758.06,354.31a34.88,34.88,0,0,0-4.84,2.55,7.61,7.61,0,0,0-2.59,2.32,3,3,0,0,0-.06,3.31c.79,1.08,2.31,1.24,3.65,1.32a9.34,9.34,0,0,0,4.18-.42,9,9,0,0,0,2.44-1.77l2.79-2.53c1-.88,2-2.09,1.61-3.33a3,3,0,0,0-2.37-1.6,9.92,9.92,0,0,0-7,1.23"
     transform="translate(-32.41 -42.89)"
     opacity="0.1"
     id="path149" />
  <g
     opacity="0.1"
     id="g153">
    <circle
       cx="714"
       cy="344.82"
       r="1.71"
       id="circle151" />
  </g>
  <g
     opacity="0.1"
     id="g157">
    <circle
       cx="748.72"
       cy="334"
       r="6.26"
       id="circle155" />
  </g>
  <g
     opacity="0.1"
     id="g161">
    <path
       d="M792,355.35h0a8.54,8.54,0,1,1-9.67-8.56h0A32.59,32.59,0,0,1,792,355.35Z"
       transform="translate(-32.41 -42.89)"
       id="path159" />
  </g>
  <g
     opacity="0.1"
     id="g165">
    <path
       d="M792.58,393.58a32.37,32.37,0,0,1-24.48,13.7c0-.45-.06-.9-.06-1.36a15.38,15.38,0,0,1,24.54-12.34Z"
       transform="translate(-32.41 -42.89)"
       id="path163" />
  </g>
  <path
     d="M350.17,539.47h0a24.15,24.15,0,0,0-7.14-6.32h0a24,24,0,1,0-12,44.7c.51,0,1,0,1.52-.05a24,24,0,0,0,17.6-38.33Z"
     transform="translate(-32.41 -42.89)"
     fill="url(#ef97273a-5cfd-4109-a624-feeb24fdeadc)"
     id="path167" />
  <path
     d="M353.69,553.9a22.64,22.64,0,0,1-21.21,22.59c-.47,0-1,0-1.43,0a22.64,22.64,0,1,1,11.32-42.25h0a22.67,22.67,0,0,1,6.74,6h0A22.52,22.52,0,0,1,353.69,553.9Z"
     transform="translate(-32.41 -42.89)"
     opacity="0.2"
     id="path169" />
  <path
     d="M325.47,539.54a23.5,23.5,0,0,0-3.37,1.77,5.54,5.54,0,0,0-1.81,1.62,2.13,2.13,0,0,0,0,2.31,3.23,3.23,0,0,0,2.54.92,6.51,6.51,0,0,0,2.92-.29,6.29,6.29,0,0,0,1.71-1.24l1.94-1.76c.68-.62,1.42-1.46,1.12-2.32a2,2,0,0,0-1.65-1.12,6.87,6.87,0,0,0-4.87.86"
     transform="translate(-32.41 -42.89)"
     opacity="0.1"
     id="path171" />
  <g
     opacity="0.1"
     id="g175">
    <circle
       cx="284.93"
       cy="519.94"
       r="1.19"
       id="circle173" />
  </g>
  <g
     opacity="0.1"
     id="g179">
    <circle
       cx="309.16"
       cy="512.4"
       r="4.37"
       id="circle177" />
  </g>
  <g
     opacity="0.1"
     id="g183">
    <path
       d="M349.12,540.26h0a6,6,0,1,1-6.75-6h0A22.67,22.67,0,0,1,349.12,540.26Z"
       transform="translate(-32.41 -42.89)"
       id="path181" />
  </g>
  <g
     opacity="0.1"
     id="g187">
    <path
       d="M349.56,566.93a22.59,22.59,0,0,1-17.08,9.56c0-.31,0-.63,0-1a10.73,10.73,0,0,1,17.12-8.61Z"
       transform="translate(-32.41 -42.89)"
       id="path185" />
  </g>
  <polyline
     points="837.69 539.42 859.49 551.02 842.47 570.06"
     fill="none"
     id="polyline189" />
  <circle
     cx="954.9"
     cy="428.23"
     r="1.84"
     fill="#fff"
     id="circle191" />
</svg>
